<svg id="Layer_1" data-name="Layer 1" xmlns="http://www.w3.org/2000/svg" viewBox="0 0 149.41 149.42"><defs><style>.cls-1{fill:#545554;}</style></defs><path class="cls-1" d="M149.38,57.22c-.23.29-.45.6-.7.87a2.91,2.91,0,0,1-5.11-1.57,11.82,11.82,0,0,1,0-1.46q0-18.3,0-36.61A12.08,12.08,0,0,0,138.83,8.3a12.69,12.69,0,0,0-8.05-2.43H18.49a12.47,12.47,0,0,0-8,2.5,12,12,0,0,0-4.62,10q0,14.65,0,29.32v83.13c0,5.13,2,9.1,6.7,11.5a12.36,12.36,0,0,0,5.64,1.21q56.51,0,113,0c5.91,0,10.3-3.3,11.87-8.82a14.39,14.39,0,0,0,.47-4q0-22.68,0-45.36a3,3,0,0,1,2.16-3.21c1.31-.38,2.45.16,3.39,1.59a4,4,0,0,0,.28.32v50.47c-.91,7.34-5.24,11.86-11.93,14.42a12.22,12.22,0,0,1-4.45.59q-58.32,0-116.64,0c-7.78,0-14.59-6.38-16.19-13.19a15,15,0,0,1-.3-3.48c0-38.78.05-77.57,0-116.35C-.2,7.92,7.55.94,13.32.25A4.52,4.52,0,0,0,15.18,0h119c6.56.66,10.95,4.34,13.88,10a14.16,14.16,0,0,1,1.29,5.14Z"></path><path class="cls-1" d="M149.38,71.51c-1.27,1.93-2.54,2.53-4,1.85a2.8,2.8,0,0,1-1.79-2.88,2.77,2.77,0,0,1,2.16-2.61A2.71,2.71,0,0,1,148.79,69c.2.26.39.54.59.8Z"></path><path class="cls-1" d="M73.49,109.55a35.79,35.79,0,0,1-21.18-7.71c-1-.78-1.93-1.63-2.85-2.49a3,3,0,0,1-.4-4.38,2.86,2.86,0,0,1,4.29,0,30.79,30.79,0,0,0,8.84,6c11.59,4.8,22.32,3.34,32.13-4.54.53-.42,1-.91,1.53-1.35,1.65-1.41,3.31-1.45,4.51-.1s.93,3-.58,4.48a39.44,39.44,0,0,1-7.71,5.68C86.81,108.17,79,110,73.49,109.55Z"></path><path class="cls-1" d="M37.06,62.55a12.25,12.25,0,0,1,24.46-.06c.13,2-.9,3.37-2.63,3.54s-2.9-.86-3.19-2.8c-.59-3.87-2.57-6.08-5.68-6.34a6.31,6.31,0,0,0-7.13,6C42.73,64.67,42,65.7,40.56,66,38.42,66.4,37,65,37.06,62.55Z"></path><path class="cls-1" d="M112.33,62.63c0,2-1,3.34-2.72,3.43S106.68,65,106.49,63a6.3,6.3,0,0,0-6-6.09c-3.48-.15-6,2-6.61,5.59,0,.1,0,.19-.06.29-.41,2.51-1.55,3.57-3.5,3.25S87.6,64.13,88,61.69c1-6.28,5.63-10.67,12-10.78A12.14,12.14,0,0,1,112.33,62.63Z"></path></svg>