<svg version="1.1" id="Layer_1" xmlns="http://www.w3.org/2000/svg" xmlns:xlink="http://www.w3.org/1999/xlink" x="0px" y="0px" viewBox="0 0 75.7 40.92" style="enable-background:new 0 0 75.7 40.92;" xml:space="preserve">
                                        <g>
                                            <g class="st4 color-main-fill">
                                                <path class="st5" d="M70.51,34.13c0.05,0.1,0.12,0.02,0.15,0.02C70.54,33.99,70.49,34.14,70.51,34.13z"></path>
                                                <polygon class="st5" points="69.29,32.61 69.34,32.62 69.1,32.43         "></polygon>
                                                <path class="st5" d="M68.33,31.08c-0.06,0.24,0.37,0.54,0.49,0.84l-0.01,0.07l0.2,0.05C68.79,31.72,68.44,31.34,68.33,31.08z"></path>
                                                <path class="st5" d="M68.15,30.05c-0.03,0.09-0.16-0.14,0.1,0.2c0-0.02,0-0.03-0.01-0.04C68.22,30.18,68.19,30.13,68.15,30.05z"></path>
                                                <path class="st5" d="M68.24,30.21C68.34,30.37,68.22,30.07,68.24,30.21L68.24,30.21z"></path>
                                                <path class="st5" d="M67.72,29.5l0.2,0.17c0-0.07-0.12-0.25-0.05-0.2C67.69,29.28,67.69,29.34,67.72,29.5z"></path>
                                                <path class="st5" d="M67.47,29.38l0.1,0.09C67.57,29.44,67.55,29.41,67.47,29.38z"></path>
                                                <path class="st5" d="M67.78,29.66l-0.21-0.19c0,0.05-0.05,0.08,0.09,0.09C67.6,29.57,67.68,29.59,67.78,29.66z"></path>
                                                <path class="st5" d="M67.85,29.8c0.05,0.14,0.12,0.31-0.06,0.13C68.06,30.33,68.13,30.19,67.85,29.8z"></path>
                                                <path class="st5" d="M68.13,31.1l0.06,0.19l0.14,0.1C68.25,31.34,68.17,31.06,68.13,31.1z"></path>
                                                <path class="st5" d="M66.86,28.19c-0.04,0.01-0.03,0.13-0.06,0.17l0.15,0.12C66.91,28.39,66.82,28.23,66.86,28.19z"></path>
                                                <path class="st5" d="M66.8,28.36l-0.22-0.18C66.72,28.38,66.78,28.39,66.8,28.36z"></path>
                                                <polygon class="st5" points="67.28,29.46 67.66,29.75 67.23,29.39        "></polygon>
                                                <polygon class="st5" points="66.23,27.33 66.4,27.4 66.12,27.26      "></polygon>
                                                <path class="st5" d="M65.8,26.77c0.13,0.05,0-0.2,0.11-0.13c-0.12-0.15-0.27-0.24-0.4-0.32C65.63,26.42,65.72,26.56,65.8,26.77z"></path>
                                                <path class="st5" d="M65.3,26.17c0.06,0.05,0.13,0.1,0.21,0.15C65.45,26.26,65.38,26.21,65.3,26.17z"></path>
                                                <path class="st5" d="M66.32,27.78c0.01-0.03,0.03-0.1-0.04-0.24l-0.02,0.15C66.27,27.72,66.3,27.75,66.32,27.78z"></path>
                                                <path class="st5" d="M66.25,27.7L66.25,27.7c-0.07-0.1-0.11-0.17-0.13-0.2C66.14,27.52,66.18,27.58,66.25,27.7z"></path>
                                                <path class="st5" d="M66.33,27.8l-0.02-0.02C66.32,27.8,66.32,27.8,66.33,27.8z"></path>
                                                <path class="st5" d="M66.93,28.82c-0.15-0.1-0.4-0.33-0.28-0.01C66.78,28.86,66.71,28.68,66.93,28.82z"></path>
                                                <path class="st5" d="M66.31,27.99l0.16,0.25c0.02-0.02,0.02-0.09,0.09-0.04L66.31,27.99z"></path>
                                                <polygon class="st5" points="66.19,27.9 66.31,27.99 66.25,27.9      "></polygon>
                                                <path class="st5" d="M65.52,26.64c-0.11-0.07-0.2-0.18-0.3-0.31c0.08,0.15,0.18,0.3,0.28,0.43
                                                    C65.54,26.76,65.63,26.78,65.52,26.64z"></path>
                                                <path class="st5" d="M65.87,27.16l-0.02-0.02C65.85,27.16,65.86,27.17,65.87,27.16z"></path>
                                                <polygon class="st5" points="64.25,25.13 64.25,25.16 64.27,25.15        "></polygon>
                                                <path class="st5" d="M65.5,26.79c0.06,0.11,0.12,0.16,0.19,0.2c-0.06-0.07-0.13-0.15-0.19-0.23
                                                    C65.48,26.76,65.47,26.76,65.5,26.79z"></path>
                                                <path class="st5" d="M65,25.85c0.02,0.07,0.05,0.14,0.08,0.21C65.07,25.99,65.04,25.85,65,25.85z"></path>
                                                <path class="st5" d="M65.85,27.09l0.02,0.01C65.85,27.05,65.85,27.06,65.85,27.09z"></path>
                                                <path class="st5" d="M65.85,27.09c-0.05-0.04-0.1-0.07-0.15-0.1c0.05,0.06,0.1,0.11,0.15,0.15C65.84,27.12,65.84,27.1,65.85,27.09
                                                    z"></path>
                                                <path class="st5" d="M63.42,25.21c0.09-0.05,0.38,0.14,0.48,0.43c0.24,0.16,0.37-0.18,0.35-0.48c-0.04,0.02-0.07,0.05-0.31-0.14
                                                    c0.03,0.11,0.32,0.57,0.09,0.44c-0.29-0.26-0.18-0.26-0.26-0.43c0.01,0.2-0.46-0.25-0.54-0.07l0.27,0.21
                                                    C63.49,25.19,63.38,25.13,63.42,25.21z"></path>
                                                <path class="st5" d="M64.61,25.58l0.09,0.08c-0.08-0.11-0.11-0.21-0.17-0.4c-0.17-0.12-0.22-0.13-0.26-0.12l0.38,0.45L64.61,25.58
                                                    z"></path>
                                                <path class="st5" d="M65.02,26.09c-0.14-0.01-0.35-0.21-0.33,0c0.21,0.28,0.22,0.14,0.38,0.28c-0.36-0.44,0.14,0.09-0.05-0.27
                                                    c0.08,0.08,0.14,0.16,0.2,0.23c-0.05-0.09-0.1-0.18-0.14-0.27l0,0.01l0,0l0,0c0,0.03,0,0.04-0.01,0.01l-0.01-0.01
                                                    C65.06,26.09,65.04,26.09,65.02,26.09c-0.08-0.15,0.01-0.04,0.05-0.01l0.02,0l0,0c-0.13-0.14-0.25-0.29-0.39-0.41
                                                    C64.77,25.76,64.86,25.89,65.02,26.09z"></path>
                                                <path class="st5" d="M66.28,28.7c0-0.02,0-0.02,0.01-0.03C66.26,28.65,66.24,28.64,66.28,28.7z"></path>
                                                <path class="st5" d="M66.2,28.47c0.04,0.02,0.09,0.03,0.16,0.14c0.04,0.11-0.04,0.03-0.07,0.06c0.07,0.05,0.23,0.18,0.12-0.05
                                                    l-0.04-0.02c-0.11-0.2-0.17-0.52-0.14-0.5C66.2,28.21,66.18,28.3,66.2,28.47z"></path>
                                                <path class="st5" d="M65.58,27.29l-0.32-0.35l0.07,0.25l0.04-0.04C65.51,27.38,65.53,27.29,65.58,27.29z"></path>
                                                <polygon class="st5" points="64.26,25.05 64.39,25.03 64.08,24.92        "></polygon>
                                                <polygon class="st5" points="63.84,24.6 63.94,24.55 63.78,24.46         "></polygon>
                                                <path class="st5" d="M35.28,6.16l-0.14-0.02C35.21,6.16,35.25,6.16,35.28,6.16z"></path>
                                                <path class="st5" d="M36.21,6.48l0.04-0.04C36.2,6.46,36.18,6.47,36.21,6.48z"></path>
                                                <path class="st5" d="M52.89,14.26c-0.11-0.19-0.21-0.44-0.25-0.34l-0.01,0.12C52.74,14.11,52.82,14.18,52.89,14.26z"></path>
                                                <path class="st5" d="M43.85,9.31l0.04,0.06c0.06-0.01,0.12-0.02,0.17-0.03C43.99,9.33,43.92,9.32,43.85,9.31z"></path>
                                                <path class="st5" d="M43.52,9.65l-0.2-0.18C43.36,9.51,43.42,9.57,43.52,9.65z"></path>
                                                <path class="st5" d="M30.1,4.69l-0.18,0.07C30.16,4.82,30.07,4.74,30.1,4.69z"></path>
                                                <path class="st5" d="M59.53,20.01c-0.09-0.15-0.18-0.26-0.26-0.35C59.38,19.85,59.43,20.03,59.53,20.01z"></path>
                                                <path class="st5" d="M36.04,5.2c-0.09-0.01-0.13,0-0.14,0.02C36,5.24,36.05,5.23,36.04,5.2z"></path>
                                                <path class="st5" d="M58.91,19.3c0.02,0.03,0.03,0.05,0.05,0.08c0.1,0.08,0.21,0.16,0.31,0.27C59.19,19.51,59.08,19.37,58.91,19.3
                                                    z"></path>
                                                <path class="st5" d="M10.75,2.8c-0.02,0-0.03-0.01-0.05-0.01C10.71,2.8,10.73,2.8,10.75,2.8z"></path>
                                                <path class="st5" d="M4.92,2.42C4.98,2.4,5.07,2.39,5.15,2.37C5.11,2.37,5.04,2.38,4.92,2.42z"></path>
                                                <path class="st5" d="M62.26,22.69C62.35,22.79,62.28,22.7,62.26,22.69L62.26,22.69z"></path>
                                                <path class="st5" d="M62.35,23.46c-0.03-0.01-0.05-0.02-0.07,0C62.31,23.45,62.33,23.45,62.35,23.46z"></path>
                                                <path class="st5" d="M57.53,18.89L57.53,18.89C57.53,18.92,57.53,18.91,57.53,18.89z"></path>
                                                <path class="st5" d="M62.35,22.88c-0.02-0.05-0.05-0.1-0.09-0.15C62.28,22.75,62.3,22.8,62.35,22.88z"></path>
                                                <path class="st5" d="M62.37,22.82c0.03,0.04,0.05,0.07,0.07,0.09C62.46,22.92,62.46,22.9,62.37,22.82z"></path>
                                                <path class="st5" d="M62.13,22.56c0.05,0.06,0.09,0.11,0.13,0.17c-0.01-0.02-0.01-0.04-0.01-0.03
                                                    C62.23,22.67,62.19,22.63,62.13,22.56z"></path>
                                                <path class="st5" d="M21.24,2.68c-0.01,0-0.02-0.01-0.03-0.01C21.08,2.7,21.13,2.7,21.24,2.68z"></path>
                                                <polygon class="st5" points="49.51,13.2 49.53,13.2 49.51,13.19      "></polygon>
                                                <path class="st5" d="M49.08,13.02c0.24-0.01,0.33,0.06,0.44,0.17l0.05-0.34L49.08,13.02z"></path>
                                                <path class="st5" d="M33.03,5.44l0.28,0.2c-0.42,0.03-0.67-0.11-0.42,0.11c0.15-0.31,1.19,0.37,1.34,0.06l0.18,0.14
                                                    c-0.06-0.02-0.07-0.01-0.13-0.03c0.34,0.29,0.37-0.13,0.86,0.08c0.17,0.08,0.27,0.17,0.14,0.17l0.42,0.05
                                                    c0.11,0.04,0.06,0.09-0.05,0.05l0.61,0.18l-0.01,0.01c0.1-0.02,0.33-0.04,0.43-0.03c0.13,0.11-0.09,0-0.06,0.06l0.35,0.06
                                                    c0.1,0.14-0.2,0.1-0.42,0c0.18,0.44,0.3,0.03,0.88,0.49l-0.32-0.09c0.12,0.26,0.39,0.3,0.68,0.55c-0.06-0.09-0.57-0.57-0.19-0.5
                                                    c0.09,0.07,0.21,0.13,0.43,0.15c-0.04,0.11,0.15,0.16,0.38,0.25l-0.08,0.14c0.27,0.06,0.28-0.02,0.45-0.02
                                                    c0.27,0.13,0.28,0.27,0.3,0.39c0.43,0.21-0.23-0.31,0.31-0.12c0.35,0.21,0.63,0.26,1.11,0.36c0.24,0.16-0.09,0.07-0.01,0.15
                                                    l0.28-0.02c0.05,0.03,0.02,0.05,0,0.07c0.21,0.04,0.09-0.15,0.4-0.04c0.16-0.12,0.49,0.54,0.94,0.55
                                                    c0.07,0.09-0.09,0.07-0.09,0.14c0.56,0.14,0.47,0.14,0.96,0.19l0.3,0.27c-0.2-0.24,0.19-0.2,0.54-0.15
                                                    c-0.06-0.1-0.12-0.18-0.16-0.23l0.5,0.16c0.04,0.05-0.03,0.08-0.14,0.1c0.04,0,0.07,0.01,0.1,0.01c0.14,0.14,0.01,0.17-0.15,0.19
                                                    c-0.04-0.06-0.08-0.11-0.12-0.17c-0.16,0.03-0.32,0.07-0.33,0.16c0.04,0,0.1,0.01,0.17,0.04c-0.04,0.01-0.07,0.02-0.07,0.04
                                                    c0.01,0.02,0.07,0.02,0.17,0.02l0.02,0.21l0.06-0.05l0.55,0.41c0.51,0.07,1.03,0.01,1.71,0.36c-0.23,0.01-0.14,0.16-0.23,0.29
                                                    c-0.1-0.25-0.53-0.27-0.87-0.47c0.18,0.11,0.1,0.15,0.04,0.15c0.24,0.06,0.46,0.15,0.69,0.23c-0.08,0.1,0.08,0.16,0.21,0.3
                                                    c0.01-0.29,0.53,0.13,0.82,0.22c-0.03,0.08-0.13,0.12-0.42-0.08c0.23,0.37,0.58,0.01,0.82,0.35c-0.07-0.04-0.11-0.08-0.16-0.06
                                                    c0.21,0.04,0.6,0.35,0.46,0.35l-0.07-0.04c0.47,0.32,1.48,0.91,1.67,0.78c-0.01,0.03-0.2,0.18-0.26,0.19
                                                    c0.41-0.02,0.85-0.06,1.25-0.04c-0.17,0.1-0.14,0.66-0.58,0.47c0.1,0.1,0.21,0.22,0.48,0.34c-0.06-0.08-0.04-0.35,0.07-0.29
                                                    c0.17,0.37,0.13,0.23,0.38,0.63c-0.09-0.11,0.2-0.26,0.37-0.12c-0.05,0.01-0.15,0.24-0.23,0.22l0.6,0.09
                                                    c-0.14-0.04-0.16,0.18-0.11,0.32c-0.01-0.08,0.38,0.28,0.51,0.34l-0.15-0.19c0.47,0.4,0.73,0.04,1.22,0.41
                                                    c-0.1,0-0.36,0.18-0.13,0.39c0.2-0.03,0.93-0.18,1.44,0.06l0.03,0.13l0.38,0.2c-0.33-0.01-1.19-0.1-1.62-0.18
                                                    c0.15,0.19-0.01,0.11,0.28,0.31c0.05,0.13-0.22-0.02-0.31-0.07c0.2,0.17,0.42,0.33,0.61,0.52c0.08-0.16,0.57,0.26,0.64,0.14
                                                    c-0.26-0.14-0.51-0.3-0.78-0.42c0.08-0.16,0.69-0.06,1.11,0.33c0.07,0.15-0.27,0.16-0.3,0.21c0.09,0,0.48,0.26,0.5,0.33
                                                    l-0.24-0.09c0.2,0.25,0.54,0.16,0.72,0.53c0.09,0.09,0.16,0.42,0.24,0.36c-0.04-0.28,0.31-0.77,0.51-0.78
                                                    c0.03,0.04,0.41,0.59,0.47,0.76c0.07,0.25-0.48,0.06-0.43,0.28c0.04-0.03,0.16,0.01,0.21,0.02c0.08,0.12-0.14,0.07,0.11,0.25
                                                    c0.15-0.1,0.46,0.41,0.2-0.02c0.26,0.15,0.22,0.23,0.48,0.45c-0.01-0.15,0.49-0.08,0.75,0.08c-0.04,0.02-0.03,0.1-0.02,0.15
                                                    c0.42,0.44,0.6,0.72,1,1.12c0.01,0.07,0.17,0.29,0.03,0.26c0.08,0.04,0.17,0.05,0.3,0.17c0.14,0.34-0.29-0.26-0.23,0.05
                                                    c0.08-0.06,0.41,0.22,0.63,0.35c0.05-0.16-0.39-0.42-0.61-0.55c0.15-0.15,0.61-0.01,1.1,0.34c0.37,0.29,0.05,0.24,0.13,0.28
                                                    c0.6,0.65,0.8,0.27,1.22,0.9c0.11,0.3-0.18,0.19-0.21,0.31c-0.31-0.23-0.36-0.47-0.55-0.65l0.18,0.27
                                                    c-0.12-0.05-0.32-0.21-0.4-0.34c0.08,0.26,1.06,1.05,1.4,1.66c0.11,0.06,0.28,0.19,0.26,0.08l-0.16-0.15
                                                    c-0.05-0.22,0.38,0.21,0.24-0.03c0.25,0.17,0.55,0.33,0.77,0.68l-0.06,0.16c0.03-0.04-0.11-0.26-0.22-0.32
                                                    c0.16,0.08,0.25,0.61,0.53,0.62l-0.11-0.29c0.25,0.17,0.61,0.34,0.81,0.64c0.01-0.22-0.07-0.05-0.1-0.36
                                                    c-0.02,0.31-0.6-0.71-0.54-0.29c-0.02-0.34-0.23-0.4-0.33-0.78c-0.03,0.04,0.01,0.16-0.17-0.09c-0.02,0-0.06-0.01-0.08-0.02
                                                    l-0.01-0.02l0.01,0.02c-0.01,0-0.02,0,0,0.01c0.03,0.07,0.05,0.13,0.04,0.17c-0.19-0.04-0.5-0.4-0.65-0.49
                                                    c-0.1-0.15,0.09,0.02,0.07-0.09l-0.23-0.12c0.07-0.09-0.18-0.49,0.15-0.21c-0.08-0.1-0.16-0.2-0.25-0.29
                                                    c-0.11-0.2-0.32-0.44-0.49-0.54c-0.11-0.14-0.41-0.24-0.24-0.19l-0.48-0.37l0.02-0.02c-0.41-0.43-1-0.73-1.34-1.35
                                                    c-0.16-0.12-0.33-0.24-0.55-0.5l0.02-0.12c-0.2-0.16-0.48-0.62-0.64-0.6c-0.04-0.37-0.91-0.85-1.23-1.18l-0.1,0.08
                                                    c-0.23-0.21-0.48-0.37-0.81-0.58l-0.05,0.1c-0.31-0.14-0.6-0.61-1.01-0.95c0.05-0.01,0.15,0.08,0.2,0.17
                                                    c-0.16-0.3-0.44-0.48-0.73-0.65c-0.3-0.15-0.59-0.28-0.76-0.52c-0.14-0.05-0.21-0.12-0.28-0.2c0.01,0.01,0.02,0.01,0.03,0.02
                                                    c-0.01-0.01-0.03-0.02-0.05-0.04c-0.04-0.05-0.08-0.11-0.12-0.16c0.03,0.06,0.06,0.11,0.1,0.15c-0.09-0.06-0.23-0.15-0.38-0.22
                                                    l0.02-0.14c-0.01-0.01-0.02-0.01-0.03-0.02c-0.1-0.13-0.14-0.03-0.12,0.09c-0.08-0.03-0.15-0.06-0.22-0.07
                                                    c0.01-0.23-0.38-0.2-0.41-0.47c-0.15,0.02-0.71-0.42-0.9-0.3c0.01-0.03-0.02-0.06,0.05-0.01c-0.13-0.13-0.27-0.25-0.43-0.3
                                                    l0.02-0.17l-0.44-0.06c-0.14-0.22-0.19-0.32,0.07-0.28c-0.57-0.18-0.43-0.2-0.94-0.31l0.07-0.07c-0.15-0.09-0.46-0.12-0.51-0.25
                                                    c-0.23-0.36-1.63-1.04-2.4-1.72c0.02,0.35-0.33-0.36-0.48-0.18c-0.02-0.09-0.12-0.2,0.05-0.16c-0.48-0.2-0.63-0.46-1.03-0.46
                                                    c-0.02-0.09,0.15-0.04,0.12-0.1c-0.04-0.01-0.17-0.02-0.2-0.08C44.87,9.07,45,9.11,45.08,9.12c-0.47-0.23-0.62-0.07-0.75,0.09
                                                    c-0.19-0.21-0.32-0.25-0.55-0.23c-0.05-0.1-0.16-0.23,0.14-0.1c-0.16-0.09-0.95-0.6-1.04-0.47c-0.03-0.06-0.22-0.13-0.27-0.13
                                                    c-0.36-0.2-0.39-0.23-0.75-0.4l0.09,0.07c-0.23,0.1-0.32-0.12-0.61-0.24l0.02-0.01c-0.63-0.42-0.32-0.06-0.93-0.5l-0.01,0.12
                                                    c-0.17,0.21-0.54-0.39-0.97-0.47l0.11,0.12c-0.25-0.01-0.46-0.58-0.67-0.7c-0.04-0.04,0.09,0,0.16,0.01
                                                    c-0.51-0.38-0.13,0.11-0.57-0.03c-0.05-0.11,0.18-0.16-0.1-0.29c-0.12-0.12-0.93-0.09-1.25-0.41c0.06,0.1,0.12,0.19-0.09,0.16
                                                    c-0.31-0.1-0.75-0.52-1.09-0.42c-0.03-0.03-0.04-0.05-0.04-0.07c-0.25-0.03-0.8-0.18-0.97-0.12c-0.09-0.47-1.53-0.3-1.4-0.66
                                                    L32.8,4.22l0.03-0.03C32.37,4,32.18,4.05,31.99,4.1c-0.1-0.05-0.01-0.07,0-0.08c-0.67-0.25-0.75-0.25-1.38-0.22l-0.03-0.14
                                                    c-0.17,0.03-0.96-0.44-1.67-0.47c0.01-0.01,0.03-0.03,0.09-0.04c-0.79-0.06-1.77-0.79-2.15-0.37L26.32,2.8
                                                    c0.66,0.15-0.14,0.18,0.12,0.3c-0.26-0.02-0.65-0.25-0.32-0.22l0.05,0.03c0.16-0.21-0.81-0.22-0.76-0.38
                                                    c-1.31-0.2-2.56-0.61-3.8-0.69l0.12,0.19l-0.43-0.05c-0.11-0.05-0.14-0.16,0.17-0.12c-0.15-0.12-0.53,0.04-0.54,0.08
                                                    c-0.6-0.13,0.26-0.19,0.07-0.21l-0.25-0.01l0.05,0.03c-0.21,0.06-0.24,0.13-0.61,0.09c-0.23-0.06-0.11-0.12-0.2-0.14
                                                    c0-0.01-0.03-0.02-0.14-0.02l-0.54-0.06l0.21,0.16C19.27,1.84,19,1.73,19.24,1.92c-0.17-0.14-0.68-0.21-1.17-0.26
                                                    c-0.49-0.03-0.96,0-1.08-0.04c-0.34,0.1-0.68,0.1-1.09,0.08c0.1,0.03,0.16,0.19-0.19,0.17c0.13-0.33-0.65-0.15-0.94-0.39
                                                    c0.26,0.16-1.02,0.03-0.61,0.26c-0.3-0.03-0.02-0.13-0.25-0.21c-0.71,0.1-1.57-0.04-2.44,0.07c-0.01,0.04,0.14,0.1-0.04,0.18
                                                    L10.95,1.6c-0.17,0.03-0.14,0.27-0.47,0.14c0.05,0.03,0.12,0.08,0,0.11C9.62,1.81,8.75,1.89,7.87,2.02
                                                    c-0.87,0.16-1.74,0.3-2.64,0.24c0.25,0.05,0.09,0.08-0.08,0.11c0.12,0,0.02,0.11,0.05,0.16L4.45,2.49
                                                    c-0.1,0.18-0.77,0.14-0.82,0.3l0.22-0.06c-0.27,0.23,0.5,0.34,0.5,0.58C4.66,3.04,5.3,3.47,5.8,3.09
                                                    c0.13,0.03-0.09,0.09-0.02,0.14C5.9,3.1,6.07,3.05,6.39,3.05L6.36,3.08c0.88-0.15,1.26-0.16,2.26-0.19L8.53,2.78
                                                    c0.22,0,0.26,0.03,0.37,0.06c0.23-0.2-0.6,0.03-0.4-0.18c0.31,0.22,1.51-0.11,1.73,0.15c0.33-0.02-0.11-0.13,0.22-0.15l0.09,0.07
                                                    l0.08-0.1c0.22,0,0.33,0.08,0.34,0.15c-0.05,0-0.15,0.03-0.2,0.04c0.28,0.07,0.78-0.09,0.88-0.07l-0.32-0.02
                                                    c0.89-0.14,1.99-0.14,2.86-0.24l-0.07-0.06c0.66-0.1,0.53,0.07,1.26,0.02l-0.03,0.01c0.15-0.05,0.34-0.08,0.54-0.07
                                                    c-0.19,0.06,0.34,0.13,0.1,0.2c0.72-0.11,0.36-0.08,0.84-0.29l0.11,0.09c0.17-0.08,0.18-0.13,0.55-0.15
                                                    c-0.3,0.08,0.23,0.14-0.11,0.25c0.75,0.19,1.14-0.13,1.48,0.18c0.37-0.22-0.65-0.2-0.45-0.24c-0.16-0.1,0.3-0.17,0.54-0.12
                                                    c0.24,0.03,0.39,0.36,1,0.41c-0.06-0.01-0.07,0.01-0.13,0.01c0.22,0.09,0.46-0.05,0.73,0.08c0.17-0.14,0.36,0.04,0.43-0.15
                                                    l-0.57,0c0.32-0.02,0.65-0.23,1.16-0.07c-0.05,0.04-0.21,0.07-0.32,0.09c0.15,0.07,0.3-0.01,0.45,0.06
                                                    c-0.07,0.19-0.69-0.02-1.04,0.1c0.16,0.1,0.66-0.08,0.47,0.11c0.27-0.25,0.6,0.09,1.03-0.08l-0.04,0.12
                                                    c0.07-0.01,0.21-0.06,0.33-0.04L22.2,3.08c0.35-0.11,0.63,0.18,0.95,0.17c-0.66-0.11-0.13-0.17-0.4-0.3
                                                    c0.84-0.02,0.43,0.39,1.35,0.49c-0.13,0-0.46-0.15-0.25-0.17c0.17,0.05,0.39,0.14,0.49,0.22c0.61,0.08-0.07-0.14,0.2-0.16
                                                    c0.18,0.18,0.31-0.01,0.58-0.01l-0.02,0.12c0.68,0.19,0.23-0.22,0.84-0.02l-0.29,0.12l0.33,0.01l-0.09,0.12
                                                    c0.37-0.04,0.48,0.01,0.82,0.1c-0.06-0.1,0.09-0.21,0.4-0.16c0.2,0.11-0.14,0.09,0.3,0.15C27.29,3.82,27.16,3.9,27,3.76
                                                    c-0.03,0.04-0.11,0.06-0.14,0.09c0.21,0.12,0.56,0.11,0.72,0.16c-0.06-0.02-0.13-0.04-0.16-0.07l0.66-0.01
                                                    c0.09,0.07,0,0.08-0.08,0.1c0.13,0.02,0.23-0.01,0.42,0.02c-0.07,0.08-0.08,0.18-0.35,0.16l0.61,0.04
                                                    c0.03,0.05,0.28,0.19,0.19,0.21c0.31,0.14,0.85,0.02,1.26,0.2c0.03-0.01,0.08-0.02,0.17-0.01c0.4,0.12,0.73,0.33,1.25,0.33
                                                    l0.23,0.24c0.39,0.06-0.31-0.31,0.34-0.2c0.45,0.09,0.12,0.2,0.26,0.3c0.24-0.01,0.67-0.06,1.03,0.22
                                                    C33.25,5.52,33.16,5.46,33.03,5.44z M37.6,6.98c-0.1-0.01-0.3-0.01-0.33-0.11C37.41,6.79,37.47,6.88,37.6,6.98z M44.38,9.85
                                                    c-0.08,0-0.17-0.06-0.25-0.16C44.21,9.72,44.29,9.77,44.38,9.85z M61.23,21.7l-0.01,0C61.1,21.51,61.14,21.58,61.23,21.7z
                                                     M61.5,22.05c0.04,0.02,0.05,0.01,0.05-0.02c-0.04,0-0.11-0.08-0.18-0.16C61.37,21.92,61.4,21.97,61.5,22.05z M19.94,1.75
                                                    l0.08,0.04C19.82,1.8,19.88,1.78,19.94,1.75z"></path>
                                                <path class="st5" d="M43.56,9.61c-0.01-0.03-0.01-0.05-0.01-0.08C43.51,9.53,43.5,9.55,43.56,9.61z"></path>
                                                <path class="st5" d="M30.13,4.68l-0.01,0c-0.01,0.01-0.02,0.01-0.02,0.02L30.13,4.68z"></path>
                                                <path class="st5" d="M55.89,18.12c-0.06-0.07-0.08-0.12-0.09-0.16C55.78,17.98,55.79,18.02,55.89,18.12z"></path>
                                                <path class="st5" d="M63.18,23.68l-0.21-0.19c0.09,0.1,0.11,0.15,0.14,0.22C63.13,23.68,63.12,23.61,63.18,23.68z"></path>
                                                <path class="st5" d="M64.21,26c0.04,0.02,0.06,0.06,0.1,0.09l0.04-0.04C64.23,25.92,64.11,25.85,64.21,26z"></path>
                                                <path class="st5" d="M63.05,24.14c-0.06,0.08,0.08,0.19,0.22,0.33l-0.02-0.03C63.4,24.4,63.23,24.27,63.05,24.14z"></path>
                                                <path class="st5" d="M63.31,24.5c0.04,0.04,0.09,0.09,0.12,0.14C63.49,24.62,63.39,24.57,63.31,24.5z"></path>
                                                <path class="st5" d="M61.92,22.43c0.04,0.09,0.13-0.04,0.14,0.02C62.22,22.44,61.53,22.08,61.92,22.43z"></path>
                                                <polygon class="st5" points="62.9,24.48 62.95,24.34 62.8,24.33      "></polygon>
                                                <path class="st5" d="M61.96,23.25l0.18,0.26c0.01-0.02,0.05,0,0.09,0.04C62.1,23.39,61.98,23.22,61.96,23.25z"></path>
                                                <path class="st5" d="M62.22,23.54c0.06,0.08,0.13,0.15,0.18,0.18C62.37,23.68,62.29,23.59,62.22,23.54z"></path>
                                                <polygon class="st5" points="62.59,24.18 62.55,24.09 62.42,23.92        "></polygon>
                                                <path class="st5" d="M59.65,20.79l-0.27-0.22c-0.05,0.01-0.01,0.09,0.1,0.17C59.55,20.78,59.65,20.86,59.65,20.79z"></path>
                                                <path class="st5" d="M60.14,21.76c-0.05-0.08-0.03-0.11-0.04-0.17l-0.12,0.1L60.14,21.76z"></path>
                                                <path class="st5" d="M59.4,21.08c-0.05,0.01-0.44-0.26-0.13,0.04C59.33,21.11,59.6,21.33,59.4,21.08z"></path>
                                                <polygon class="st5" points="55.77,17.45 55.83,17.51 55.99,17.31        "></polygon>
                                                <path class="st5" d="M51.86,15.11c0.29,0.28,0.17-0.07,0.42,0.2c0.11,0.01-0.2-0.22-0.09-0.21
                                                    C51.95,15.02,51.87,14.91,51.86,15.11z"></path>
                                                <path class="st5" d="M52.18,15.11c0.03,0.01,0.07,0.03,0.12,0.04C52.24,15.12,52.21,15.11,52.18,15.11z"></path>
                                                <polygon class="st5" points="3.94,2.44 3.67,2.43 3.86,2.48      "></polygon>
                                                <path class="st5" d="M3.48,2.7L3.39,2.55L3.26,2.72C3.32,2.71,3.43,2.67,3.48,2.7z"></path>
                                                <path class="st5" d="M38.13,7.57l0.03-0.03c-0.02-0.05-0.07-0.08-0.18-0.13L38.13,7.57z"></path>
                                                <polygon class="st5" points="34.92,6.21 34.98,6.23 34.92,6.06       "></polygon>
                                                <path class="st5" d="M32.09,5.45c0.11,0.04,0.25,0.06,0.37,0.1C32.2,5.49,32.11,5.26,32.09,5.45z"></path>
                                            </g>
                                            <g class="st4 color-main-fill">
                                                <path class="st5" d="M70.06,26.07c0-0.03-0.1-0.01-0.12-0.01C69.97,26.11,70.08,26.07,70.06,26.07z"></path>
                                                <polygon class="st5" points="70.36,26.58 70.32,26.58 70.44,26.64        "></polygon>
                                                <path class="st5" d="M70.43,27.09c0.17-0.07-0.05-0.18,0-0.28l0.04-0.02l-0.15-0.02C70.36,26.87,70.47,27,70.43,27.09z"></path>
                                                <path class="st5" d="M70.08,27.41c0.07-0.03,0.07,0.05,0.01-0.07l-0.02,0.01C70.08,27.37,70.09,27.38,70.08,27.41z"></path>
                                                <path class="st5" d="M70.08,27.36C70.07,27.3,70.03,27.4,70.08,27.36L70.08,27.36z"></path>
                                                <path class="st5" d="M70.15,27.6l-0.07-0.06c-0.04,0.02-0.04,0.08-0.07,0.06C70.06,27.67,70.09,27.65,70.15,27.6z"></path>
                                                <path class="st5" d="M70.29,27.65l-0.03-0.03C70.25,27.62,70.24,27.63,70.29,27.65z"></path>
                                                <path class="st5" d="M70.2,27.54l0.07,0.07c0.03-0.01,0.08-0.02-0.02-0.03C70.29,27.58,70.24,27.57,70.2,27.54z"></path>
                                                <path class="st5" d="M70.22,27.5c0.03-0.04,0.05-0.1,0.12-0.04C70.3,27.33,70.17,27.37,70.22,27.5z"></path>
                                                <path class="st5" d="M70.62,27.09l0.04-0.06l-0.07-0.04C70.63,27.01,70.56,27.1,70.62,27.09z"></path>
                                                <path class="st5" d="M70.12,28.05c0.04,0,0.1-0.04,0.14-0.05l-0.05-0.05C70.19,27.98,70.18,28.04,70.12,28.05z"></path>
                                                <path class="st5" d="M70.27,28l0.08,0.07C70.34,28,70.31,27.99,70.27,28z"></path>
                                                <polygon class="st5" points="70.49,27.63 70.34,27.52 70.5,27.66         "></polygon>
                                                <polygon class="st5" points="70.16,28.34 70.06,28.31 70.21,28.37        "></polygon>
                                                <path class="st5" d="M70.2,28.54c-0.08-0.02-0.12,0.06-0.17,0.03c0.02,0.05,0.09,0.09,0.15,0.12
                                                    C70.15,28.65,70.15,28.61,70.2,28.54z"></path>
                                                <path class="st5" d="M70.27,28.75c-0.02-0.02-0.05-0.04-0.09-0.06C70.2,28.71,70.23,28.73,70.27,28.75z"></path>
                                                <path class="st5" d="M70.34,28.2c-0.02,0.01-0.08,0.03-0.1,0.08l0.1-0.04L70.34,28.2z"></path>
                                                <path class="st5" d="M70.35,28.23L70.35,28.23c0,0.03,0,0.06,0,0.07C70.35,28.29,70.35,28.27,70.35,28.23z"></path>
                                                <path class="st5" d="M70.34,28.19L70.34,28.19C70.35,28.2,70.35,28.19,70.34,28.19z"></path>
                                                <path class="st5" d="M70.42,27.85c0.07,0.04,0.14,0.12,0.22,0.02C70.56,27.85,70.52,27.91,70.42,27.85z"></path>
                                                <path class="st5" d="M70.47,28.14l0.01-0.09c-0.03,0.01-0.07,0.03-0.1,0.01L70.47,28.14z"></path>
                                                <polygon class="st5" points="70.51,28.17 70.47,28.14 70.46,28.17        "></polygon>
                                                <path class="st5" d="M70.35,28.6c0.05,0.03,0.06,0.07,0.07,0.11c0.01-0.05,0.02-0.1,0.01-0.15C70.41,28.56,70.34,28.55,70.35,28.6
                                                    z"></path>
                                                <path class="st5" d="M70.36,28.42L70.36,28.42C70.38,28.42,70.38,28.41,70.36,28.42z"></path>
                                                <polygon class="st5" points="70.49,29.14 70.5,29.13 70.48,29.13         "></polygon>
                                                <path class="st5" d="M70.46,28.55c0.02-0.04-0.01-0.06-0.05-0.07c0.01,0.03,0.02,0.05,0.03,0.08
                                                    C70.46,28.56,70.47,28.56,70.46,28.55z"></path>
                                                <path class="st5" d="M70.34,28.86c0.02-0.02,0.04-0.04,0.05-0.07C70.36,28.82,70.31,28.86,70.34,28.86z"></path>
                                                <path class="st5" d="M70.34,28.44L70.34,28.44C70.31,28.45,70.32,28.45,70.34,28.44z"></path>
                                                <path class="st5" d="M70.34,28.44c0.02,0.02,0.05,0.03,0.07,0.04c-0.01-0.02-0.03-0.04-0.04-0.05
                                                    C70.36,28.43,70.35,28.43,70.34,28.44z"></path>
                                                <path class="st5" d="M71.18,29.18c-0.1,0.01-0.2-0.07-0.11-0.17c-0.08-0.07-0.4,0.03-0.57,0.12c0.04,0,0.08-0.01,0.15,0.06
                                                    c0.05-0.04,0.1-0.2,0.2-0.14c0.07,0.1-0.02,0.09-0.07,0.15c0.12-0.06,0.2,0.11,0.37,0.07l-0.08-0.09
                                                    C71.11,29.18,71.16,29.21,71.18,29.18z"></path>
                                                <path class="st5" d="M70.49,28.97l-0.02-0.03c-0.01,0.04-0.05,0.07-0.12,0.13c0.06,0.05,0.09,0.06,0.13,0.06l-0.01-0.17
                                                    L70.49,28.97z"></path>
                                                <path class="st5" d="M70.46,28.79c0.11,0.01,0.17,0.09,0.28,0.02c-0.02-0.1-0.1-0.06-0.15-0.11c0.05,0.15-0.07-0.04-0.11,0.09
                                                    c-0.02-0.03-0.03-0.06-0.04-0.08c-0.01,0.03-0.02,0.06-0.04,0.09l0.01,0l0,0l0,0c0.01-0.01,0.02-0.01,0.01,0l0,0L70.46,28.79
                                                    c-0.02,0.05-0.03,0.01-0.04,0l-0.02,0l0,0l0.08,0.15C70.49,28.91,70.48,28.86,70.46,28.79z"></path>
                                                <path class="st5" d="M70.88,27.92c-0.01,0.01-0.02,0.01-0.02,0.01C70.87,27.94,70.88,27.94,70.88,27.92z"></path>
                                                <path class="st5" d="M70.83,28c-0.02-0.01-0.06-0.01-0.05-0.05c0.03-0.04,0.05-0.01,0.09-0.01c-0.03-0.02-0.09-0.07-0.13,0.01
                                                    l0.02,0.01c-0.03,0.07-0.15,0.17-0.17,0.16C70.67,28.08,70.74,28.05,70.83,28z"></path>
                                                <path class="st5" d="M70.67,28.39l0.07,0.13l0.08-0.08l-0.06,0.01C70.78,28.37,70.71,28.4,70.67,28.39z"></path>
                                                <polygon class="st5" points="70.43,29.16 70.32,29.16 70.49,29.21        "></polygon>
                                                <polygon class="st5" points="70.47,29.33 70.37,29.34 70.44,29.38        "></polygon>
                                                <path class="st5" d="M70.84,37.4l-0.06,0C70.81,37.41,70.83,37.41,70.84,37.4z"></path>
                                                <path class="st5" d="M71.25,37.63l0-0.05C71.23,37.6,71.23,37.62,71.25,37.63z"></path>
                                                <path class="st5" d="M71.05,33.55c-0.08,0.07-0.22,0.15-0.11,0.13l0.11-0.03C71.02,33.61,71.03,33.58,71.05,33.55z"></path>
                                                <path class="st5" d="M72.09,36.38l0.03,0c-0.04-0.04-0.08-0.07-0.12-0.1C72.03,36.31,72.06,36.34,72.09,36.38z"></path>
                                                <path class="st5" d="M72.59,36.73l-0.06,0.06C72.55,36.79,72.57,36.77,72.59,36.73z"></path>
                                                <path class="st5" d="M69.2,36.64l-0.09,0.08C69.17,36.75,69.17,36.69,69.2,36.64z"></path>
                                                <path class="st5" d="M70.75,31.09c-0.04,0.05-0.05,0.1-0.05,0.13C70.75,31.15,70.84,31.09,70.75,31.09z"></path>
                                                <path class="st5" d="M71,36.18c-0.01,0.02-0.01,0.04-0.01,0.07C71,36.23,71,36.21,71,36.18z"></path>
                                                <path class="st5" d="M70.72,31.36c0.01-0.01,0.01-0.02,0.02-0.03c-0.02-0.03-0.04-0.07-0.04-0.11
                                                    C70.66,31.27,70.64,31.32,70.72,31.36z"></path>
                                                <path class="st5" d="M64.3,33.88c0-0.01,0-0.01-0.01-0.02C64.29,33.87,64.29,33.88,64.3,33.88z"></path>
                                                <path class="st5" d="M63.39,32.13c0.02,0,0.04,0.01,0.06,0.02C63.44,32.15,63.42,32.14,63.39,32.13z"></path>
                                                <path class="st5" d="M70.52,30.03C70.51,29.99,70.5,30.03,70.52,30.03L70.52,30.03z"></path>
                                                <path class="st5" d="M70.92,29.8c0.01,0.01,0.03,0.01,0.05,0.01C70.95,29.8,70.93,29.8,70.92,29.8z"></path>
                                                <path class="st5" d="M71.44,31.63L71.44,31.63C71.46,31.62,71.45,31.62,71.44,31.63z"></path>
                                                <path class="st5" d="M70.56,29.97c-0.01,0.02-0.02,0.03-0.03,0.05C70.54,30.01,70.55,30,70.56,29.97z"></path>
                                                <path class="st5" d="M70.51,29.98c0-0.01,0-0.02,0.01-0.03C70.5,29.95,70.49,29.95,70.51,29.98z"></path>
                                                <path class="st5" d="M70.53,30.08c0-0.02,0-0.04,0-0.06c-0.01,0.01-0.02,0.01-0.02,0.01C70.52,30.04,70.52,30.06,70.53,30.08z"></path>
                                                <path class="st5" d="M67.09,35.06c0,0,0-0.01,0-0.01C67.03,35.07,67.05,35.07,67.09,35.06z"></path>
                                                <polygon class="st5" points="72.3,34.35 72.29,34.35 72.29,34.35         "></polygon>
                                                <path class="st5" d="M72.39,34.47c-0.14-0.04-0.13-0.07-0.11-0.12l-0.3,0.09L72.39,34.47z"></path>
                                                <path class="st5" d="M70.01,36.98l0.04,0.13c-0.17,0.09-0.22,0-0.21,0.16c0.17-0.3,0.33,0.14,0.56-0.12l0.06,0.12
                                                    c-0.02-0.02-0.04,0-0.06-0.02c0.13,0.26,0.21-0.17,0.39-0.01c0.07,0.07,0.11,0.15,0.06,0.16l0.17,0c0.05,0.03,0.04,0.1-0.01,0.06
                                                    l0.25,0.1l0,0.01c0.03-0.05,0.09-0.11,0.11-0.13c0.07,0.09-0.02,0.03,0.01,0.09l0.1-0.04c0.08,0.15,0,0.2-0.1,0.13
                                                    c0.23,0.51,0.08-0.05,0.45,0.37l-0.12-0.02c0.18,0.32,0.27,0.28,0.52,0.56c-0.1-0.13-0.51-0.62-0.39-0.65
                                                    c0.06,0.06,0.12,0.11,0.16,0.05c0.08,0.18,0.14,0.18,0.24,0.23l0.12,0.25c0.09-0.01,0.01-0.14,0.01-0.22
                                                    c0.13,0.09,0.28,0.31,0.42,0.5c0.24,0.16-0.34-0.41-0.13-0.33c0.15,0.13,0.23,0.15,0.28,0.13c-0.03-0.09-0.08-0.2-0.13-0.33
                                                    c0.05-0.03,0.12,0.19,0.17,0.22l-0.17-0.32c0-0.02,0.05,0.05,0.07,0.09c-0.07-0.17-0.2-0.26-0.27-0.46
                                                    c-0.21-0.27,0.27,0.08,0.01-0.36c0.05,0.01,0.12,0.14,0.19,0.2c-0.19-0.39-0.14-0.33-0.37-0.67c0.03-0.02,0.07-0.04,0.1-0.06
                                                    c-0.12,0.02-0.3-0.25-0.44-0.42c-0.06-0.01-0.11-0.02-0.14-0.03l-0.11-0.18c0.03,0,0.09,0.04,0.16,0.11l-0.05-0.05
                                                    c0.06-0.01,0.16,0.06,0.26,0.15c-0.03,0-0.07,0-0.1,0c0.11,0.1,0.24,0.22,0.34,0.28c-0.02-0.03-0.04-0.06-0.06-0.09
                                                    c0.03,0.03,0.06,0.05,0.07,0.06c0.02,0-0.02-0.04-0.07-0.1l0.19,0.06l-0.08-0.05c0.03-0.07,0.06-0.15,0.08-0.23
                                                    c-0.22-0.29-0.51-0.48-0.61-0.69c0.14,0.05,0.21,0,0.37-0.02c-0.15,0.09,0.1,0.23,0.09,0.4c0.01-0.08,0.08-0.05,0.11-0.02
                                                    c-0.07-0.11-0.13-0.22-0.19-0.31c0.13,0,0.09-0.07,0.13-0.15c-0.24,0.07-0.19-0.13-0.27-0.2c0.08-0.02,0.17-0.01,0.16,0.09
                                                    c0.17-0.14-0.31-0.1-0.17-0.23c0.01,0.02-0.01,0.04,0.04,0.04c-0.08-0.05-0.04-0.19,0.04-0.17l0,0.02
                                                    c0.01-0.17-0.06-0.49-0.28-0.49c0.03-0.01,0.26-0.01,0.3-0.01l-0.75-0.19c0.18,0,0.6-0.15,0.72-0.03
                                                    c0.02-0.04,0.04-0.09-0.03-0.17c-0.02,0.03-0.25,0.1-0.27,0.07c0.19-0.13,0.1-0.08,0.25-0.23c-0.03,0.04-0.32,0.04-0.32-0.02
                                                    c0.04,0,0.28-0.04,0.31-0.02l-0.3-0.12c0.06,0.03,0.24-0.03,0.31-0.07c-0.05,0.02-0.01-0.13-0.05-0.17l-0.06,0.07
                                                    c0.02-0.18-0.42-0.12-0.42-0.3c0.06,0.01,0.36,0,0.38-0.09c-0.15-0.02-0.71-0.09-0.84-0.23l0.08-0.04l-0.11-0.11
                                                    c0.22,0.04,0.7,0.19,0.9,0.28c0.06-0.07,0.09-0.03,0.07-0.13c0.07-0.04,0.12,0.04,0.13,0.07l0.02-0.24
                                                    c-0.17,0.03-0.19-0.15-0.33-0.12l0.21,0.22c-0.16,0.03-0.49-0.08-0.48-0.25c0.06-0.05,0.3-0.01,0.36-0.02
                                                    c-0.06-0.01-0.13-0.14-0.09-0.16l0.1,0.06c0.05-0.1-0.24-0.12-0.1-0.25c0.01-0.04,0.2-0.14,0.1-0.13
                                                    c-0.18,0.09-0.77,0.18-0.92,0.16c0.01-0.01,0.16-0.22,0.24-0.28c0.14-0.08,0.37,0.04,0.49-0.03c-0.05,0-0.11-0.02-0.13-0.03
                                                    c0.03-0.04,0.14,0,0.11-0.09c-0.17,0.01-0.01-0.18-0.15-0.02c-0.06-0.08,0.02-0.09,0-0.19c-0.1,0.05-0.38-0.04-0.44-0.11
                                                    c0.04,0,0.1-0.03,0.12-0.04c-0.01-0.17,0.06-0.28,0.04-0.43c0.04-0.02,0.08-0.1,0.16-0.08c-0.03-0.02-0.09-0.03-0.1-0.08
                                                    c0.13-0.11,0.04,0.11,0.2,0.01c-0.1,0.01-0.15-0.11-0.22-0.17c-0.15,0.04-0.01,0.17,0.06,0.23c-0.21,0.03-0.44-0.06-0.56-0.22
                                                    c-0.07-0.13,0.13-0.08,0.09-0.09c0-0.25-0.39-0.16-0.27-0.39c0.12-0.1,0.26-0.04,0.36-0.07c0.07,0.1-0.06,0.18-0.05,0.25l0.05-0.1
                                                    c0.05,0.03,0.09,0.1,0.06,0.14c0.11-0.08-0.03-0.42,0.05-0.63c-0.05-0.03-0.1-0.08-0.15-0.05L71.17,30
                                                    c-0.1,0.07-0.16-0.09-0.2-0.01c-0.09-0.07-0.22-0.15-0.17-0.27l0.15-0.04c-0.04,0.01-0.08,0.09-0.03,0.11
                                                    c-0.07-0.04,0.18-0.2-0.02-0.23l-0.09,0.09c-0.09-0.07-0.26-0.15-0.23-0.26c-0.14,0.07,0.02,0.02-0.15,0.12
                                                    c0.21-0.09,0.03,0.26,0.24,0.13c-0.19,0.1-0.07,0.14-0.23,0.26c0.05-0.01,0.09-0.05,0.08,0.04c0.02,0,0.03,0.01,0.05,0.01l0,0.01
                                                    l0.01-0.01c0.01,0,0.01,0,0,0c0.02-0.02,0.04-0.04,0.07-0.05c0.12,0.03,0.14,0.16,0.2,0.2c-0.02,0.05-0.06-0.01-0.11,0.02
                                                    l0.1,0.06c-0.11,0.02-0.17,0.16-0.25,0.05l0.01,0.11c-0.05,0.07-0.07,0.16-0.01,0.21c-0.02,0.05,0.14,0.11,0.05,0.08l0.09,0.16
                                                    l-0.03,0.01c0.01,0.17,0.23,0.32,0.06,0.53c0.04,0.05,0.08,0.11,0.06,0.2l-0.09,0.03c0.04,0.07-0.07,0.23,0.04,0.25
                                                    c-0.25,0.11-0.01,0.36-0.04,0.49l0.13-0.01c0,0.09,0.05,0.17,0.12,0.27l0.11-0.02c0.1,0.08-0.05,0.25-0.02,0.4
                                                    c-0.04,0-0.04-0.04-0.02-0.07c-0.23,0.21,0.23,0.35,0.07,0.53c0.05,0.03,0.04,0.06,0.01,0.1l-0.01-0.01c0,0,0,0.01,0,0.02
                                                    c-0.02,0.02-0.04,0.04-0.05,0.06c0.02-0.02,0.04-0.04,0.05-0.05c0.01,0.03,0.03,0.07,0.06,0.12l-0.12,0.04c0,0,0,0,0,0.01
                                                    c-0.04,0.05,0.06,0.03,0.15-0.01c0.02,0.02,0.05,0.04,0.08,0.05c-0.19,0.06,0.08,0.11-0.12,0.19c0.1,0.02,0.11,0.22,0.32,0.21
                                                    c-0.03,0.01-0.04,0.02-0.04,0c-0.02,0.05-0.03,0.11,0.03,0.15l-0.15,0.04l0.22,0.08c-0.08,0.08-0.13,0.12-0.26,0.06
                                                    c0.2,0.14,0.09,0.12,0.28,0.24l-0.1,0.01c0.01,0.05,0.15,0.11,0.08,0.15c-0.17,0.13,0.05,0.56-0.09,0.84
                                                    c0.29-0.05-0.12,0.07,0.11,0.07c-0.07,0.01-0.11,0.02-0.17,0c0.08,0.08-0.1,0.05,0.1,0.16c-0.07-0.02-0.11-0.05-0.15-0.06
                                                    c0.02,0.01,0.07,0.04,0.02,0.03c-0.04-0.01-0.06-0.03-0.1-0.05c0.02,0.04,0.25,0.16,0.47,0.28c-0.1,0-0.08,0.02,0.07,0.15
                                                    c-0.07-0.03-0.14-0.06-0.18-0.13c-0.01,0.03-0.08,0.08,0.1,0.25c-0.05-0.03-0.01,0.03,0.02,0.06c0,0.07-0.02,0.05,0.01,0.15
                                                    l0.03,0.01c0.23,0.29,0.06,0.13,0.1,0.23l-0.02-0.03c-0.15-0.08,0.08,0.17-0.07,0.06l-0.03-0.03l0.16,0.22
                                                    c0.29,0.45-0.3-0.34-0.26-0.2l0.1,0.13c0.03,0.12-0.44-0.64-0.47-0.69c-0.02-0.04-0.02-0.05-0.03-0.08
                                                    c-0.17-0.26,0.12,0.24,0.09,0.27c-0.07-0.13-0.14-0.32-0.17-0.36c-0.03-0.09,0.06,0.34-0.06,0.1c0.03,0.09,0.07,0.18,0.05,0.23
                                                    c-0.06-0.01-0.14-0.36-0.17-0.14c-0.01-0.02-0.01-0.04-0.01-0.06c-0.03,0.04-0.11,0.04-0.17,0.13c0.03-0.22-0.01-0.18-0.11-0.17
                                                    c-0.11,0-0.22,0.01-0.13-0.16l-0.2-0.09l0.02-0.03c-0.11-0.09-0.2-0.03-0.28,0.03c-0.02-0.04,0.02-0.06,0.03-0.07
                                                    c-0.14-0.16-0.17-0.16-0.41-0.07l0.04-0.12c-0.07,0.04-0.16-0.31-0.41-0.28c0.01-0.01,0.02-0.03,0.05-0.04
                                                    c-0.27,0.02-0.31-0.56-0.59-0.2l-0.18,0.03c0.15,0.12-0.12,0.16-0.09,0.26c-0.08-0.01-0.11-0.21-0.01-0.19l0,0.03
                                                    c0.14-0.19-0.17-0.19-0.09-0.32c-0.33-0.17-0.59-0.46-0.9-0.63l-0.05,0.18l-0.1-0.07c-0.01-0.05,0.03-0.15,0.1-0.1
                                                    c0.01-0.11-0.17,0.01-0.19,0.04c-0.11-0.15,0.16-0.16,0.12-0.18l-0.07-0.02l0,0.03c-0.09,0.04-0.13,0.11-0.22,0.05
                                                    c-0.04-0.06,0.02-0.12,0-0.13c0.01-0.01,0-0.02-0.03-0.02L67,34.02l-0.01,0.16c-0.09,0.03-0.12-0.08-0.14,0.1
                                                    c0.03-0.27-0.46-0.35-0.48-0.45c-0.13,0.05-0.22,0-0.31-0.07c0.01,0.04-0.05,0.19-0.13,0.13c0.19-0.28-0.09-0.22-0.05-0.47
                                                    c-0.01,0.18-0.27-0.1-0.28,0.15c-0.06-0.06,0.06-0.11,0.04-0.21c-0.24,0.02-0.35-0.29-0.59-0.37c-0.02,0.04-0.02,0.12-0.1,0.15
                                                    l-0.01-0.26c-0.05,0-0.16,0.2-0.17,0.02c-0.01,0.04-0.02,0.1-0.05,0.09c-0.32-0.42-0.96-0.32-1.2-0.91
                                                    c0.02,0.11-0.03,0.09-0.07,0.07c0.02,0.03-0.05,0.1-0.08,0.15l-0.1-0.24c-0.11,0.13-0.2-0.1-0.29,0.03l0.07,0.01
                                                    c-0.17,0.12-0.09,0.42-0.22,0.63c0.19-0.14,0.08,0.4,0.36,0.21c0.01,0.06-0.06,0.05-0.07,0.11c0.08-0.07,0.14-0.07,0.2,0.02
                                                    l-0.02,0.02c0.24,0.1,0.28,0.24,0.5,0.44l0.04-0.11c0.05,0.04,0.04,0.08,0.05,0.12c0.15-0.12-0.15-0.09,0-0.23
                                                    c-0.04,0.25,0.38,0.21,0.3,0.48c0.08,0.05,0.04-0.13,0.12-0.09l-0.01,0.08l0.07-0.07c0.05,0.04,0.03,0.14,0,0.2
                                                    c-0.01-0.01-0.05,0-0.06-0.01c0.03,0.12,0.21,0.08,0.22,0.12l-0.06-0.08c0.26,0.06,0.49,0.3,0.78,0.29l0.01-0.06
                                                    c0.22,0,0.1,0.13,0.31,0.18l-0.01,0.01c0.06-0.03,0.13-0.03,0.17,0.01c-0.08,0.03,0.03,0.16-0.07,0.19c0.23,0,0.13-0.03,0.35-0.15
                                                    L66,34.48c0.08-0.05,0.11-0.09,0.21-0.06c-0.11,0.03-0.01,0.16-0.14,0.2c0.1,0.28,0.38-0.02,0.33,0.28
                                                    c0.21-0.18-0.1-0.22-0.02-0.24c0-0.1,0.16-0.13,0.21-0.07c0.06,0.04-0.05,0.35,0.1,0.43c-0.01-0.01-0.03,0.01-0.04,0
                                                    c0.03,0.09,0.16-0.02,0.18,0.12c0.11-0.11,0.09,0.06,0.19-0.11l-0.16-0.04c0.11,0,0.29-0.16,0.37,0.01
                                                    c-0.03,0.03-0.09,0.05-0.14,0.07c0.01,0.07,0.09,0.01,0.1,0.08c-0.11,0.17-0.19-0.06-0.35,0.03c0,0.1,0.23-0.04,0.09,0.13
                                                    c0.19-0.21,0.14,0.11,0.34-0.01l-0.06,0.1c0.03-0.01,0.09-0.04,0.12-0.02l-0.13,0.11c0.15-0.07,0.11,0.19,0.22,0.17
                                                    c-0.17-0.09,0.03-0.15,0-0.26c0.29-0.03-0.03,0.34,0.24,0.42c-0.04,0-0.09-0.13-0.01-0.15c0.03,0.05,0.07,0.12,0.07,0.19
                                                    c0.17,0.06,0.03-0.12,0.14-0.15c-0.02,0.16,0.1-0.01,0.2-0.01l-0.06,0.11c0.14,0.16,0.17-0.2,0.28-0.03l-0.15,0.11l0.1,0.01
                                                    l-0.08,0.11c0.14-0.04,0.15,0,0.23,0.08c0.02-0.09,0.12-0.19,0.2-0.15c0.02,0.09-0.08,0.08,0.03,0.13c-0.06,0.05-0.13,0.12-0.13,0
                                                    c-0.02,0.03-0.06,0.05-0.08,0.08c0.02,0.1,0.14,0.1,0.18,0.12c-0.01-0.01-0.03-0.03-0.03-0.05l0.24-0.06
                                                    c0,0.05-0.03,0.07-0.07,0.1c0.04,0.01,0.09-0.03,0.14-0.01c-0.06,0.08-0.1,0.17-0.19,0.17l0.21-0.01
                                                    c-0.01,0.04,0.02,0.15-0.01,0.17c0.06,0.1,0.3-0.05,0.38,0.08c0.01-0.01,0.04-0.02,0.07-0.02c0.1,0.08,0.13,0.23,0.32,0.18
                                                    l-0.01,0.19c0.12,0.02,0.01-0.25,0.2-0.22c0.14,0.01-0.03,0.16-0.01,0.22c0.1-0.05,0.29-0.15,0.33,0.03
                                                    C70.06,37.03,70.04,36.99,70.01,36.98z M71.82,37.88c-0.02,0.02-0.06,0.08-0.12-0.03C71.67,37.68,71.73,37.79,71.82,37.88z
                                                     M72.31,36.27c0.05,0.04,0.03,0.08-0.01,0.09C72.28,36.33,72.28,36.3,72.31,36.27z M70.67,30.42L70.67,30.42
                                                    C70.64,30.48,70.65,30.46,70.67,30.42z M70.7,30.29c-0.02-0.01-0.03-0.01-0.05,0c0.03,0,0.04,0.03,0.03,0.06
                                                    C70.72,30.34,70.74,30.32,70.7,30.29z M67.13,34.16l0.01,0.04C67.07,34.2,67.1,34.18,67.13,34.16z"></path>
                                                <path class="st5" d="M72.53,36.69c-0.02,0-0.05-0.02-0.07-0.03C72.48,36.69,72.51,36.71,72.53,36.69z"></path>
                                                <polygon class="st5" points="69.22,36.63 69.21,36.62 69.2,36.64         "></polygon>
                                                <path class="st5" d="M71.97,32.06c-0.01,0.03-0.03,0.04-0.06,0.06C71.95,32.11,71.97,32.1,71.97,32.06z"></path>
                                                <path class="st5" d="M70.41,29.66l0.04,0.07c-0.01-0.04,0.01-0.05,0.03-0.08C70.46,29.66,70.42,29.68,70.41,29.66z"></path>
                                                <path class="st5" d="M71.06,28.87c-0.02-0.01,0-0.02-0.02-0.03l-0.06,0.01C70.99,28.9,71.04,28.93,71.06,28.87z"></path>
                                                <path class="st5" d="M70.8,29.53c0.1-0.02,0.06-0.06,0.03-0.12l0,0.01C70.69,29.43,70.75,29.48,70.8,29.53z"></path>
                                                <path class="st5" d="M70.83,29.4c-0.01-0.02-0.01-0.03-0.01-0.05C70.76,29.35,70.81,29.37,70.83,29.4z"></path>
                                                <path class="st5" d="M70.62,30.14c0.02-0.03-0.13,0-0.09-0.02C70.39,30.11,70.7,30.27,70.62,30.14z"></path>
                                                <polygon class="st5" points="71.12,29.44 71,29.48 71.11,29.5        "></polygon>
                                                <path class="st5" d="M71.09,29.89l0.02-0.09c-0.02,0-0.03-0.01-0.05-0.02C71.07,29.84,71.06,29.9,71.09,29.89z"></path>
                                                <path class="st5" d="M71.07,29.78c0-0.03-0.01-0.06-0.03-0.07C71.04,29.73,71.05,29.76,71.07,29.78z"></path>
                                                <polygon class="st5" points="71.18,29.56 71.16,29.59 71.16,29.65        "></polygon>
                                                <path class="st5" d="M71.2,30.85l0.05,0.09c0.04,0,0.07-0.03,0.04-0.06C71.26,30.86,71.24,30.83,71.2,30.85z"></path>
                                                <path class="st5" d="M71.5,30.51c-0.02,0.03-0.05,0.04-0.09,0.06l0.15-0.02L71.5,30.51z"></path>
                                                <path class="st5" d="M71.57,30.79c0.04,0,0.14,0.12,0.12,0C71.64,30.78,71.59,30.69,71.57,30.79z"></path>
                                                <polygon class="st5" points="71.57,32.27 71.57,32.24 71.32,32.28        "></polygon>
                                                <path class="st5" d="M72.35,33.47c0.05-0.12-0.16-0.01-0.1-0.12c-0.06-0.02-0.05,0.09-0.11,0.07
                                                    C72.22,33.48,72.19,33.52,72.35,33.47z"></path>
                                                <path class="st5" d="M72.15,33.42c-0.01-0.01-0.03-0.02-0.04-0.03C72.12,33.41,72.14,33.41,72.15,33.42z"></path>
                                                <polygon class="st5" points="63.21,31.88 63.17,31.8 63.17,31.9      "></polygon>
                                                <path class="st5" d="M63,31.98l0.06-0.15l-0.11,0.11C62.97,31.94,63,31.94,63,31.98z"></path>
                                                <path class="st5" d="M72.34,38.54l-0.02-0.05c-0.05-0.08-0.08-0.09-0.14-0.14L72.34,38.54z"></path>
                                                <polygon class="st5" points="70.68,37.49 70.71,37.51 70.68,37.33        "></polygon>
                                                <path class="st5" d="M69.63,37.14c0.03,0.02,0.08,0.01,0.11,0.03C69.66,37.16,69.71,36.97,69.63,37.14z"></path>
                                            </g>
                                        </g>
                                        </svg>