<?xml version="1.0" encoding="utf-8"?>

<!DOCTYPE svg PUBLIC "-//W3C//DTD SVG 1.1//EN" "http://www.w3.org/Graphics/SVG/1.1/DTD/svg11.dtd">
<!-- Uploaded to: SVG Repo, www.svgrepo.com, Generator: SVG Repo Mixer Tools -->
<svg height="800px" width="800px" version="1.1" id="_x32_" xmlns="http://www.w3.org/2000/svg" xmlns:xlink="http://www.w3.org/1999/xlink" 
	 viewBox="0 0 512 512"  xml:space="preserve">
<style type="text/css">
	.st0{fill:#000000;}
</style>
<g>
	<circle class="st0" cx="209.026" cy="388.393" r="7.166"/>
	<circle class="st0" cx="228.932" cy="407.502" r="7.166"/>
	<circle class="st0" cx="256.003" cy="415.465" r="7.166"/>
	<circle class="st0" cx="302.98" cy="388.393" r="7.166"/>
	<circle class="st0" cx="283.075" cy="407.502" r="7.166"/>
	<path class="st0" d="M83.597,301.841l93.612,33.436l4.715-13.2l-84.66-30.238c-0.038-1.941-0.068-4.435-0.068-7.465
		c-0.025-27.308,2.482-96.112,23.992-157.166c10.724-30.53,26.157-59.008,47.891-79.578c21.778-20.566,49.583-33.56,86.925-33.622
		c37.341,0.062,65.146,13.056,86.925,33.622c32.62,30.81,50.97,79.615,60.718,126.051c9.797,46.398,11.166,90.203,11.166,110.693
		c0,3.024-0.03,5.524-0.068,7.465l-84.66,30.238l4.715,13.2l93.612-33.436l0.205-4.708c0.006-0.087,0.206-4.716,0.206-12.759
		c-0.025-28.166-2.395-98.046-24.776-161.812C392.822,90.688,376.556,60.22,352.57,37.46C328.627,14.674,296.691-0.062,256.003,0
		c-40.688-0.062-72.624,14.68-96.567,37.46c-35.96,34.194-54.647,85.5-64.786,133.329c-10.089,47.86-11.464,92.467-11.464,113.585
		c0,8.043,0.199,12.672,0.206,12.759L83.597,301.841z"/>
	<path class="st0" d="M424.273,412.678c-11.365-17.019-28.626-26.431-44.85-32.545c-8.13-3.06-16.086-5.319-23.09-7.235
		c-6.992-1.903-13.076-3.508-17.162-5.045c-7.147-2.656-14.699-6.096-19.967-9.797c-2.631-1.835-4.66-3.726-5.835-5.337
		c-1.189-1.648-1.512-2.787-1.524-3.782c0-6.874,0-15.464,0-26.779c9.144-10.177,22.282-25.946,27.681-50.946
		c1.885-0.846,3.751-1.81,5.548-3.06c4.473-3.086,8.268-7.57,11.483-13.666c3.235-6.121,6.102-13.946,9.163-24.652
		c1.549-5.424,2.264-10.139,2.264-14.338c0.006-4.84-0.989-9.039-2.818-12.447c-1.356-2.557-3.129-4.541-5.007-6.059
		c0.466-25.112,2.805-59.213-10.022-88.032l-0.348-2.37c-1.281-8.684-4.964-16.777-10.363-23.899
		c-8.118-10.687-20.036-19.29-34.287-25.299c-14.258-6.003-30.904-9.406-48.682-9.406c-23.713,0.013-45.403,6.034-62.112,16.261
		c-8.347,5.125-15.464,11.321-20.87,18.444c-5.399,7.122-9.082,15.215-10.363,23.899L162,114.09
		c-15.408,34.648-13.635,73.153-12.541,85.345c-0.945,1.089-1.878,2.221-2.619,3.614c-1.828,3.408-2.83,7.607-2.824,12.447
		c0.006,4.199,0.722,8.914,2.271,14.338c4.093,14.257,7.788,23.464,12.571,30.219c2.389,3.353,5.114,6.046,8.074,8.099
		c1.798,1.25,3.664,2.214,5.548,3.06c5.4,25,18.538,40.769,27.681,50.946c0,11.315,0,19.906,0,26.779
		c0,0.846-0.336,2.065-1.648,3.806c-1.922,2.588-5.909,5.723-10.643,8.379c-4.721,2.688-10.152,5.014-14.904,6.687
		c-5.58,1.978-14.568,4.037-24.64,6.923c-15.134,4.379-33.024,10.681-47.58,23.165c-7.265,6.239-13.648,14.077-18.133,23.818
		c-4.491,9.735-7.066,21.305-7.06,34.841c0,3.142,0.137,6.388,0.423,9.748c0.205,2.357,1.101,4.267,2.152,5.841
		c2.003,2.948,4.659,5.131,7.987,7.377c5.828,3.856,13.903,7.626,24.242,11.327c30.94,11.035,82.166,21.137,145.646,21.15
		c51.574,0,95.105-6.693,126.176-15.103c15.545-4.211,27.955-8.827,36.925-13.436c4.491-2.32,8.124-4.616,11.004-7.128
		c1.444-1.269,2.706-2.6,3.77-4.186c1.045-1.574,1.947-3.484,2.152-5.841c0.28-3.353,0.417-6.594,0.417-9.723
		C436.471,438.536,431.837,423.993,424.273,412.678z M184.642,91.155c6.251-8.267,16.148-15.632,28.558-20.851
		c12.403-5.225,27.27-8.311,43.257-8.311c21.305-0.012,40.626,5.505,54.777,14.196c7.073,4.342,12.852,9.455,17.02,14.966
		c0.174,0.23,0.311,0.473,0.479,0.709c-6.351-2.526-13.256-4.554-20.664-6.133c-15.452-3.272-33-4.665-51.611-4.665
		c-18.618,0-36.166,1.393-51.624,4.665c-7.409,1.58-14.319,3.608-20.67,6.14C184.331,91.634,184.468,91.391,184.642,91.155z
		 M357.347,488.368c-27.414,5.605-61.962,9.623-101.344,9.623c-46.977,0-86.944-5.748-116.235-13.044
		c2.736-6.556,7.539-15.047,14.431-22.493c9.168-9.916,21.703-18.077,38.424-19.128c1.145-0.075,2.289-0.112,3.434-0.112
		c14.823-0.025,29.068,5.959,39.537,12.105c5.238,3.06,9.524,6.133,12.472,8.422c1.475,1.145,2.613,2.096,3.372,2.744l0.852,0.746
		l0.199,0.18l0.05,0.037l3.465,3.222l3.464-3.222l0.05-0.037c0.634-0.585,7.508-6.75,17.877-12.672
		c10.369-5.94,24.185-11.545,38.554-11.526c1.138,0,2.283,0.037,3.434,0.112c16.721,1.052,29.255,9.212,38.417,19.128
		c6.899,7.458,11.707,15.961,14.444,22.518C367.524,486.147,362.609,487.299,357.347,488.368z M422.089,464.506l-0.603,0.716
		c-1.032,1.045-3.117,2.619-6.046,4.286c-6.892,3.981-18.357,8.56-33.292,12.827c-3.086-7.838-8.528-17.716-16.851-26.785
		c-10.357-11.284-25.423-21.174-45.278-22.4c-1.363-0.081-2.724-0.124-4.069-0.124c-17.554,0.025-33.285,6.842-44.694,13.492
		c-6.818,3.994-12.061,7.937-15.252,10.519c-3.191-2.582-8.441-6.525-15.259-10.519c-11.408-6.65-27.14-13.467-44.688-13.492
		c-1.344,0-2.706,0.044-4.075,0.124c-19.85,1.226-34.922,11.116-45.279,22.4c-8.329,9.082-13.772,18.96-16.858,26.797
		c-13.1-3.726-23.513-7.726-30.53-11.346c-3.814-1.959-6.625-3.832-8.18-5.2c-0.666-0.579-1.039-1.02-1.225-1.275
		c-0.218-2.762-0.342-5.431-0.342-7.968c0.025-15.726,3.869-27.215,9.81-36.222c8.889-13.461,23.159-21.704,38.069-27.314
		c7.421-2.8,14.929-4.926,21.822-6.774c6.905-1.86,13.15-3.396,18.35-5.225c7.216-2.557,15.614-6.264,22.699-11.178
		c3.54-2.476,6.78-5.25,9.356-8.628c2.544-3.334,4.497-7.508,4.497-12.279c0-7.434,0-16.721,0-29.46v-2.687l-1.798-2.003
		c-9.555-10.643-22.494-24.764-26.978-49.876l-0.709-4.012l-3.832-1.368c-2.439-0.871-4.299-1.76-5.922-2.886
		c-2.395-1.692-4.566-4-7.104-8.727c-2.507-4.703-5.163-11.732-8.068-21.927c-1.275-4.454-1.73-7.925-1.73-10.494
		c0.006-2.986,0.579-4.734,1.164-5.841c0.883-1.599,1.966-2.283,3.34-2.836c1.287-0.492,2.662-0.573,2.929-0.573l2.619,0.168
		l7.278,22.468c0,0,4.249-16.982,4.249-29.721c72.195-23.352,101.916-87.056,101.916-87.056s30.026,21.84,44.588,25.479
		c8.491,2.121,6.37,93.425,6.37,93.425l10.649-24.577l3.365-0.18c0.262-0.038,2.712,0.162,4.255,1.194
		c0.802,0.517,1.455,1.114,2.053,2.208c0.59,1.107,1.157,2.848,1.17,5.841c0,2.575-0.454,6.04-1.73,10.494
		c-3.863,13.611-7.328,21.522-10.506,25.914c-1.592,2.22-3.049,3.608-4.666,4.74c-1.623,1.126-3.483,2.015-5.921,2.886l-3.832,1.368
		l-0.709,4.012c-4.485,25.112-17.424,39.232-26.978,49.876l-1.798,2.003v2.687c0,12.74,0,22.027,0,29.46
		c-0.013,4.622,1.786,8.77,4.242,12.086c3.732,5.001,8.908,8.702,14.543,11.937c5.648,3.204,11.826,5.841,17.636,8.018
		c6.942,2.575,15.794,4.603,25.46,7.427c14.476,4.18,30.468,10.058,42.374,20.279c5.972,5.113,10.972,11.253,14.562,18.984
		c3.577,7.732,5.779,17.125,5.779,28.913C422.431,459.101,422.307,461.757,422.089,464.506z"/>
</g>
</svg>