<svg version="1.1" id="Layer_1" xmlns="http://www.w3.org/2000/svg" xmlns:xlink="http://www.w3.org/1999/xlink" x="0px" y="0px" viewBox="0 0 98.96 77.81" style="enable-background:new 0 0 98.96 77.81;" xml:space="preserve" class="w-77">
                                <g>
                                    <g>
                                        <g>
                                            <g>
                                                <path class="st8 color-main-fill" d="M73.81,36.53c0.27,0.35,0.91,0.12,0.82-0.34c-0.03-0.17-0.09-0.33-0.12-0.49c0.27,0.17,0.66,0.19,0.93-0.1
                                                    C80,30.75,85.08,26,88.3,20.1c1.34-2.44,4.16-6.95,1.89-9.69c-3.41-4.11-10.41,3.03-12.34,6.82c-0.71-3.07-1.55-7.16-4.56-8.34
                                                    c-3.12-1.22-5.5-0.59-6.98,2.54c-1.51,3.2-0.48,7.26,0.64,10.54c0,0.05-0.01,0.09-0.01,0.14c0,0.11,0.07,0.19,0.15,0.26
                                                    c0.08,0.22,0.15,0.45,0.23,0.66C68.88,27.36,70.98,32.86,73.81,36.53z M85.77,11.4c0.49-0.15,0.96-0.23,1.4-0.23
                                                    c-0.38,1.51-0.83,3-1.22,4.5c-0.41,1.58-1.04,3.46-0.69,5.1c0.09,0.45,0.77,0.63,0.95,0.13c0.49-1.45,0.58-3.05,0.94-4.54
                                                    c0.4-1.64,0.87-3.27,1.26-4.92c0.74,0.37,1.16,1.17,1.02,2.49c-0.24-0.42-0.93-0.55-1.1,0.03c-0.61,2.09-1.55,4.11-1.69,6.3
                                                    c-0.01,0.07,0.02,0.13,0.05,0.18c-1.07,1.75-2.31,3.43-3.66,5.04c0.36-1.09,0.65-2.2,0.96-3.26c0.71-2.4,1.29-4.84,1.89-7.26
                                                    c0.1-0.42-0.38-0.68-0.73-0.58c0.23-0.85,0.47-1.69,0.73-2.49C85.95,11.67,85.89,11.51,85.77,11.4z M70.18,25.92
                                                    c0.55-1.48,0.84-3.08,1.18-4.6c0.56-2.49,1-5,1.32-7.54c0.08-0.63-0.88-0.75-0.97-0.13c-0.34,2.28-0.81,4.52-1.33,6.77
                                                    c-0.3,1.29-0.7,2.6-1,3.92c-0.48-0.97-0.91-1.95-1.27-2.92c0-0.01,0-0.01-0.01-0.02c0.08-0.2,0.14-0.41,0.21-0.61
                                                    c0.01,0.41,0.04,0.81,0.13,1.2c0.08,0.33,0.56,0.46,0.7,0.09c0.57-1.54,0.61-3.29,0.9-4.9c0.34-1.88,0.71-3.75,0.94-5.65
                                                    c0.02-0.19-0.04-0.33-0.15-0.43c0.07-0.2,0.13-0.4,0.21-0.6c0.22-0.57-0.63-0.91-0.87-0.36c-0.85,1.92-1.49,3.9-2.01,5.93
                                                    C67.93,17.02,67.63,18,67.38,19c-0.75-3.09-0.89-6.7,1.41-8.94c3.86-3.78,6.46,2.99,7.12,5.01c0.27,0.83,0.5,1.67,0.73,2.51
                                                    c-0.01,0.01-0.03,0.01-0.04,0.02c-1.37,1.4-2.56,3.21-3.55,5.16c0.03-0.12,0.05-0.24,0.08-0.35c0.7-2.85,1.29-5.71,1.68-8.62
                                                    c0.1-0.75-1.04-0.89-1.15-0.15c-0.38,2.61-0.94,5.18-1.57,7.75c-0.43,1.77-1.07,3.62-1.42,5.46
                                                    C70.5,26.53,70.34,26.22,70.18,25.92z M75.45,22.11c0.09-0.2,0.07-0.37-0.02-0.51c0.58-0.98,1.11-1.98,1.5-3.03
                                                    c0.05,0.14,0.08,0.28,0.13,0.42c0.11,0.31,0.36,0.39,0.59,0.34c-1.93,3.09-3.29,6.72-4.55,9.98c-0.26,0.66,0.75,1.07,1.02,0.41
                                                    c1.77-4.33,4.31-8.26,6.16-12.52c0.21-0.49-0.45-0.82-0.78-0.44c-0.12,0.14-0.22,0.29-0.34,0.43c0.92-1.75,2.24-3.16,3.89-4.4
                                                    c0.63-0.47,1.3-0.86,1.96-1.14c-0.22,0.58-0.43,1.16-0.64,1.74c-0.06-0.01-0.12,0-0.16,0.06c-0.61,0.93-1.17,1.9-1.71,2.87
                                                    c-0.05,0-0.1,0.02-0.13,0.06c-3.55,4.08-5.77,9.68-8.56,14.31c-0.38,0.63,0.53,1.33,0.92,0.69c0.85-1.39,1.8-2.84,2.75-4.32
                                                    c-0.15,0.33-0.3,0.67-0.45,1c-0.56,1.18-1.12,2.36-1.67,3.54c-0.32,0.68,0.73,1.09,1.07,0.44c2.23-4.34,4.26-8.83,6.11-13.37
                                                    c-0.01,0.02-0.02,0.05-0.02,0.07c-0.91,2.76-2.16,5.46-2.89,8.26c-0.1,0.39,0.38,0.75,0.66,0.37c0.56-0.78,1.02-1.63,1.45-2.51
                                                    c-0.35,1-0.67,2.01-0.86,3.03c-2.18,2.38-4.46,4.63-6.54,6.84c-0.03,0.03-0.03,0.06-0.05,0.09c-0.52-1.83-1.36-3.64-2.28-5.44
                                                    C73.25,27.02,74.31,24.55,75.45,22.11z"></path>
                                            </g>
                                        </g>
                                        <g>
                                            <g>
                                                <path class="st8 color-main-fill" d="M10.6,71.87c0.06,0.23,0.42,0.26,0.48,0.02c0.02-0.09,0.03-0.18,0.05-0.27c0.1,0.14,0.28,0.24,0.48,0.16
                                                    c3.33-1.38,6.9-2.59,9.81-4.79c1.21-0.91,3.61-2.5,3.09-4.36c-0.77-2.79-5.82-0.83-7.62,0.61c0.33-1.68,0.83-3.88-0.39-5.14
                                                    c-1.27-1.3-2.59-1.52-4.01-0.3c-1.46,1.24-1.86,3.48-2.04,5.35c-0.01,0.02-0.03,0.04-0.03,0.07c-0.02,0.06-0.01,0.11,0.02,0.16
                                                    c-0.01,0.13-0.02,0.26-0.03,0.38C10.21,66.25,10.02,69.43,10.6,71.87z M22.11,62.13c0.28,0.04,0.53,0.1,0.74,0.2
                                                    c-0.52,0.66-1.08,1.3-1.61,1.95c-0.56,0.69-1.29,1.48-1.48,2.36c-0.05,0.24,0.24,0.49,0.44,0.27c0.57-0.61,0.97-1.38,1.48-2.03
                                                    c0.57-0.72,1.16-1.42,1.72-2.15c0.28,0.35,0.31,0.84-0.05,1.46c-0.03-0.26-0.34-0.48-0.55-0.23c-0.77,0.89-1.68,1.69-2.24,2.74
                                                    c-0.02,0.04-0.02,0.07-0.02,0.1c-0.92,0.63-1.91,1.18-2.93,1.67c0.42-0.46,0.81-0.94,1.2-1.4c0.89-1.02,1.72-2.1,2.55-3.17
                                                    c0.15-0.19-0.04-0.42-0.23-0.45c0.3-0.37,0.61-0.73,0.92-1.07C22.14,62.3,22.15,62.21,22.11,62.13z M11.17,65.82
                                                    c0.6-0.61,1.11-1.34,1.61-2.01c0.83-1.1,1.61-2.25,2.34-3.43c0.18-0.29-0.27-0.57-0.45-0.28c-0.67,1.05-1.41,2.06-2.17,3.05
                                                    c-0.44,0.57-0.93,1.13-1.37,1.72c-0.02-0.59-0.02-1.17,0.02-1.72c0,0,0-0.01,0-0.01c0.08-0.08,0.16-0.17,0.24-0.26
                                                    c-0.09,0.2-0.16,0.41-0.21,0.62c-0.04,0.18,0.17,0.35,0.33,0.2c0.63-0.63,1.04-1.49,1.54-2.22c0.59-0.85,1.19-1.7,1.72-2.58
                                                    c0.05-0.09,0.05-0.17,0.02-0.25c0.08-0.08,0.16-0.17,0.24-0.25c0.24-0.23-0.11-0.59-0.35-0.37c-0.85,0.76-1.61,1.59-2.32,2.48
                                                    c-0.33,0.41-0.7,0.83-1.04,1.26c0.32-1.7,1.06-3.51,2.69-4.1c2.75-1,2.52,2.92,2.4,4.06c-0.05,0.47-0.13,0.94-0.2,1.4
                                                    c-0.01,0-0.02,0-0.03,0c-0.99,0.38-1.98,1.02-2.9,1.75c0.04-0.05,0.08-0.1,0.12-0.16c0.98-1.25,1.91-2.53,2.75-3.89
                                                    c0.22-0.35-0.32-0.68-0.54-0.33c-0.77,1.2-1.62,2.35-2.5,3.48c-0.61,0.78-1.34,1.55-1.92,2.38
                                                    C11.19,66.2,11.18,66.01,11.17,65.82z M14.63,65.12c0.09-0.08,0.12-0.17,0.1-0.25c0.5-0.36,0.99-0.73,1.42-1.16
                                                    c-0.01,0.08-0.03,0.16-0.03,0.24c-0.02,0.18,0.09,0.27,0.22,0.3c-1.64,1.1-3.12,2.59-4.48,3.92c-0.27,0.27,0.13,0.69,0.41,0.43
                                                    c1.84-1.75,3.97-3.12,5.84-4.81c0.21-0.19-0.04-0.5-0.28-0.39c-0.09,0.04-0.17,0.09-0.26,0.14c0.85-0.66,1.81-1.06,2.9-1.3
                                                    c0.42-0.09,0.84-0.13,1.22-0.12c-0.24,0.24-0.47,0.48-0.7,0.72c-0.03-0.02-0.06-0.03-0.09-0.01c-0.51,0.32-1,0.67-1.48,1.04
                                                    c-0.03-0.01-0.05-0.01-0.08,0c-2.66,1.22-5.01,3.49-7.42,5.16c-0.33,0.23-0.04,0.78,0.3,0.55c0.73-0.5,1.52-1,2.32-1.52
                                                    c-0.15,0.13-0.3,0.26-0.45,0.39c-0.54,0.46-1.08,0.91-1.61,1.38c-0.31,0.27,0.12,0.7,0.43,0.45c2.07-1.64,4.08-3.41,6-5.24
                                                    c-0.01,0.01-0.02,0.02-0.03,0.03c-1.06,1.16-2.28,2.22-3.27,3.44c-0.14,0.17,0.02,0.46,0.24,0.33c0.45-0.26,0.87-0.58,1.28-0.91
                                                    c-0.4,0.42-0.78,0.84-1.1,1.31c-1.61,0.69-3.24,1.29-4.76,1.92c-0.02,0.01-0.03,0.02-0.05,0.03c0.15-1.02,0.14-2.1,0.09-3.2
                                                    C12.44,67.05,13.52,66.07,14.63,65.12z"></path>
                                            </g>
                                        </g>
                                        <g>
                                            <g>
                                                <path class="st8 color-main-fill" d="M34.87,42.88c0.2,0.27,0.69,0.1,0.63-0.25c-0.02-0.13-0.06-0.25-0.09-0.38c0.21,0.13,0.5,0.16,0.72-0.07
                                                    c3.54-3.67,7.47-7.26,9.99-11.74c1.05-1.86,3.25-5.28,1.54-7.4c-2.57-3.18-8,2.22-9.52,5.1c-0.52-2.36-1.12-5.49-3.41-6.43
                                                    c-2.38-0.97-4.21-0.5-5.37,1.88c-1.19,2.44-0.44,5.56,0.39,8.08c0,0.04-0.01,0.07-0.01,0.1c0,0.09,0.05,0.15,0.11,0.2
                                                    c0.06,0.17,0.11,0.34,0.17,0.51C31.18,35.82,32.74,40.05,34.87,42.88z M44.27,23.75c0.38-0.11,0.74-0.16,1.07-0.17
                                                    c-0.3,1.15-0.66,2.29-0.98,3.43c-0.33,1.2-0.83,2.64-0.58,3.9c0.07,0.34,0.59,0.49,0.72,0.11c0.39-1.1,0.47-2.33,0.77-3.47
                                                    c0.32-1.25,0.7-2.5,1.01-3.76c0.56,0.29,0.88,0.91,0.76,1.91c-0.18-0.32-0.7-0.43-0.84,0.02c-0.49,1.59-1.22,3.13-1.35,4.81
                                                    c0,0.06,0.01,0.1,0.04,0.14c-0.83,1.33-1.8,2.6-2.85,3.82c0.29-0.83,0.52-1.68,0.77-2.49c0.57-1.83,1.03-3.69,1.51-5.54
                                                    c0.08-0.32-0.29-0.52-0.55-0.45c0.19-0.65,0.38-1.29,0.58-1.9C44.41,23.97,44.36,23.84,44.27,23.75z M32.19,34.72
                                                    c0.43-1.13,0.68-2.35,0.95-3.51c0.45-1.9,0.82-3.82,1.09-5.76c0.07-0.48-0.66-0.58-0.74-0.11c-0.28,1.74-0.66,3.46-1.09,5.17
                                                    c-0.25,0.98-0.56,1.99-0.8,3c-0.36-0.75-0.68-1.5-0.94-2.24c0,0,0-0.01-0.01-0.02c0.06-0.15,0.11-0.31,0.17-0.47
                                                    c0,0.31,0.02,0.62,0.09,0.92c0.06,0.25,0.42,0.36,0.53,0.08c0.45-1.17,0.5-2.51,0.74-3.74c0.28-1.44,0.58-2.87,0.77-4.32
                                                    c0.02-0.14-0.03-0.25-0.11-0.33c0.06-0.15,0.11-0.3,0.17-0.46c0.18-0.43-0.47-0.71-0.66-0.28c-0.67,1.46-1.18,2.97-1.6,4.52
                                                    c-0.19,0.71-0.43,1.46-0.63,2.22c-0.55-2.38-0.61-5.14,1.16-6.83c2.99-2.86,4.92,2.35,5.41,3.9c0.2,0.64,0.36,1.28,0.54,1.93
                                                    c-0.01,0.01-0.02,0.01-0.03,0.02c-1.06,1.06-1.99,2.44-2.77,3.91c0.02-0.09,0.04-0.18,0.07-0.27c0.56-2.17,1.04-4.36,1.36-6.59
                                                    c0.08-0.57-0.79-0.69-0.88-0.13c-0.32,2-0.77,3.96-1.27,5.92c-0.35,1.35-0.86,2.76-1.14,4.17
                                                    C32.43,35.19,32.31,34.96,32.19,34.72z M36.27,31.86c0.07-0.15,0.05-0.28-0.01-0.39c0.45-0.75,0.87-1.51,1.18-2.31
                                                    c0.03,0.11,0.06,0.22,0.09,0.32c0.08,0.24,0.27,0.3,0.45,0.27c-1.51,2.35-2.58,5.11-3.58,7.6c-0.2,0.5,0.56,0.83,0.77,0.33
                                                    c1.4-3.3,3.38-6.28,4.84-9.53c0.17-0.37-0.34-0.63-0.59-0.35c-0.09,0.1-0.17,0.22-0.26,0.33c0.72-1.33,1.75-2.4,3.02-3.33
                                                    c0.49-0.36,1.01-0.65,1.51-0.85c-0.18,0.44-0.34,0.89-0.5,1.33c-0.04-0.01-0.09,0-0.12,0.05c-0.48,0.71-0.92,1.44-1.34,2.18
                                                    c-0.04,0-0.08,0.02-0.1,0.04c-2.76,3.09-4.51,7.35-6.69,10.87c-0.3,0.48,0.39,1.02,0.7,0.54c0.67-1.06,1.41-2.16,2.15-3.28
                                                    c-0.12,0.25-0.24,0.51-0.35,0.76c-0.44,0.9-0.88,1.79-1.31,2.7c-0.25,0.52,0.55,0.84,0.82,0.34c1.75-3.3,3.35-6.72,4.81-10.18
                                                    c-0.01,0.02-0.01,0.04-0.02,0.05c-0.72,2.1-1.7,4.16-2.3,6.3c-0.08,0.29,0.29,0.58,0.5,0.29c0.43-0.59,0.8-1.24,1.14-1.91
                                                    c-0.28,0.76-0.53,1.53-0.69,2.32c-1.69,1.8-3.46,3.5-5.07,5.18c-0.02,0.02-0.03,0.04-0.04,0.07c-0.38-1.41-1.01-2.8-1.7-4.19
                                                    C34.53,35.6,35.37,33.71,36.27,31.86z"></path>
                                            </g>
                                        </g>
                                    </g>
                                </g>
                                </svg>