<svg version="1.1" id="Layer_1" xmlns="http://www.w3.org/2000/svg" xmlns:xlink="http://www.w3.org/1999/xlink" x="0px" y="0px" viewBox="0 0 118.94 103.72" style="enable-background:new 0 0 118.94 103.72;" xml:space="preserve">
                                        <g>
                                            <path class="st10 color-main-fill" d="M77.36,42.16c0.08,0.56,0.93,0.73,1.13,0.15c0.07-0.21,0.11-0.42,0.18-0.63c0.19,0.37,0.61,0.64,1.11,0.49
                                                c8.22-2.46,16.96-4.48,24.37-8.98c3.07-1.87,9.14-5.07,8.37-9.59c-1.15-6.79-13.58-3.35-18.19-0.37c1.19-3.89,2.89-8.99,0.3-12.25
                                                c-2.69-3.38-5.76-4.22-9.43-1.68c-3.76,2.6-5.23,7.79-6.1,12.18c-0.03,0.05-0.07,0.1-0.1,0.15c-0.07,0.13-0.05,0.26,0,0.38
                                                c-0.06,0.3-0.12,0.6-0.17,0.88C77.78,28.74,76.57,36.24,77.36,42.16z M106.95,21.84c0.64,0.15,1.22,0.37,1.71,0.64
                                                c-1.4,1.44-2.86,2.81-4.27,4.23c-1.48,1.49-3.4,3.19-4.06,5.24c-0.18,0.56,0.46,1.21,0.97,0.75c1.48-1.3,2.62-3.04,3.99-4.46
                                                c1.51-1.57,3.09-3.09,4.59-4.68c0.59,0.89,0.54,2.05-0.46,3.44c0-0.63-0.68-1.21-1.25-0.67c-2.03,1.94-4.38,3.59-5.96,5.94
                                                c-0.05,0.08-0.06,0.16-0.06,0.24c-2.33,1.27-4.79,2.34-7.34,3.26c1.1-0.98,2.15-2.04,3.19-3.02c2.35-2.21,4.56-4.57,6.8-6.89
                                                c0.39-0.41,0.01-1-0.44-1.12c0.81-0.8,1.62-1.58,2.42-2.31C106.98,22.27,107.01,22.04,106.95,21.84z M80.16,27.97
                                                c1.57-1.3,2.94-2.9,4.29-4.36c2.24-2.42,4.35-4.94,6.35-7.56c0.49-0.65-0.49-1.4-1-0.77c-1.85,2.33-3.83,4.53-5.86,6.69
                                                c-1.17,1.24-2.47,2.45-3.65,3.74c0.1-1.39,0.24-2.76,0.47-4.07c0-0.01,0-0.02,0-0.03c0.22-0.17,0.42-0.36,0.63-0.55
                                                c-0.25,0.46-0.48,0.93-0.63,1.42c-0.13,0.42,0.33,0.88,0.72,0.55c1.63-1.35,2.81-3.28,4.18-4.88c1.59-1.88,3.21-3.73,4.7-5.7
                                                c0.15-0.19,0.16-0.39,0.11-0.58c0.21-0.17,0.41-0.36,0.62-0.53c0.62-0.49-0.11-1.43-0.74-0.96c-2.19,1.59-4.18,3.39-6.08,5.32
                                                c-0.87,0.89-1.84,1.79-2.76,2.73c1.16-3.94,3.34-8.05,7.35-9.07c6.75-1.72,5.28,7.52,4.71,10.2c-0.23,1.1-0.53,2.19-0.81,3.27
                                                c-0.02,0-0.04-0.01-0.06,0c-2.44,0.67-4.93,1.94-7.3,3.46c0.11-0.11,0.21-0.23,0.32-0.34c2.62-2.73,5.13-5.54,7.44-8.54
                                                c0.59-0.77-0.59-1.67-1.19-0.91c-2.12,2.67-4.4,5.18-6.76,7.63c-1.63,1.7-3.54,3.35-5.12,5.18C80.13,28.86,80.14,28.42,80.16,27.97
                                                z M88.51,27.13c0.23-0.16,0.31-0.37,0.31-0.58c1.28-0.72,2.52-1.5,3.64-2.41c-0.04,0.18-0.1,0.37-0.13,0.55
                                                c-0.08,0.42,0.15,0.66,0.44,0.76c-4.15,2.2-8.02,5.38-11.54,8.2c-0.71,0.57,0.14,1.68,0.87,1.12c4.78-3.69,10.15-6.43,14.97-9.99
                                                c0.55-0.41,0.02-1.2-0.58-0.99c-0.22,0.08-0.44,0.18-0.66,0.26c2.16-1.35,4.54-2.08,7.18-2.39c1.01-0.12,2.01-0.12,2.93,0
                                                c-0.62,0.5-1.23,1.02-1.84,1.53c-0.06-0.05-0.13-0.08-0.22-0.03c-1.29,0.64-2.53,1.36-3.76,2.1c-0.06-0.03-0.13-0.04-0.19-0.02
                                                c-6.6,2.26-12.7,7.07-18.8,10.44c-0.83,0.46-0.27,1.83,0.58,1.37c1.85-1,3.85-2,5.86-3.04c-0.38,0.28-0.77,0.55-1.15,0.83
                                                c-1.39,0.96-2.77,1.91-4.15,2.88c-0.79,0.56,0.12,1.69,0.91,1.18c5.29-3.4,10.47-7.1,15.46-10.97c-0.02,0.02-0.05,0.04-0.07,0.06
                                                c-2.79,2.49-5.94,4.7-8.57,7.35c-0.36,0.36-0.06,1.09,0.49,0.84c1.12-0.51,2.2-1.16,3.24-1.86c-1.04,0.89-2.04,1.81-2.92,2.83
                                                c-3.97,1.24-7.97,2.29-11.72,3.41c-0.05,0.02-0.07,0.04-0.12,0.06c0.61-2.38,0.83-4.95,0.97-7.55
                                                C82.87,31.19,85.66,29.12,88.51,27.13z"></path>
                                            <path class="st10 color-main-fill" d="M26.62,79.3c0.27-0.16,0.17-0.62-0.16-0.6c-0.12,0.01-0.23,0.03-0.35,0.04c0.14-0.17,0.19-0.44,0.01-0.66
                                                c-2.96-3.59-5.81-7.53-9.62-10.29c-1.58-1.14-4.45-3.5-6.55-2.16c-3.15,2,1.18,7.49,3.64,9.16c-2.19,0.22-5.1,0.44-6.18,2.43
                                                C6.28,79.29,6.51,81,8.55,82.3c2.09,1.33,4.99,0.98,7.37,0.49c0.03,0,0.06,0.01,0.09,0.02c0.08,0.01,0.14-0.03,0.19-0.08
                                                c0.16-0.03,0.32-0.07,0.48-0.1C19.83,81.92,23.83,80.94,26.62,79.3z M10.24,68.79c-0.06-0.35-0.07-0.69-0.04-0.99
                                                c1.01,0.39,2.01,0.84,3.01,1.24c1.06,0.43,2.31,1.03,3.47,0.93c0.32-0.03,0.51-0.48,0.17-0.64c-0.96-0.47-2.07-0.67-3.07-1.06
                                                c-1.1-0.42-2.19-0.89-3.3-1.31c0.32-0.48,0.91-0.7,1.81-0.49c-0.31,0.13-0.46,0.59-0.07,0.76c1.39,0.61,2.71,1.44,4.22,1.73
                                                c0.05,0.01,0.09,0,0.13-0.02c1.12,0.9,2.18,1.9,3.17,2.98c-0.72-0.35-1.47-0.64-2.18-0.96c-1.6-0.71-3.24-1.32-4.87-1.95
                                                c-0.28-0.11-0.5,0.21-0.46,0.46c-0.57-0.24-1.13-0.47-1.66-0.72C10.45,68.69,10.33,68.72,10.24,68.79z M18.94,80.89
                                                c-0.98-0.51-2.07-0.86-3.08-1.23c-1.68-0.61-3.38-1.14-5.11-1.58c-0.43-0.11-0.6,0.54-0.17,0.66c1.55,0.43,3.07,0.96,4.58,1.52
                                                c0.87,0.33,1.74,0.72,2.63,1.04c-0.72,0.24-1.43,0.46-2.13,0.62c0,0-0.01,0-0.01,0c-0.13-0.07-0.27-0.14-0.41-0.2
                                                c0.28,0.03,0.57,0.05,0.84,0.02c0.24-0.02,0.37-0.35,0.13-0.48c-1.02-0.53-2.23-0.72-3.32-1.06c-1.27-0.4-2.54-0.82-3.84-1.15
                                                c-0.13-0.03-0.23,0-0.31,0.07c-0.13-0.07-0.27-0.13-0.4-0.2c-0.37-0.2-0.69,0.35-0.32,0.57c1.26,0.76,2.57,1.38,3.94,1.92
                                                c0.63,0.25,1.28,0.55,1.95,0.8c-2.21,0.25-4.72,0.02-6.08-1.76c-2.28-3.01,2.65-4.22,4.1-4.5c0.6-0.12,1.2-0.2,1.8-0.29
                                                c0.01,0.01,0,0.02,0.01,0.03c0.85,1.08,2,2.06,3.26,2.92c-0.08-0.03-0.16-0.06-0.24-0.09c-1.91-0.73-3.85-1.4-5.83-1.92
                                                c-0.51-0.14-0.71,0.65-0.21,0.79c1.78,0.5,3.51,1.11,5.24,1.77c1.19,0.46,2.42,1.06,3.66,1.47C19.39,80.72,19.16,80.81,18.94,80.89
                                                z M16.76,76.89c-0.13-0.08-0.25-0.08-0.35-0.03c-0.63-0.49-1.28-0.94-1.97-1.31c0.1-0.02,0.2-0.03,0.3-0.05
                                                c0.23-0.05,0.3-0.21,0.29-0.38C17,76.73,19.4,78,21.55,79.16c0.43,0.24,0.81-0.42,0.38-0.67c-2.85-1.61-5.35-3.72-8.14-5.38
                                                c-0.32-0.19-0.61,0.24-0.37,0.5c0.08,0.09,0.18,0.18,0.27,0.27c-1.13-0.8-1.99-1.83-2.71-3.08c-0.27-0.48-0.48-0.98-0.62-1.46
                                                c0.38,0.21,0.77,0.4,1.15,0.6c-0.01,0.04-0.01,0.08,0.03,0.12c0.59,0.51,1.21,0.98,1.84,1.44c0,0.04,0.01,0.07,0.03,0.1
                                                c2.52,2.82,6.2,4.86,9.17,7.2c0.4,0.32,0.97-0.25,0.56-0.58c-0.89-0.72-1.81-1.5-2.75-2.29c0.22,0.13,0.44,0.27,0.65,0.4
                                                c0.77,0.49,1.54,0.98,2.31,1.47c0.45,0.28,0.82-0.41,0.4-0.7c-2.81-1.93-5.75-3.74-8.73-5.42c0.02,0.01,0.03,0.02,0.05,0.02
                                                c1.83,0.87,3.6,1.98,5.48,2.74c0.26,0.11,0.56-0.2,0.32-0.42c-0.49-0.45-1.04-0.85-1.61-1.23c0.66,0.33,1.33,0.64,2.03,0.86
                                                c1.46,1.72,2.82,3.5,4.17,5.14c0.02,0.02,0.04,0.03,0.06,0.05c-1.32,0.2-2.65,0.62-3.98,1.11C19.98,78.86,18.35,77.9,16.76,76.89z"></path>
                                            <path class="st10 color-main-fill" d="M42.89,48.7c0.35,0.26,0.9-0.13,0.69-0.54c-0.07-0.15-0.17-0.29-0.25-0.43c0.3,0.09,0.68,0.01,0.86-0.35
                                                c3.03-5.83,6.58-11.71,8.06-18.19c0.61-2.68,2.09-7.73-0.81-9.72c-4.35-2.99-9.08,5.68-9.9,9.8c-1.5-2.73-3.4-6.38-6.57-6.7
                                                c-3.29-0.32-5.39,0.92-5.95,4.29c-0.58,3.45,1.49,7.03,3.44,9.85c0.01,0.04,0.02,0.09,0.03,0.13c0.03,0.11,0.11,0.17,0.21,0.21
                                                c0.13,0.19,0.27,0.38,0.4,0.56C35.74,41.32,39.21,45.98,42.89,48.7z M47.5,21.6c0.43-0.27,0.85-0.47,1.26-0.6
                                                c0.05,1.53,0.02,3.07,0.05,4.6c0.03,1.61-0.06,3.57,0.71,5.03c0.21,0.4,0.91,0.39,0.93-0.13c0.08-1.51-0.27-3.06-0.32-4.57
                                                c-0.06-1.67-0.05-3.35-0.13-5.02c0.8,0.15,1.42,0.8,1.64,2.09c-0.34-0.33-1.03-0.27-1.03,0.33c-0.02,2.15-0.37,4.32,0.09,6.44
                                                c0.02,0.07,0.05,0.12,0.1,0.16c-0.54,1.95-1.27,3.88-2.12,5.77c0.05-1.13,0.03-2.27,0.04-3.36c0.03-2.47-0.08-4.94-0.16-7.41
                                                c-0.02-0.43-0.55-0.54-0.85-0.35c-0.01-0.87-0.01-1.73,0.02-2.56C47.74,21.82,47.64,21.67,47.5,21.6z M36.58,39.6
                                                c0.12-1.55-0.03-3.16-0.11-4.69c-0.13-2.52-0.39-5.02-0.77-7.52c-0.09-0.62-1.03-0.48-0.95,0.14c0.29,2.26,0.45,4.52,0.55,6.79
                                                c0.06,1.31,0.03,2.66,0.11,4c-0.71-0.8-1.39-1.6-1.99-2.43c0,0-0.01-0.01-0.01-0.02c0.02-0.21,0.03-0.43,0.04-0.64
                                                c0.12,0.39,0.25,0.76,0.44,1.11c0.16,0.29,0.66,0.29,0.69-0.1c0.13-1.62-0.3-3.29-0.46-4.9c-0.18-1.88-0.34-3.76-0.63-5.62
                                                c-0.03-0.19-0.13-0.3-0.26-0.37c0.01-0.21,0.02-0.42,0.04-0.63c0.06-0.6-0.84-0.7-0.92-0.1c-0.3,2.05-0.37,4.11-0.32,6.18
                                                c0.02,0.95,0,1.97,0.03,2.97c-1.55-2.74-2.64-6.13-1.07-8.88c2.66-4.63,6.95,1.11,8.12,2.85c0.48,0.71,0.92,1.45,1.37,2.19
                                                c-0.01,0.01-0.03,0.02-0.03,0.03c-0.93,1.7-1.57,3.74-1.99,5.85c-0.01-0.12-0.01-0.24-0.02-0.36c-0.1-2.89-0.31-5.78-0.73-8.65
                                                c-0.11-0.74-1.23-0.57-1.14,0.17c0.34,2.59,0.5,5.18,0.59,7.78c0.07,1.8-0.05,3.73,0.11,5.58C37.05,40.09,36.81,39.84,36.58,39.6z
                                                 M40.57,34.56c0.04-0.21-0.04-0.37-0.15-0.48c0.28-1.09,0.52-2.18,0.61-3.29c0.08,0.12,0.15,0.25,0.23,0.37
                                                c0.19,0.27,0.44,0.27,0.65,0.16c-1,3.45-1.32,7.27-1.64,10.71c-0.07,0.69,1,0.82,1.08,0.12c0.52-4.59,1.88-9.01,2.49-13.56
                                                c0.07-0.52-0.65-0.65-0.86-0.21c-0.08,0.16-0.13,0.34-0.2,0.5c0.41-1.91,1.28-3.61,2.51-5.22c0.47-0.62,1.01-1.17,1.56-1.61
                                                c-0.06,0.61-0.09,1.22-0.14,1.83c-0.06,0-0.11,0.03-0.14,0.1c-0.33,1.05-0.6,2.12-0.85,3.19c-0.05,0.02-0.09,0.05-0.11,0.09
                                                c-2.28,4.83-2.89,10.75-4.29,15.9c-0.19,0.7,0.86,1.12,1.06,0.41c0.44-1.55,0.95-3.18,1.46-4.84c-0.05,0.36-0.11,0.71-0.16,1.07
                                                c-0.21,1.27-0.43,2.54-0.63,3.82c-0.12,0.73,0.99,0.84,1.13,0.13c0.96-4.72,1.68-9.54,2.22-14.35c0,0.02,0,0.05,0,0.07
                                                c-0.12,2.87-0.58,5.77-0.53,8.63c0.01,0.39,0.57,0.61,0.72,0.18c0.32-0.89,0.53-1.82,0.71-2.77c-0.07,1.05-0.09,2.09,0,3.12
                                                c-1.43,2.84-3,5.6-4.37,8.26c-0.02,0.04-0.02,0.06-0.03,0.1c-0.98-1.6-2.27-3.1-3.63-4.56C39.8,39.82,40.14,37.18,40.57,34.56z"></path>
                                        </g>
                                        </svg>