<svg id="Layer_1" data-name="Layer 1" xmlns="http://www.w3.org/2000/svg" viewBox="0 0 149.41 149.42"><defs><style>.cls-1{fill:#545554;}</style></defs><path class="cls-1" d="M149.37,84.06v50.47c-.91,7.34-5.24,11.86-11.92,14.42a12.28,12.28,0,0,1-4.45.59q-58.32,0-116.64,0c-7.78,0-14.59-6.38-16.2-13.19a15.54,15.54,0,0,1-.3-3.48c0-38.78.06-77.57,0-116.35C-.2,7.92,7.55.94,13.32.25A4.45,4.45,0,0,0,15.17,0h119c6.57.66,11,4.34,13.89,10a14.15,14.15,0,0,1,1.28,5.14v42c-.23.29-.44.6-.69.87a2.91,2.91,0,0,1-5.11-1.57,11.82,11.82,0,0,1,0-1.46q0-18.3,0-36.61a12.07,12.07,0,0,0-4.7-10.15,12.71,12.71,0,0,0-8.05-2.43H18.49a12.47,12.47,0,0,0-8,2.5,12.05,12.05,0,0,0-4.63,10q0,14.65,0,29.32v83.13c0,5.13,2,9.1,6.7,11.5a12.34,12.34,0,0,0,5.63,1.21q56.52,0,113,0c5.92,0,10.31-3.3,11.88-8.82a14.77,14.77,0,0,0,.47-4V85.36a3,3,0,0,1,2.17-3.21c1.31-.38,2.44.16,3.39,1.59A3.82,3.82,0,0,0,149.37,84.06Z"></path><path class="cls-1" d="M149.37,69.76v1.75c-1.27,1.93-2.54,2.53-4,1.85a2.9,2.9,0,0,1,.37-5.49A2.7,2.7,0,0,1,148.78,69C149,69.22,149.18,69.5,149.37,69.76Z"></path><path class="cls-1" d="M111.69,110c.34.41.31.6-.09.91-1.59,1.21-3.17,2.42-4.71,3.68-.62.51-.9.19-1.27-.26a33.12,33.12,0,0,0-7.86-7.08A34.25,34.25,0,0,0,75,101.8c-.74.08-.74.39-.64.92,1.56,9.09-5.37,19.33-15.92,20.7A18.78,18.78,0,0,1,37.19,107a14.27,14.27,0,0,1,0-1.85c-.14-3.6,1.27-6.73,3-9.7C44.3,88.68,49.67,83,55.38,77.58c.47-.45.69-.25,1,.08A88,88,0,0,1,70.23,93.57a2.12,2.12,0,0,0,2.46,1.11,39.09,39.09,0,0,1,17.47,1.09A41.93,41.93,0,0,1,111.69,110Zm-54.2,6c6.77-.89,12.34-9,8.21-15.84a79.88,79.88,0,0,0-9.83-12.69,65.71,65.71,0,0,0-9.35,11.87,11.09,11.09,0,0,0-2,5.68A11.39,11.39,0,0,0,57.49,116.07Z"></path><path class="cls-1" d="M101.54,55.07A7.41,7.41,0,1,1,94.06,62,7.42,7.42,0,0,1,101.54,55.07Z"></path><path class="cls-1" d="M63.2,62.28a7.36,7.36,0,1,1-7.33-7.21A7.4,7.4,0,0,1,63.2,62.28Z"></path></svg>