<svg version="1.1" id="Layer_1" xmlns="http://www.w3.org/2000/svg" xmlns:xlink="http://www.w3.org/1999/xlink" x="0px" y="0px" viewBox="0 0 52.44 151.82" style="enable-background:new 0 0 52.44 151.82;" xml:space="preserve">
                                        <g>
                                            <g>
                                                <path class="st3 color-main-fill" d="M8.14,144.59c-0.37-0.18-0.71-0.3-0.98-0.55c-0.55-0.53-0.58-1.05-0.05-1.62c0.07-0.07,0.15-0.13,0.22-0.19
                                                    c0.16-0.15,0.19-0.34,0.1-0.54c-0.04-0.09-0.08-0.18-0.14-0.26c-0.37-0.46-0.3-0.91,0.03-1.35c0.17-0.24,0.34-0.49,0.55-0.69
                                                    c0.53-0.5,0.94-0.51,1.58-0.11c0.69,0.44,1.36,0.9,1.77,1.65c0.16,0.29,0.34,0.25,0.6-0.01c0.27-0.28,0.56-0.55,0.85-0.8
                                                    c0.29-0.26,0.6-0.51,0.91-0.74c0.84-0.61,1.43-1.42,1.91-2.33c0.18-0.35,0.38-0.68,0.61-1c0.37-0.51,0.86-0.75,1.52-0.69
                                                    c0.99,0.09,0.99,0.07,1.68,0.81c1.05,1.13,1.05,1.22,0.67,2.72c-0.24,0.95-0.44,1.91-0.62,2.87c-0.17,0.9-0.41,1.78-0.49,2.7
                                                    c-0.06,0.68-0.15,1.36-0.14,2.05c0.01,0.53-0.15,0.69-0.68,0.75c-1.03,0.11-1.13,0.01-1.11-1c0.01-1.08-0.01-2.16-0.03-3.23
                                                    c0-0.05-0.05-0.13-0.1-0.14c-0.05-0.02-0.15,0.01-0.17,0.05c-0.15,0.21-0.31,0.42-0.41,0.66c-0.22,0.51-0.44,1.02-0.62,1.55
                                                    c-0.3,0.88-0.81,1.64-1.31,2.4c-0.37,0.57-0.85,0.84-1.56,0.8c-1.08-0.06-2.15-0.13-3.22-0.29c-0.45-0.07-0.91-0.12-1.36-0.18
                                                    c-1.03-0.14-1.49-0.96-1.07-1.92c0.12-0.27,0.27-0.52,0.5-0.71C7.76,145.06,8,144.94,8.14,144.59z M10.4,147.64
                                                    c0-0.01,0-0.02,0-0.04c0.62,0.06,1.24,0.14,1.86,0.17c0.32,0.02,0.65-0.04,0.98-0.07c0.21-0.02,0.38-0.12,0.49-0.29
                                                    c0.6-0.94,1.17-1.89,1.53-2.95c0.06-0.18,0.32-0.45,0-0.58c-0.22-0.1-0.41,0.14-0.58,0.3c-0.17,0.16-0.27,0.37-0.28,0.61
                                                    c-0.01,0.23-0.01,0.46-0.06,0.68c-0.13,0.54-0.41,0.71-0.94,0.58c-0.09-0.02-0.2-0.04-0.28-0.1c-0.38-0.25-0.8-0.25-1.23-0.21
                                                    c-0.9,0.09-1.78-0.02-2.6-0.39c-0.59-0.26-1.02-0.03-1.43,0.32c-0.32,0.28-0.41,0.65-0.31,1.07c0.1,0.43,0.41,0.56,0.79,0.61
                                                    C9.04,147.45,9.72,147.55,10.4,147.64z M17.37,135.92c-0.3-0.02-0.64,0.11-0.92,0.43c-0.28,0.32-0.49,0.69-0.69,1.06
                                                    c-0.35,0.67-0.78,1.27-1.35,1.78c-0.46,0.41-0.9,0.85-1.39,1.23c-0.28,0.22-0.52,0.49-0.76,0.76c-0.12,0.12-0.04,0.34,0.13,0.38
                                                    c0.12,0.03,0.26,0.05,0.38,0.02c0.5-0.14,1-0.28,1.49-0.46c0.38-0.14,0.75-0.21,1.15-0.14c0.43,0.08,0.59-0.01,0.71-0.47
                                                    c0.16-0.6,0.51-1.04,0.92-1.47c0.27-0.28,0.53-0.58,0.75-0.9c0.33-0.47,0.46-1.01,0.36-1.58
                                                    C18.09,136.2,17.84,135.97,17.37,135.92z M16.46,141.27c0.49-0.05,0.82-0.2,1.05-0.56c0.09-0.14,0.21-0.26,0.4-0.16
                                                    c0.18,0.1,0.16,0.28,0.12,0.44c-0.05,0.22-0.12,0.44-0.21,0.65c-0.2,0.42-0.32,0.87-0.33,1.33c-0.01,1.11,0.02,2.22,0.04,3.33
                                                    c0,0.17,0.09,0.33,0.3,0.31c0.19-0.02,0.26-0.18,0.28-0.35c0.01-0.13,0-0.26,0.01-0.39c0.03-0.46,0.04-0.92,0.11-1.37
                                                    c0.3-1.91,0.62-3.81,1.1-5.68c0.07-0.25,0.15-0.5,0.21-0.76c0.09-0.37,0.02-0.71-0.25-1c-0.09-0.1-0.2-0.19-0.33-0.16
                                                    c-0.07,0.02-0.15,0.14-0.16,0.22c-0.11,0.71-0.5,1.27-0.97,1.78c-0.2,0.22-0.39,0.44-0.57,0.67
                                                    C16.89,140.07,16.61,140.61,16.46,141.27z M9.44,142.89C9.44,142.9,9.44,142.9,9.44,142.89c-0.16-0.01-0.33-0.02-0.49-0.05
                                                    c-0.06-0.01-0.14-0.05-0.15-0.09c-0.04-0.11,0.04-0.18,0.14-0.21c0.94-0.27,0.94-0.27,0.33-0.99c-0.06-0.07-0.14-0.14-0.2-0.22
                                                    c-0.06-0.09-0.05-0.19,0.01-0.27c0.07-0.09,0.18-0.09,0.26-0.03c0.22,0.19,0.43,0.4,0.66,0.59c0.06,0.05,0.2,0.08,0.26,0.05
                                                    c0.1-0.06,0.25-0.19,0.24-0.28c-0.05-0.48-0.04-0.97-0.53-1.29c-0.33-0.22-0.66-0.43-1.03-0.57c-0.23-0.09-0.45-0.04-0.65,0.11
                                                    c-0.21,0.16-0.37,0.36-0.51,0.59c-0.21,0.34-0.22,0.65-0.01,1.01C8.24,142,8.22,142,7.6,142.71c-0.02,0.02-0.05,0.05-0.07,0.07
                                                    c-0.25,0.29-0.27,0.51-0.1,0.8c0.21,0.35,0.45,0.47,0.81,0.37c0.38-0.11,0.75-0.21,1.14-0.26c0.27-0.03,0.47-0.21,0.63-0.42
                                                    c0.07-0.1,0.02-0.3-0.1-0.32C9.76,142.92,9.6,142.91,9.44,142.89z M12.64,143.68c-0.01,0-0.11-0.03-0.21-0.01
                                                    c-0.05,0.01-0.13,0.08-0.13,0.12c0.02,0.46,0.08,0.94,0.53,1.18c0.25,0.14,0.55,0.16,0.72,0.44c0.03,0.05,0.18-0.03,0.22-0.12
                                                    c0.02-0.06,0.04-0.13,0.03-0.19c-0.08-0.66,0.2-1.11,0.75-1.47c0.38-0.25,0.71-0.57,0.99-0.94c0.2-0.26,0.44-0.53,0.25-0.88
                                                    c-0.18-0.32-0.53-0.34-0.86-0.37c-0.1-0.01-0.2-0.01-0.29,0.02c-0.46,0.15-0.93,0.3-1.38,0.48c-0.15,0.06-0.31,0.16-0.32,0.34
                                                    c-0.02,0.23,0.21,0.2,0.34,0.26c0.06,0.03,0.13,0.03,0.18,0.07c0.04,0.04,0.09,0.11,0.08,0.16c0,0.05-0.06,0.12-0.1,0.13
                                                    c-0.12,0.03-0.26,0.02-0.38,0.05c-0.18,0.05-0.23,0.19-0.13,0.37c0.05,0.08,0.13,0.15,0.17,0.23c0.05,0.1,0.02,0.2-0.1,0.2
                                                    C12.91,143.76,12.81,143.72,12.64,143.68z M10.8,143.59c-0.4-0.06-0.41-0.07-0.85,0.27c-0.21,0.16-0.44,0.26-0.68,0.37
                                                    c-0.27,0.12-0.27,0.33-0.01,0.5c0.64,0.44,1.37,0.56,2.13,0.54c0.59-0.01,0.67-0.13,0.53-0.69c-0.05-0.19-0.08-0.38-0.13-0.57
                                                    c-0.06-0.2-0.17-0.35-0.4-0.37C11.26,143.64,11.13,143.62,10.8,143.59z M10.59,142.44c-0.02,0.25,0.07,0.44,0.28,0.58
                                                    c0.21,0.14,0.42,0.13,0.64,0.01c0.28-0.17,0.51-0.4,0.62-0.72c0.06-0.18,0.01-0.34-0.19-0.35c-0.2-0.02-0.36-0.1-0.53-0.2
                                                    c-0.19-0.12-0.37-0.04-0.52,0.1C10.71,142.01,10.6,142.2,10.59,142.44z"></path>
                                                <path class="st3 color-main-fill" d="M33,145.59c-0.06,0.59-0.11,1.17-0.17,1.76c-0.02,0.16-0.04,0.32,0.03,0.48c0.03,0.07,0.07,0.09,0.15,0.1
                                                    c0.07,0.01,0.14,0.01,0.16-0.07c0.05-0.19,0.11-0.37,0.12-0.56c0.07-1.22,0.29-2.4,0.66-3.56c0.01-0.03,0.02-0.06,0.02-0.1
                                                    c0.13-1.24,0.48-2.43,0.86-3.62c0.14-0.45,0.06-0.91-0.13-1.34c-0.06-0.14-0.24-0.18-0.31-0.05c-0.42,0.73-1.08,1.21-1.72,1.73
                                                    c-0.3,0.24-0.56,0.56-0.74,0.91c-0.2,0.38-0.44,0.7-0.81,0.96c-0.4,0.28-0.35,0.51,0.1,0.65c0.47,0.15,0.79,0.43,1.02,0.86
                                                    c0.13,0.25,0.15,0.48-0.01,0.73c-0.26,0.42-0.58,0.79-0.94,1.12c-0.14,0.13-0.33,0.25-0.34,0.46c-0.01,0.46-0.26,0.78-0.57,1.09
                                                    c-0.18,0.18-0.29,0.43-0.39,0.67c-0.34,0.87-1.01,1.27-1.9,1.31c-0.75,0.04-1.5,0.05-2.25,0.02c-0.62-0.02-1.24-0.16-1.85-0.14
                                                    c-0.72,0.02-1.16-0.3-1.54-0.85c-0.23-0.33-0.32-0.62-0.13-0.99c0.07-0.14,0.09-0.31,0.14-0.47c0.15-0.41,0.25-0.79-0.08-1.19
                                                    c-0.21-0.25-0.1-0.57,0.09-0.82c0.14-0.18,0.33-0.32,0.47-0.5c0.31-0.42,0.61-0.86,0.39-1.44c-0.11-0.29-0.07-0.58,0.07-0.86
                                                    c0.16-0.31,0.4-0.52,0.78-0.49c0.56,0.03,1.12,0.04,1.59,0.4c0.28,0.21,0.5,0.15,0.79-0.02c0.86-0.49,1.65-1.06,2.39-1.71
                                                    c0.42-0.37,0.76-0.81,1.05-1.28c0.31-0.5,0.62-1,0.99-1.46c0.72-0.9,1.72-1.03,2.7-0.41c0.14,0.09,0.25,0.23,0.4,0.28
                                                    c0.6,0.21,0.96,0.65,1.18,1.23c0.24,0.63,0.33,1.26,0.12,1.92c-0.04,0.12-0.09,0.25-0.13,0.37c-0.28,0.84-0.54,1.68-0.66,2.56
                                                    c-0.08,0.55-0.23,1.09-0.37,1.63c-0.17,0.7-0.33,1.4-0.32,2.13c0,0.23-0.01,0.47-0.09,0.68c-0.12,0.3,0.03,0.7-0.29,0.9
                                                    c-0.34,0.21-0.74,0.23-1.14,0.23c-0.21,0-0.38-0.18-0.34-0.39c0.05-0.29,0.12-0.57,0.18-0.86c0.19-0.94,0.21-1.89,0.25-2.83
                                                    c0.03-0.68,0.21-1.36,0.12-2.05c-0.02-0.16,0.02-0.33,0.15-0.45c0.04-0.04,0.11-0.09,0.16-0.08c0.05,0,0.13,0.06,0.15,0.1
                                                    c0.04,0.12,0.06,0.25,0.07,0.38C33.23,143.64,33.07,144.61,33,145.59z M32.82,137.17c-0.56-0.06-0.91,0.07-1.22,0.35
                                                    c-0.44,0.4-0.77,0.89-1.09,1.38c-0.52,0.8-1.11,1.54-1.88,2.1c-0.53,0.38-1.07,0.74-1.61,1.1c-0.2,0.13-0.39,0.26-0.34,0.54
                                                    c0.05,0.29,0.08,0.62,0.47,0.64c0.37,0.02,0.62,0.44,0.99,0.34c0.34-0.09,0.64-0.31,0.96-0.47c0.12-0.06,0.22-0.16,0.35-0.18
                                                    c0.65-0.09,1-0.56,1.34-1.05c0.62-0.92,1.28-1.81,2.21-2.47c0.31-0.22,0.57-0.54,0.71-0.92c0.2-0.55,0.06-0.96-0.47-1.22
                                                    C33.06,137.23,32.87,137.19,32.82,137.17z M25.34,148.54c1.01,0.02,2.02,0.13,3.03,0c0.49-0.07,0.86-0.28,1.14-0.68
                                                    c0.27-0.38,0.25-0.51-0.18-0.73c-0.25-0.13-0.44-0.4-0.79-0.31c-1.04,0.29-2.08,0.09-3.12-0.04c-0.57-0.07-1.18,0.1-1.73-0.21
                                                    c-0.04-0.02-0.2,0.06-0.23,0.13c-0.11,0.24-0.2,0.48-0.27,0.74c-0.16,0.64,0.11,1.01,0.77,1.05
                                                    C24.43,148.53,24.88,148.53,25.34,148.54z M26.1,146.33c0.61,0.09,1.23,0.22,1.85,0.06c0.24-0.06,0.32-0.22,0.22-0.43
                                                    c-0.26-0.57-0.41-0.66-1.04-0.62c-0.13,0.01-0.26,0.03-0.39,0.01c-0.48-0.05-0.91-0.17-0.97-0.77c-0.03-0.27-0.22-0.38-0.48-0.4
                                                    c-0.26-0.02-0.52-0.04-0.78-0.07c-0.1-0.01-0.2-0.08-0.18-0.19c0.01-0.1,0.12-0.14,0.22-0.14c0.1-0.01,0.2,0.01,0.29-0.01
                                                    c0.27-0.05,0.33-0.15,0.23-0.39c-0.04-0.09-0.11-0.17-0.15-0.25c-0.04-0.09-0.07-0.2,0.05-0.24c0.05-0.02,0.14-0.01,0.18,0.02
                                                    c0.2,0.17,0.41,0.33,0.57,0.53c0.27,0.34,0.53,0.32,0.66,0.18c0.23-0.25-0.02-0.42-0.1-0.61c-0.35-0.76-0.99-1.1-1.81-1.11
                                                    c-0.46-0.01-0.77,0.28-0.57,0.75c0.03,0.06,0.04,0.13,0.07,0.18c0.19,0.33,0.12,0.64-0.08,0.92c-0.28,0.4-0.5,0.84-0.86,1.18
                                                    c-0.12,0.11-0.17,0.28-0.07,0.44c0.08,0.13,0.22,0.16,0.34,0.14c0.38-0.07,0.76-0.18,1.15-0.24c0.25-0.04,0.6-0.3,0.72-0.07
                                                    c0.15,0.3-0.3,0.3-0.47,0.46c-0.1,0.09-0.2,0.17-0.15,0.32c0.04,0.13,0.16,0.21,0.3,0.22C25.25,146.25,25.68,146.28,26.1,146.33z
                                                     M30.79,143.38c-0.61-0.07-1.18-0.01-1.68,0.38c-0.13,0.1-0.28,0.21-0.23,0.39c0.04,0.13,0.19,0.16,0.32,0.18
                                                    c0.26,0.03,0.52,0.05,0.78,0.1c0.05,0.01,0.12,0.07,0.14,0.12c0.02,0.04-0.01,0.14-0.05,0.16c-0.26,0.14-0.54,0.23-0.61,0.57
                                                    c-0.01,0.05-0.16,0.11-0.25,0.1c-0.16-0.01-0.32-0.08-0.48-0.11c-0.13-0.02-0.27,0.13-0.22,0.23c0.21,0.45,0.5,0.84,0.96,1.08
                                                    c0.35,0.18,0.67,0.08,0.76-0.32c0.11-0.52,0.42-0.87,0.79-1.2c0.19-0.17,0.38-0.36,0.52-0.58c0.26-0.41,0.09-0.87-0.37-1.03
                                                    C31.05,143.42,30.92,143.41,30.79,143.38z M27.63,144.21c0.01-0.27-0.33-0.48-0.55-0.34c-0.22,0.14-0.42,0.3-0.61,0.47
                                                    c-0.15,0.13-0.05,0.42,0.14,0.47c0.42,0.11,0.8-0.04,0.99-0.41C27.62,144.34,27.62,144.27,27.63,144.21z"></path>
                                            </g>
                                            <g>
                                                <path class="st6 color-main-fill" d="M34.67,22.24c0.1-0.35,0.45-0.4,0.73-0.55c0.09-0.05,0.2-0.08,0.28-0.15c0.07-0.06,0.15-0.17,0.14-0.24
                                                    c-0.01-0.07-0.15-0.16-0.23-0.16c-0.83-0.02-1.65-0.24-2.49-0.18c-0.18,0.01-0.36-0.02-0.54-0.04c-0.03,0-0.06-0.04-0.07-0.06
                                                    c-0.03-0.07,0-0.15,0.09-0.14c0.62,0.02,1.23,0.06,1.85,0.08c0.33,0.01,0.65,0.02,0.98,0.02c0.1,0,0.22-0.07,0.21-0.19
                                                    c-0.01-0.09-0.08-0.2-0.15-0.24c-0.29-0.14-0.6-0.24-0.89-0.37c-0.04-0.02-0.05-0.11-0.08-0.17c0.06-0.02,0.14-0.08,0.19-0.06
                                                    c0.51,0.17,1.02,0.35,1.52,0.55c0.24,0.09,0.07,0.24,0.07,0.39c-0.01,0.28,0.44,0.55,0.18,0.82c-0.17,0.18-0.52,0.2-0.79,0.3
                                                    c-0.34,0.12-0.67,0.25-1.01,0.38L34.67,22.24z"></path>
                                                <path class="st6 color-main-fill" d="M25.19,20.1c0.02,0.28-0.18,0.47-0.38,0.52c-0.48,0.11-0.72-0.21-0.97-0.49c-0.19-0.22-0.19-0.35,0.01-0.51
                                                    c0.22-0.18,0.46-0.35,0.77-0.21C24.96,19.57,25.11,19.87,25.19,20.1z M24.56,20.26c0.17-0.01,0.25-0.12,0.24-0.26
                                                    c-0.01-0.14-0.12-0.26-0.26-0.28c-0.15-0.02-0.28,0.05-0.29,0.21C24.25,20.11,24.35,20.24,24.56,20.26z"></path>
                                                <path class="st6 color-main-fill" d="M18.23,23.58c-0.11-0.07-0.23-0.13-0.34-0.21c-0.05-0.04-0.09-0.12-0.08-0.17c0.04-0.27,0.3-0.34,0.5-0.46
                                                    c0.16-0.09,0.34-0.07,0.49,0.05c0.15,0.11,0.18,0.32,0.08,0.44C18.73,23.42,18.51,23.51,18.23,23.58z"></path>
                                                <path class="st6 color-main-fill" d="M31.71,24.15c-0.11-0.07-0.23-0.13-0.34-0.21c-0.05-0.04-0.09-0.12-0.08-0.17c0.04-0.27,0.3-0.34,0.5-0.46
                                                    c0.16-0.09,0.34-0.07,0.49,0.05c0.15,0.11,0.18,0.32,0.08,0.44C32.21,23.99,31.99,24.08,31.71,24.15z"></path>
                                                <path class="st6 color-main-fill" d="M29.21,22.23c0.01,0.22-0.2,0.44-0.46,0.47c-0.28,0.03-0.5-0.15-0.49-0.41c0.01-0.23,0.14-0.38,0.39-0.41
                                                    C28.92,21.83,29.19,22.01,29.21,22.23z"></path>
                                                <path class="st6 color-main-fill" d="M25.53,22.94c0.01,0.22-0.2,0.44-0.46,0.47c-0.28,0.03-0.5-0.15-0.49-0.41c0.01-0.23,0.14-0.38,0.39-0.41
                                                    C25.24,22.55,25.51,22.73,25.53,22.94z"></path>
                                                <path class="st6 color-main-fill" d="M28.7,18.86c0.06,0.01,0.18,0.01,0.26,0.06c0.08,0.05,0.18,0.14,0.19,0.22c0.01,0.08-0.04,0.19-0.11,0.25
                                                    c-0.16,0.14-0.36,0.21-0.58,0.12c-0.2-0.07-0.43-0.17-0.41-0.4c0.03-0.25,0.28-0.24,0.49-0.26C28.59,18.86,28.62,18.87,28.7,18.86
                                                    z"></path>
                                                <path class="st6 color-main-fill" d="M34.64,22.23c-0.43,0.17-0.87,0.34-1.42,0.55c0.64-0.5,0.65-0.51,1.45-0.54
                                                    C34.67,22.24,34.64,22.23,34.64,22.23z"></path>
                                                <path class="st6 color-main-fill" d="M21.26,23.53c-0.04,0.05-0.07,0.13-0.13,0.15c-0.21,0.07-0.44-0.04-0.52-0.25c-0.02-0.05-0.01-0.14,0.03-0.18
                                                    c0.11-0.12,0.26-0.09,0.4-0.03C21.18,23.27,21.26,23.38,21.26,23.53z"></path>
                                                <path class="st6 color-main-fill" d="M26.09,18.16c-0.04,0.05-0.08,0.09-0.11,0.14c-0.05-0.04-0.12-0.07-0.13-0.11c-0.01-0.04,0.06-0.09,0.09-0.14
                                                    C25.99,18.09,26.04,18.12,26.09,18.16z"></path>
                                                <path class="st6 color-main-fill" d="M23.61,24.46c0.04-0.07,0.11-0.1,0.17-0.04c0.04,0.04,0.05,0.11,0.08,0.16c-0.06,0.02-0.14,0.06-0.18,0.04
                                                    C23.64,24.6,23.63,24.51,23.61,24.46z"></path>
                                                <path class="st6 color-main-fill" d="M22.2,18.07c0.04-0.07,0.11-0.1,0.17-0.04c0.04,0.04,0.05,0.11,0.08,0.16c-0.06,0.02-0.14,0.06-0.18,0.04
                                                    C22.23,18.21,22.22,18.13,22.2,18.07z"></path>
                                                <path class="st6 color-main-fill" d="M31.09,18.39c0.04-0.07,0.11-0.1,0.17-0.04c0.04,0.04,0.05,0.11,0.08,0.16c-0.06,0.02-0.14,0.06-0.18,0.04
                                                    C31.12,18.53,31.12,18.45,31.09,18.39z"></path>
                                                <path class="st6 color-main-fill" d="M30.22,21c0.04-0.07,0.11-0.1,0.17-0.04c0.04,0.04,0.05,0.11,0.08,0.16c-0.06,0.02-0.14,0.06-0.18,0.04
                                                    C30.25,21.14,30.24,21.05,30.22,21z"></path>
                                                <path class="st6 color-main-fill" d="M26.56,21.51c0.04-0.07,0.11-0.1,0.17-0.04c0.04,0.04,0.05,0.11,0.08,0.16c-0.06,0.02-0.14,0.06-0.18,0.04
                                                    C26.59,21.65,26.58,21.56,26.56,21.51z"></path>
                                                <path class="st6 color-main-fill" d="M19.17,21.35c0.04-0.07,0.11-0.1,0.17-0.04c0.04,0.04,0.05,0.11,0.08,0.16c-0.06,0.02-0.14,0.06-0.18,0.04
                                                    C19.2,21.49,19.19,21.41,19.17,21.35z"></path>
                                                <path class="st6 color-main-fill" d="M21.55,21.4c-0.03,0.05-0.06,0.09-0.09,0.14c-0.05-0.03-0.12-0.05-0.13-0.09c-0.01-0.04,0.04-0.1,0.07-0.15
                                                    C21.45,21.33,21.5,21.36,21.55,21.4z"></path>
                                                <path class="st6 color-main-fill" d="M31.63,20.17c-0.01,0.03-0.01,0.07-0.04,0.09c-0.02,0.01-0.07,0-0.09-0.02c-0.05-0.08-0.03-0.13,0.05-0.13
                                                    C31.58,20.1,31.6,20.15,31.63,20.17z"></path>
                                                <path class="st6 color-main-fill" d="M34.36,24.42c-0.01-0.02-0.04-0.05-0.04-0.07c0-0.07,0.04-0.1,0.11-0.08c0.07,0.03,0.07,0.09,0.01,0.13
                                                    C34.42,24.42,34.39,24.41,34.36,24.42z"></path>
                                                <path class="st6 color-main-fill" d="M27.08,25.01c0.01-0.06,0.02-0.11,0.03-0.17c0.03,0.01,0.07,0.02,0.09,0.04c0.06,0.06,0.05,0.12-0.03,0.15
                                                    C27.15,25.05,27.11,25.02,27.08,25.01z"></path>
                                                <path class="st6 color-main-fill" d="M33.8,19.13c-0.04,0.03-0.09,0.08-0.13,0.08c-0.08,0-0.11-0.06-0.07-0.13c0.01-0.02,0.06-0.05,0.08-0.05
                                                    C33.72,19.06,33.76,19.09,33.8,19.13z"></path>
                                                <path class="st6 color-main-fill" d="M29.96,25.09c-0.05-0.03-0.12-0.05-0.16-0.1c-0.06-0.07-0.03-0.13,0.06-0.13c0.06,0,0.14,0.03,0.16,0.07
                                                    C30.04,24.97,29.98,25.04,29.96,25.09z"></path>
                                                <path class="st6 color-main-fill" d="M20.22,18.54c0.04,0.04,0.07,0.08,0.11,0.12c-0.04,0.03-0.09,0.06-0.13,0.08c-0.01,0-0.06-0.05-0.05-0.06
                                                    C20.16,18.62,20.2,18.58,20.22,18.54z"></path>
                                                <g>
                                                    <path class="st6 color-main-fill" d="M49.66,119.11c0.11-0.63-0.08-1.21-0.34-1.79c-0.28-0.62-0.39-1.22,0.02-1.85c0.25-0.39,0.18-0.86,0.04-1.3
                                                        c-0.36-1.11-0.7-2.22-1.09-3.32c-0.6-1.69-0.94-3.43-1.05-5.2c-0.12-1.94-0.36-3.86-0.7-5.78c-0.44-2.55-0.83-5.11-1.25-7.67
                                                        c-0.11-0.67-0.22-1.35-0.36-2.01c-0.47-2.21-0.77-4.44-1.04-6.67c-0.12-1.01-0.15-2.04-0.22-3.05c-0.05-0.71-0.07-1.43-0.15-2.14
                                                        c-0.1-0.92-0.1-1.84-0.04-2.75c0.09-1.33-0.09-2.65-0.06-3.98c0.07-2.6-0.36-5.16-0.54-7.74c-0.01-0.14-0.04-0.27-0.04-0.41
                                                        c-0.02-0.43,0.03-0.51,0.47-0.69c0.11-0.04,0.23-0.08,0.34-0.12c-0.03-0.2-0.06-0.4-0.09-0.6c-0.04,0.01-0.08,0.02-0.13,0.03
                                                        c-0.33,0.08-0.59-0.06-0.63-0.39c-0.11-0.84-0.2-1.69-0.28-2.54c-0.06-0.61-0.03-1.23-0.13-1.83c-0.3-1.79-0.38-3.59-0.6-5.38
                                                        c-0.19-1.52-0.41-3.04-0.58-4.56c-0.13-1.15-0.2-2.31-0.31-3.46c-0.08-0.78-0.19-1.56-0.31-2.33c-0.36-2.26-0.62-4.52-0.84-6.79
                                                        c-0.28-2.98-0.69-5.96-1.62-8.84c-0.2-0.62-0.48-1.22-0.73-1.82c-0.11-0.26-0.24-0.49-0.02-0.76c0.16-0.2,0.14-0.46,0.12-0.69
                                                        c-0.09-0.99,0.12-1.97,0.12-2.94c0.01-1.24,0.42-2.24,1.33-3.1c0.35-0.33,0.62-0.75,1.08-0.94c0.32-0.49,0.67-0.95,1.05-1.4
                                                        c0.01-0.06,0.04-0.12,0.07-0.18c0.5-0.85,0.65-1.8,0.82-2.73c0.18-0.96-0.02-1.87-0.57-2.74c-1.21-1.91-3.08-2.7-4.77-2.87
                                                        c-2.81-0.09-4.98,0.18-7.09,0.9c-1.71,0.58-3.49,0.64-5.26,0.29c-0.7-0.14-1.37-0.46-2.05-0.7c-0.54-0.19-1.07-0.43-1.63-0.59
                                                        c-1.12-0.33-2.26-0.49-3.44-0.29c-0.57,0.1-1.15,0.15-1.73,0.18c-1.38,0.06-2.36,0.78-3.25,1.66c-0.4,0.9-0.95,1.76-1.02,2.76
                                                        c-0.09,1.21,0.21,2.38,0.8,3.46c0.09,0.17,0.14,0.3,0.18,0.41c0.79,0.52,1.37,1.13,1.73,1.79c0.37,0.19,0.73,0.39,1.11,0.55
                                                        c0.4,0.18,0.53,0.43,0.48,0.81c-0.12,0.92-0.02,1.83,0.19,2.74c0.12,0.53,0.15,1.08,0.22,1.62c0.04,0.27,0.06,0.54,0.12,0.81
                                                        c0.03,0.13,0.1,0.26,0.18,0.36c0.06,0.08,0.17,0.16,0.26,0.17c0.21,0.01,0.18-0.17,0.17-0.29c-0.13-1-0.05-1.14,1.1-0.92
                                                        c0.24,0.04,0.49,0.12,0.74,0.01c-0.22-0.21-0.51-0.25-0.79-0.32c-0.28-0.07-0.56-0.14-0.84-0.22c-0.23-0.06-0.4-0.2-0.42-0.43
                                                        c-0.02-0.29,0.24-0.28,0.45-0.32c0.68-0.14,1.37-0.17,2.15-0.09c-0.23-0.3-0.46-0.29-0.67-0.31c-0.36-0.03-0.73-0.04-1.09-0.07
                                                        c-0.11-0.01-0.22-0.04-0.21-0.17c0-0.05,0.06-0.12,0.11-0.15c0.52-0.24,1.05-0.47,1.64-0.53c0.12-0.01,0.2-0.08,0.12-0.19
                                                        c-0.03-0.05-0.12-0.08-0.18-0.09c-0.31-0.04-0.56,0.11-0.83,0.19c-0.45,0.14-0.89,0.28-1.35,0.39c-0.25,0.06-0.41-0.07-0.5-0.29
                                                        c-0.21-0.49-0.15-1.01-0.11-1.51c0.02-0.23,0.22-0.35,0.45-0.38c0.39-0.05,0.79-0.06,1.19-0.1c1.16-0.1,2.31-0.25,3.47-0.22
                                                        c0.8,0.02,1.58-0.18,2.39-0.15c2.29,0.08,4.57,0.29,6.86,0.44c0.22,0.01,0.44,0.04,0.65,0.09c1.88,0.42,3.75,0.84,5.62,1.27
                                                        c0.39,0.09,0.51,0.21,0.52,0.55c0.01,0.34,0.05,0.7-0.03,1.02c-0.28,1.04-0.23,2.1-0.24,3.15c-0.01,0.53-0.24,0.8-0.69,1.04
                                                        c-1.57,0.82-3.21,1.42-5.01,1.59c-1.01,0.09-2.02,0.21-3.04,0.25c-1.87,0.07-3.7-0.23-5.5-0.69c-1.4-0.36-2.78-0.81-4.17-1.21
                                                        c-0.53-0.15-1-0.39-1.49-0.62c-0.29-0.14-0.57-0.31-0.9-0.35c-0.16-0.02-0.29,0.02-0.35,0.17c-0.33,0.97-0.91,1.83-1.29,2.78
                                                        c-0.51,1.3-1.09,2.59-1.61,3.89c-0.16,0.41-0.28,0.85-0.36,1.28c-0.33,1.95-0.82,3.86-1.16,5.81c-0.28,1.58-0.42,3.17-0.7,4.74
                                                        c-0.2,1.1-0.16,2.24-0.39,3.34c-0.14,0.67-0.26,1.34-0.36,2.01c-0.38,2.39-0.54,4.8-0.59,7.22c-0.02,0.99-0.08,1.97-0.13,2.96
                                                        c-0.01,0.17-0.03,0.34-0.06,0.51c-0.02,0.11-0.07,0.21-0.15,0.28c0,0.03,0,0.06,0,0.09c0.04,0.44,0.04,0.87-0.01,1.31
                                                        c0.02,0.07,0.05,0.13,0.05,0.21c-0.01,0.24-0.03,0.48-0.05,0.71c-0.12,1.15-0.25,2.3-0.35,3.45c-0.19,2.03-0.36,4.07-0.56,6.1
                                                        c-0.15,1.46-0.37,2.91-0.5,4.36c-0.15,1.62-0.26,3.25-0.47,4.87c-0.41,3.28-0.9,6.54-1.4,9.8c-0.35,2.29-0.68,4.58-0.96,6.87
                                                        c-0.32,2.6-0.67,5.2-0.95,7.8c-0.3,2.74-0.73,5.47-1.12,8.2c-0.1,0.72-0.02,1.43,0.05,2.14c0.03,0.31,0.2,0.58,0.39,0.83
                                                        c0.35,0.45,0.75,0.84,1.29,1.09c0.4,0.18,0.49,0.46,0.42,0.84c-0.11,0.64-0.18,1.28-0.28,1.92c-0.06,0.38-0.01,0.75,0.1,1.11
                                                        c0.16,0.51,0.94,1.01,1.52,0.99c0.07,0,0.13-0.05,0.19-0.08c0.11-0.06,0.13-0.3,0.02-0.35c-0.13-0.06-0.27-0.09-0.41-0.14
                                                        c-0.47-0.19-0.75-0.5-0.83-1c-0.04-0.27-0.04-0.53,0-0.81c0.16-1.08,0.36-2.15,0.41-3.24c0.08-1.74,0.43-3.44,0.6-5.17
                                                        c0.09-0.98,0.23-1.96,0.37-2.94c0.16-1.08,0.35-2.15,0.51-3.22c0.33-2.32,0.62-4.65,1.07-6.96c0.53-2.71,0.88-5.44,1.05-8.2
                                                        c0.11-1.77,0.21-3.54,0.47-5.29c0.24-1.61,0.49-3.23,0.75-4.84c0.09-0.54,0.11-1.09,0.25-1.61c0.22-0.86,0.35-1.74,0.45-2.61
                                                        c0.22-1.93,0.38-3.86,0.55-5.79c0.11-1.19,0.17-2.38,0.3-3.56c0.17-1.52,0.23-3.05,0.27-4.58c0.03-1.16,0.02-2.31,0.08-3.47
                                                        c0.14-2.78,0.22-5.57,0.52-8.35c0.21-1.96,0.36-3.93,0.52-5.89c0.13-1.66,0.26-3.33,0.35-4.99c0.08-1.6,0.24-3.18,0.59-4.75
                                                        c0.29-1.3,0.71-2.56,1.21-3.8c0.13-0.33,0.45-0.63,0.29-1.04c-0.49,0.15-0.47,0.62-0.66,0.95c-0.12,0.21-0.17,0.45-0.26,0.67
                                                        c-0.82,2.01-1.3,4.11-1.47,6.25c-0.21,2.64-0.35,5.29-0.62,7.94c-0.15,1.45-0.31,2.91-0.42,4.37c-0.16,2.24-0.28,4.48-0.42,6.73
                                                        c-0.04,0.71-0.1,1.43-0.11,2.14c-0.05,4.22-0.33,8.43-0.74,12.63c-0.17,1.73-0.35,3.45-0.54,5.18c-0.1,0.88-0.22,1.76-0.36,2.63
                                                        c-0.37,2.25-0.77,4.5-0.97,6.77c-0.03,0.31-0.05,0.61-0.1,0.91c-0.22,1.21-0.29,2.44-0.35,3.66c-0.07,1.57-0.36,3.11-0.48,4.67
                                                        c-0.07,0.85-0.23,1.69-0.39,2.52c-0.31,1.57-0.6,3.14-0.78,4.73c-0.06,0.51-0.11,1.02-0.2,1.52c-0.5,2.58-0.78,5.18-1.12,7.78
                                                        c-0.19,1.42-0.4,2.83-0.6,4.24c-0.03,0.24-0.06,0.47-0.12,0.7c-0.05,0.22-0.3,0.32-0.51,0.19c-0.61-0.35-1.1-0.78-1.26-1.47
                                                        c-0.07-0.34-0.15-0.67-0.12-1.01c0.1-1.01,0.2-2.03,0.32-3.04c0.1-0.84,0.26-1.68,0.35-2.53c0.23-2.06,0.52-4.12,0.73-6.18
                                                        c0.26-2.6,0.67-5.19,1.02-7.79c0.16-1.21,0.33-2.43,0.5-3.64c0.27-1.89,0.57-3.77,0.81-5.66c0.25-1.92,0.61-3.83,0.81-5.76
                                                        c0.15-1.42,0.35-2.84,0.43-4.26c0.03-0.54,0.06-1.09,0.12-1.63c0.16-1.28,0.42-2.56,0.49-3.84c0.12-2.11,0.39-4.2,0.59-6.3
                                                        c0.06-0.64,0.02-1.29,0.15-1.93c0.12-0.59,0.29-1.19,0.11-1.82c-0.04-0.12-0.01-0.27,0.02-0.41c0.25-1.45,0.21-2.91,0.22-4.37
                                                        c0.01-1.22,0.01-2.45,0.23-3.66c0.08-0.43,0.09-0.88,0.14-1.32c0.05-0.47,0.09-0.95,0.17-1.42c0.16-1.01,0.38-2.01,0.52-3.02
                                                        c0.27-1.99,0.49-3.98,0.74-5.98c0.03-0.2,0.04-0.41,0.09-0.61c0.39-1.93,0.78-3.87,1.2-5.8c0.16-0.73,0.31-1.47,0.59-2.17
                                                        c0.61-1.52,1.31-3.02,1.96-4.53c0.15-0.35,0.37-0.66,0.62-0.95c0.24-0.28,0.42-0.33,0.76-0.16c1.11,0.54,2.3,0.84,3.48,1.18
                                                        c1.04,0.3,2.09,0.59,3.14,0.85c0.6,0.15,1.21,0.22,1.82,0.34c0.26,0.05,0.35,0.22,0.23,0.46c-0.37,0.74-0.69,1.49-0.91,2.29
                                                        c-0.59,2.07-1.09,4.16-1.34,6.29c-0.18,1.52-0.41,3.04-0.5,4.57c-0.2,3.19-0.31,6.39-0.47,9.59c-0.06,1.16-0.1,2.32-0.26,3.46
                                                        c-0.19,1.39-0.26,2.78-0.28,4.17c-0.01,0.48,0.02,0.95,0.02,1.43c-0.04,2.62-0.1,5.24-0.11,7.86c-0.01,3.67,0.27,7.34,0.45,11.01
                                                        c0.14,2.69,0.29,5.37,0.37,8.06c0.08,2.72,0.1,5.44,0.11,8.17c0,1.26-0.04,2.52-0.15,3.77c-0.06,0.71-0.12,1.42-0.12,2.14
                                                        c0,0.37-0.02,0.75-0.03,1.12c-0.03,1.84-0.13,3.67-0.09,5.51c0.05,2.25,0.03,4.49-0.07,6.74c-0.06,1.49-0.23,2.98-0.34,4.48
                                                        c-0.11,1.56-0.21,3.12-0.41,4.68c-0.11,0.91-0.32,1.81-0.29,2.73c0.02,0.5-0.16,1-0.27,1.5c-0.03,0.15-0.16,0.23-0.32,0.24
                                                        c-0.19,0.01-0.36-0.05-0.46-0.22c-0.05-0.09-0.08-0.19-0.08-0.29c0.01-0.68,0.01-1.36,0.05-2.04c0.04-0.78,0.13-1.56,0.17-2.34
                                                        c0.13-2.52,0.07-5.03-0.02-7.55c-0.07-2.04-0.13-4.08-0.02-6.12c0.08-1.36,0.2-2.72,0.01-4.08c-0.03-0.23,0-0.48,0-0.71
                                                        c0-1.26,0.01-2.52-0.02-3.78c-0.04-1.53-0.14-3.06-0.16-4.59c-0.02-1.56,0-3.13,0.05-4.69c0.06-1.77,0.06-3.54,0.3-5.3
                                                        c0.1-0.7,0.06-1.42,0.06-2.14c-0.01-1.6-0.07-3.2,0.29-4.78c0.1-0.43,0.1-0.88,0.14-1.32c0-0.04-0.07-0.12-0.12-0.13
                                                        c-0.05-0.01-0.15,0.02-0.18,0.07c-0.2,0.34-0.23,0.71-0.26,1.08c-0.11,1.52-0.47,3.03-0.28,4.57c0.01,0.07,0,0.14-0.01,0.2
                                                        c-0.08,1.73-0.15,3.47-0.24,5.2c-0.1,1.87-0.24,3.74-0.21,5.61c0.05,3.03,0.14,6.06,0.21,9.09c0.01,0.41,0.02,0.82,0.01,1.22
                                                        c-0.01,1.23,0.02,2.45-0.05,3.67c-0.09,1.7-0.14,3.4-0.12,5.1c0.03,2.08,0.13,4.15,0.15,6.23c0.02,1.36,0.02,2.73-0.09,4.08
                                                        c-0.11,1.36-0.24,2.71-0.32,4.07c-0.02,0.31-0.04,0.61-0.1,0.91c-0.03,0.16-0.1,0.35-0.22,0.45c-0.53,0.4-1.12,0.63-1.82,0.4
                                                        c-0.36-0.12-0.63-0.34-0.89-0.58c-0.34-0.31-0.67-0.63-1.05-0.89c-0.44-0.3-0.92-0.53-1.38-0.79c-0.03-0.57,0.39-1,0.52-1.52
                                                        c0.59-2.3,0.68-4.65,0.83-6.99c0.17-2.68,0.02-5.38,0.41-8.05c0.23-1.58,0.21-3.19,0.5-4.77c0.18-0.97,0.29-1.95,0.37-2.94
                                                        c0.17-1.9,0.33-3.79,0.47-5.69c0.16-2.24,0.48-4.46,0.84-6.68c0.1-0.64,0.25-1.27,0.24-1.92c-0.03-1.13,0.11-2.24,0.22-3.36
                                                        c0.07-0.71,0.18-1.42,0.26-2.13c0.21-1.76,0.37-3.52,0.63-5.27c0.21-1.39,0.17-2.78,0.26-4.17c0.05-0.81,0.01-1.63,0.05-2.45
                                                        c0.06-1.22,0.18-2.44,0.23-3.67c0.07-1.56,0.1-3.13,0.15-4.69c0.04-1.26,0.14-2.52,0.11-3.78c-0.07-2.49,0.1-4.97,0.24-7.44
                                                        c0.07-1.36,0.25-2.71,0.35-4.07c0.2-2.55,0.16-5.1,0.22-7.65c0.04-1.8,0.02-3.61,0.39-5.39c0.18-0.87,0.38-1.73,0.6-2.58
                                                        c0.18-0.73,0.36-1.46,0.66-2.15c0.05-0.12-0.01-0.28-0.14-0.36c-0.18-0.1-0.26,0.04-0.31,0.17c-0.09,0.22-0.19,0.44-0.26,0.67
                                                        c-0.27,0.95-0.53,1.91-0.79,2.86c-0.2,0.73-0.28,1.47-0.34,2.22c-0.04,0.61-0.14,1.22-0.19,1.83c-0.04,0.44-0.09,0.89-0.05,1.32
                                                        c0.08,0.89,0.04,1.77,0,2.65c-0.04,0.88-0.1,1.77-0.09,2.65c0.02,0.92-0.05,1.84-0.12,2.75c-0.19,2.54-0.48,5.08-0.54,7.63
                                                        c-0.09,3.5-0.21,7.01-0.33,10.51c-0.05,1.6-0.07,3.2-0.21,4.79c-0.09,1.05-0.16,2.1-0.15,3.16c0.01,0.31-0.02,0.61-0.02,0.92
                                                        c-0.08,2.9-0.55,5.75-0.89,8.62c-0.2,1.69-0.42,3.38-0.55,5.07c-0.13,1.63-0.19,3.26-0.5,4.87c-0.21,1.1-0.32,2.22-0.42,3.34
                                                        c-0.17,1.8-0.28,3.59-0.43,5.39c-0.11,1.29-0.14,2.59-0.37,3.86c-0.4,2.25-0.46,4.53-0.8,6.79c-0.29,1.95-0.23,3.94-0.2,5.91
                                                        c0.01,0.37,0.03,0.75-0.03,1.12c-0.21,1.28-0.26,2.57-0.34,3.86c-0.06,0.85-0.19,1.69-0.35,2.53c-0.16,0.87-0.6,1.59-1.23,2.23
                                                        c-0.33,0.34-0.73,0.46-1.18,0.31c-0.39-0.13-0.52-0.5-0.53-0.83c-0.02-0.64-0.08-1.31,0.07-1.93c0.19-0.79,0.33-1.6,0.56-2.38
                                                        c0.79-2.6,1.04-5.28,1.35-7.94c0.28-2.46,0.38-4.95,0.62-7.42c0.07-0.71,0.29-1.4,0.32-2.11c0.05-1.19,0.15-2.37,0.37-3.55
                                                        c0.07-0.4,0.09-0.81,0.12-1.22c0.14-2.1,0.27-4.21,0.42-6.32c0.06-0.88,0.2-1.76,0.2-2.65c0.01-2.56,0.33-5.09,0.67-7.62
                                                        c0.34-2.6,0.5-5.21,0.6-7.83c0.14-3.74,0.23-7.48,0.3-11.22c0-0.17,0.05-0.34-0.07-0.49c-0.04-0.05-0.11-0.1-0.17-0.11
                                                        c-0.06-0.01-0.16,0.02-0.19,0.06c-0.07,0.11-0.14,0.24-0.15,0.37c-0.05,0.75-0.08,1.49-0.12,2.24c-0.05,1.02-0.06,2.04-0.18,3.05
                                                        c-0.19,1.69-0.49,3.37-0.68,5.06c-0.32,2.98-0.59,5.96-0.89,8.93c-0.23,2.37-0.52,4.74-0.7,7.11c-0.21,2.79-0.67,5.53-1.27,8.26
                                                        c-0.27,1.23-0.5,2.47-0.7,3.71c-0.18,1.14-0.29,2.29-0.53,3.43c-0.24,1.13-0.43,2.28-0.62,3.42c-0.12,0.74-0.24,1.48-0.31,2.22
                                                        c-0.11,1.29-0.15,2.58-0.27,3.87c-0.16,1.73-0.22,3.46-0.25,5.2c-0.02,1.05,0.03,2.11,0.05,3.16c0,0.27-0.01,0.54-0.04,0.81
                                                        c-0.02,0.17-0.29,0.27-0.42,0.16c-0.16-0.13-0.32-0.28-0.45-0.44c-0.83-1.05-1.21-2.24-1.17-3.54c0.04-1.4,0.19-2.78,0.35-4.17
                                                        c0.21-1.83,0.53-3.64,0.8-5.45c0.08-0.57,0.19-1.14,0.34-1.7c0.58-2.25,1.03-4.52,1.32-6.82c0.32-2.53,0.56-5.07,0.85-7.61
                                                        c0.12-1.08,0.22-2.17,0.46-3.23c0.35-1.6,0.52-3.23,0.75-4.84c0.35-2.43,0.56-4.87,0.84-7.3c0.28-2.5,0.31-5.02,0.49-7.54
                                                        c0.13-1.86,0.16-3.74,0.23-5.61c0.05-1.12,0.08-2.24,0.18-3.36c0.18-2.17,0.42-4.33,0.6-6.5c0.12-1.42,0.16-2.85,0.15-4.28
                                                        c-0.01-1.83,0.03-3.67,0.24-5.5c0.13-1.12,0.1-2.24,0.2-3.36c0.13-1.42,0.39-2.83,0.66-4.24c0.35-1.87,0.85-3.72,1.11-5.61
                                                        c0.08-0.57,0.17-1.16,0.39-1.69c0.57-1.39,0.92-2.87,1.93-4.08c0.07-0.08,0.05-0.22-0.07-0.25c-0.09-0.03-0.23,0-0.29,0.05
                                                        c-0.33,0.32-0.56,0.71-0.73,1.12c-0.33,0.79-0.64,1.59-0.95,2.39c-0.45,1.15-0.67,2.36-0.91,3.56c-0.28,1.4-0.51,2.81-0.76,4.22
                                                        c-0.25,1.41-0.57,2.81-0.72,4.23c-0.2,1.83-0.28,3.66-0.39,5.5c-0.14,2.38-0.02,4.76-0.26,7.14c-0.01,0.13,0,0.27-0.01,0.41
                                                        c-0.08,1.22-0.11,2.45-0.27,3.66c-0.34,2.54-0.43,5.08-0.55,7.63c-0.16,3.43-0.25,6.87-0.59,10.29c-0.24,2.4-0.46,4.81-0.72,7.21
                                                        c-0.22,2.03-0.48,4.05-0.73,6.08c-0.02,0.13-0.06,0.27-0.08,0.4c-0.39,1.83-0.63,3.69-0.86,5.54c-0.18,1.42-0.27,2.85-0.44,4.26
                                                        c-0.27,2.23-0.72,4.44-1.17,6.64c-0.25,1.2-0.51,2.4-0.72,3.61c-0.45,2.59-0.81,5.18-1.1,7.79c-0.11,0.95-0.12,1.9,0.02,2.85
                                                        c0.21,1.4,1.11,2.42,2.1,3.39c0.21,0.21,0.56,0.13,0.76-0.11c0.14-0.17,0.2-0.36,0.2-0.57c0-0.48,0-0.95-0.01-1.43
                                                        c-0.03-2.35-0.1-4.69,0.14-7.03c0.06-0.58,0.07-1.15,0.11-1.73c0.16-2.55,0.48-5.08,0.99-7.59c0.26-1.27,0.4-2.55,0.6-3.83
                                                        c0.18-1.14,0.34-2.29,0.55-3.43c0.24-1.3,0.55-2.6,0.81-3.9c0.5-2.51,0.72-5.05,1.02-7.59c0.12-1.08,0.12-2.17,0.2-3.26
                                                        c0.11-1.39,0.25-2.78,0.37-4.17c0.17-1.86,0.34-3.72,0.52-5.58c0.01-0.13,0.01-0.27,0.2-0.41c0.18,0.28,0.15,0.52,0.14,0.75
                                                        c-0.02,0.34-0.05,0.68-0.03,1.02c0.05,0.58-0.01,1.15-0.08,1.73c-0.05,0.44-0.07,0.88-0.1,1.32c-0.02,0.31,0.01,0.61-0.03,0.92
                                                        c-0.21,1.79-0.39,3.59-0.68,5.37c-0.21,1.32-0.26,2.64-0.31,3.96c-0.01,0.34-0.02,0.68-0.05,1.02c-0.16,2.34-0.31,4.68-0.47,7.02
                                                        c-0.1,1.43-0.2,2.85-0.34,4.27c-0.19,1.9-0.43,3.79-0.63,5.68c-0.13,1.25-0.18,2.51-0.31,3.76c-0.17,1.59-0.42,3.17-0.56,4.76
                                                        c-0.1,1.12-0.34,2.22-0.46,3.34c-0.03,0.3-0.15,0.59-0.23,0.89c-0.11,0.39-0.22,0.79-0.31,1.18c-0.23,1-0.44,2-0.66,2.99
                                                        c-0.13,0.57-0.15,1.15-0.05,1.72c0.04,0.23,0.12,0.47,0.23,0.67c0.3,0.53,0.72,0.7,1.36,0.57c0.18-0.04,0.36-0.07,0.52-0.13
                                                        c0.75-0.27,1.43-0.1,2.07,0.28c0.3,0.18,0.58,0.42,0.84,0.65c0.37,0.33,0.79,0.61,1.22,0.87c0.22,0.13,0.45,0.24,0.71,0.22
                                                        c1.1-0.08,2.06-0.38,2.52-1.44c0.09-0.21,0.09-0.54,0.44-0.47c0.24,0.05,0.19,0.34,0.22,0.53c0.04,0.2,0.03,0.41,0.05,0.61
                                                        c0.07,0.75,0.35,0.96,1.13,0.86c0.07-0.01,0.14-0.02,0.21-0.04c0.77-0.24,1.58-0.21,2.37-0.31c0.47-0.06,0.94-0.01,1.4,0.12
                                                        c0.42,0.12,0.84,0.23,1.25,0.38c0.8,0.29,1.62,0.39,2.46,0.35c0.66-0.04,1.3,0.01,1.95,0.16c0.56,0.14,1.14,0.2,1.73,0.16
                                                        c0.36-0.03,0.67-0.12,0.82-0.42c0.23-0.46,0.6-0.52,1.08-0.48c0.82,0.07,1.58-0.16,2.31-0.49c0.46-0.21,0.76-0.27,1.31-0.23
                                                        c0.17,0.01,0.36-0.03,0.53-0.09c0.45-0.15,0.82-0.42,1.16-0.74c0.49-0.47,0.86-1.01,1.09-1.63c0.15-0.4,0.42-0.71,0.71-1.01
                                                        c0.38-0.38,0.78-0.3,1.03,0.17c0.22,0.43,0.41,0.87,0.67,1.28c0.43,0.68,1.09,0.92,1.74,0.68c0.9-0.34,1.24-0.84,1.11-1.64
                                                        c-0.06-0.34-0.13-0.67-0.21-1c-0.06-0.26-0.05-0.46,0.29-0.54c0.53-0.12,0.76-0.51,0.86-0.96c0.11-0.46,0.16-0.94,0.23-1.41
                                                        c0.03-0.24,0.05-0.47,0.1-0.71c0.04-0.18,0.17-0.32,0.35-0.35c0.41-0.06,0.83-0.16,1.22,0c0-0.01,0-0.02,0-0.03
                                                        c0.05-0.31,0.11-0.6,0.2-0.88C49.65,119.44,49.63,119.29,49.66,119.11z M36.84,17.75c-1.03-0.19-2.1-0.22-3.08-0.62
                                                        c-0.23-0.09-0.5-0.09-0.75-0.12c-0.37-0.04-0.69-0.16-0.97-0.37c0.08-0.36,0.35-0.54,0.58-0.75c0.46-0.42,1.03-0.76,1.17-1.42
                                                        c0.03-0.14,0.22-0.26,0.37-0.35c0.18-0.12,0.38-0.19,0.57-0.3c0.88-0.5,1.23-0.83,1.03-0.85c-0.51-0.06-0.83,0.33-1.24,0.51
                                                        c-0.33,0.14-0.63,0.34-0.94,0.51c-0.54,0.29-0.66,0.29-0.66-0.37c0-0.05-0.07-0.13-0.12-0.14c-0.06-0.01-0.15,0.03-0.18,0.08
                                                        c-0.27,0.46-0.45,0.94-0.15,1.44c0.14,0.24,0.07,0.38-0.11,0.52c-0.33,0.26-0.69,0.49-0.89,0.87c-0.09,0.17-0.3,0.17-0.48,0.16
                                                        c-0.62-0.04-1.23-0.08-1.85-0.12c-1.6-0.1-3.19-0.2-4.79-0.3c-0.18-0.01-0.36,0-0.55-0.01c-0.32-0.02-0.67,0.01-0.96-0.15
                                                        c-0.34-0.19-0.17-0.56-0.29-0.84c-0.21-0.47-0.37-0.96-0.55-1.44c-0.33-0.86-0.66-1.72-1.08-2.8c-0.04,0.59,0.05,0.93,0.16,1.27
                                                        c0.22,0.65,0.44,1.3,0.65,1.95c0.04,0.13,0.05,0.27,0.07,0.4c0,0.03-0.03,0.07-0.06,0.08c-0.06,0.01-0.16,0.04-0.19,0.01
                                                        c-0.23-0.21-0.46-0.44-0.67-0.67c-0.21-0.23-0.41-0.48-0.62-0.71c-0.02-0.02-0.09-0.03-0.1-0.02c-0.04,0.05-0.1,0.11-0.09,0.16
                                                        c0.08,0.3,0.3,0.54,0.5,0.78c0.4,0.48,0.82,0.96,1.22,1.45c0.29,0.35,0.2,0.54-0.3,0.57c-0.51,0.03-1.02,0.04-1.52,0.04
                                                        c-0.28,0-0.5-0.07-0.52-0.39c-0.01-0.21-0.11-0.4-0.26-0.55c-0.55-0.54-1.11-1.08-1.67-1.62c-0.04-0.03-0.13-0.02-0.3-0.04
                                                        c0.33,0.47,0.65,0.87,1.01,1.24c0.3,0.31,0.55,0.64,0.67,1.04l0-0.01c0.22,0.06,0.18,0.2,0.07,0.3c-0.07,0.06-0.2,0.08-0.3,0.09
                                                        c-0.36,0.04-0.73,0.05-1.08,0.1c-0.61,0.08-1.21,0.24-1.67-0.37c-0.1-0.14-0.39-0.17-0.59-0.24c-0.38-0.12-0.73-0.3-1.08-0.49
                                                        c-1.31-0.74-1.92-1.94-2.35-3.22c-0.19-0.55-0.23-1.14-0.32-1.71c-0.07-0.45,0.08-0.88,0.28-1.28c0.28-0.59,0.55-1.18,0.86-1.76
                                                        c0.21-0.41,0.59-0.68,1.04-0.86c0.2-0.08,0.43,0.06,0.47,0.29c0.06,0.37,0.09,0.74,0.17,1.11c0.05,0.23,0.17,0.44,0.28,0.66
                                                        c0.02,0.05,0.12,0.11,0.17,0.1c0.13-0.03,0.12-0.14,0.1-0.23c-0.08-0.37-0.19-0.73-0.25-1.1c-0.03-0.2,0.01-0.4,0.04-0.6
                                                        c0.03-0.16,0.27-0.25,0.43-0.19c0.32,0.12,0.52,0.36,0.75,0.59c0.4,0.39,0.78,0.79,1.17,1.18c0.26-0.15,0.12-0.28,0.05-0.36
                                                        c-0.33-0.41-0.65-0.82-1.03-1.2c-0.54-0.54-0.36-0.78,0.26-0.85c1.68-0.2,3.32-0.14,4.91,0.51c1.07,0.43,2.18,0.77,3.27,1.15
                                                        c0.1,0.04,0.21,0.06,0.32,0.06c1.45,0.09,2.91,0.16,4.32-0.28c2.18-0.68,4.41-1.07,6.73-1.03c0.22,0,0.44,0.01,0.65,0.03
                                                        c0.25,0.03,0.54-0.01,0.69,0.23c0.19,0.29-0.17,0.4-0.28,0.58C36.86,7.2,36.78,7.3,36.7,7.42c0.26,0.13,0.36-0.06,0.5-0.14
                                                        c0.25-0.15,0.51-0.25,0.81-0.26c0.51-0.01,0.77,0.34,0.51,0.74c-0.37,0.58-0.86,1.09-1.35,1.59c-0.25,0.26-0.61,0.45-0.75,0.93
                                                        c0.57-0.18,0.86-0.54,1.15-0.86c0.52-0.56,1.01-1.15,1.52-1.73c0.24-0.28,0.45-0.31,0.73-0.09c1.2,0.97,2.09,2.48,1.5,4.3
                                                        c-0.07,0.23-0.15,0.45-0.21,0.68c-0.27,0.98-0.8,1.81-1.52,2.55c-0.65,0.67-1.38,1.29-1.77,2.17
                                                        C37.66,17.7,37.3,17.83,36.84,17.75z M32.52,129.4c-0.11,0-0.22,0.01-0.33-0.01c-1.07-0.23-2.16-0.26-3.25-0.26
                                                        c-0.74,0-1.47-0.15-2.12-0.42c-1.24-0.51-2.49-0.39-3.75-0.24c-0.43,0.05-0.86,0.15-1.29,0.2c-0.48,0.06-0.82-0.23-0.7-0.66
                                                        c0.21-0.74,0.13-1.49,0.22-2.23c0.14-1.15,0.25-2.3,0.43-3.44c0.14-0.91,0.25-1.82,0.31-2.74c0.14-2.24,0.33-4.48,0.43-6.72
                                                        c0.11-2.62,0.16-5.23,0.11-7.86c-0.05-2.86,0.07-5.71,0.27-8.56c0.2-2.85,0.15-5.71,0-8.57c-0.09-1.77-0.07-3.54-0.11-5.3
                                                        c-0.02-0.99-0.07-1.97-0.11-2.96c-0.08-1.9-0.17-3.81-0.26-5.71c-0.03-0.65-0.07-1.29-0.12-1.94c-0.29-3.74-0.22-7.48-0.16-11.22
                                                        c0.02-1.6,0.03-3.2,0.05-4.79c0.01-0.95,0.13-1.9,0.26-2.84c0.13-1.01,0.2-2.03,0.25-3.05c0.18-3.5,0.33-7,0.5-10.5
                                                        c0.04-0.75,0.13-1.49,0.24-2.23c0.12-0.84,0.17-1.69,0.26-2.54c0.21-1.9,0.67-3.74,1.19-5.58c0.26-0.9,0.67-1.72,1.12-2.53
                                                        c0.07-0.13,0.16-0.24,0.31-0.25c0.36-0.01,0.73-0.01,1.09,0.01c0.15,0.01,0.26,0.12,0.33,0.25c0.2,0.36,0.41,0.71,0.53,1.11
                                                        c0.64,2.07,0.93,4.2,1.19,6.33c0.01,0.07,0,0.14,0.02,0.2c0.42,2.2,0.29,4.41,0.23,6.62c-0.03,1.22-0.09,2.45-0.28,3.55
                                                        c-0.12,1.43-0.15,2.76-0.14,4.09c0.01,1.05-0.02,2.11-0.01,3.16c0.01,0.88,0.09,1.77,0.05,2.65c-0.11,2.45,0.12,4.9,0.15,7.35
                                                        c0.02,2.07,0.16,4.14,0.27,6.22c0.06,1.09,0.16,2.17,0.23,3.26c0.06,0.95,0.09,1.9,0.16,2.85c0.25,3.19,0.15,6.39,0.21,9.59
                                                        c0.04,1.84,0.14,3.67,0.2,5.51c0.15,4.35,0.48,8.7,0.32,13.06c-0.04,1.19-0.07,2.38-0.13,3.57c-0.11,2.38,0.01,4.76,0.25,7.13
                                                        c0.17,1.66,0.28,3.32,0.47,4.98c0.29,2.47,0.46,4.95,0.97,7.39c0.23,1.1,0.38,2.22,0.56,3.33c0.02,0.1,0.03,0.2,0.03,0.3
                                                        C33,129.24,32.83,129.4,32.52,129.4z M45.53,126.44c-0.39,0.22-0.8,0.19-1.08-0.14c-0.25-0.29-0.46-0.62-0.63-0.95
                                                        c-0.54-1.09-0.92-2.22-1.12-3.41c-0.37-2.19-0.8-4.36-1.18-6.55c-0.32-1.88-0.59-3.77-0.9-5.65c-0.3-1.82-0.64-3.63-0.94-5.44
                                                        c-0.3-1.85-0.58-3.7-0.87-5.56c-0.37-2.43-0.75-4.85-1.1-7.28c-0.3-2.09-0.59-4.18-0.8-6.28c-0.22-2.2-0.39-4.41-0.5-6.62
                                                        c-0.12-2.55-0.21-5.1-0.19-7.65c0.01-1.39-0.09-2.79-0.12-4.18c-0.03-1.26-0.02-2.52-0.1-3.78c-0.18-2.75-0.29-5.51-0.47-8.26
                                                        c-0.12-1.9-0.27-3.8-0.22-5.71c0-0.03,0-0.07,0-0.1c-0.14-2-0.17-4.01-0.13-6.02c0.05-2.18-0.24-4.35-0.68-6.49
                                                        c-0.19-0.93-0.45-1.86-0.67-2.79c-0.06-0.23-0.14-0.46-0.16-0.7c-0.09-0.99-0.4-1.94-0.67-2.89c-0.07-0.26-0.13-0.53-0.17-0.8
                                                        c-0.05-0.33-0.16-0.66-0.25-0.99c-0.01-0.04-0.11-0.09-0.17-0.09c-0.05,0-0.13,0.08-0.13,0.12c0.01,0.17,0.03,0.34,0.07,0.5
                                                        c0.57,2.6,1.18,5.19,1.71,7.8c0.53,2.62,0.75,5.27,0.6,7.93c-0.06,1.09,0.02,2.18,0.07,3.26c0.02,0.51,0.08,1.02,0.08,1.53
                                                        c0.01,2.04,0.16,4.08,0.29,6.12c0.11,1.66,0.17,3.33,0.26,4.99c0.04,0.85,0.09,1.7,0.13,2.55c0.12,2.79,0.19,5.58,0.24,8.37
                                                        c0.04,2.14,0.09,4.28,0.21,6.43c0.18,3.16,0.43,6.32,0.77,9.46c0.21,1.93,0.52,3.85,0.78,5.77c0.2,1.45,0.4,2.9,0.61,4.35
                                                        c0.1,0.71,0.26,1.41,0.37,2.11c0.35,2.19,0.67,4.38,1.02,6.56c0.49,3,1.03,5.98,1.5,8.98c0.42,2.73,0.86,5.45,1.49,8.15
                                                        c0.04,0.17,0.05,0.34,0.08,0.5c0.07,0.31-0.07,0.51-0.36,0.66c-0.56,0.28-0.78,0.23-0.96-0.34c-0.99-3.14-2.16-6.23-2.84-9.44
                                                        c-0.26-1.23-0.42-2.49-0.59-3.73c-0.12-0.88-0.18-1.76-0.27-2.64c-0.13-1.32-0.33-2.64-0.39-3.96c-0.1-2.24-0.51-4.47-0.49-6.72
                                                        c0-0.1,0.01-0.21-0.01-0.31c-0.33-1.47-0.39-2.97-0.54-4.46c-0.17-1.69-0.48-3.37-0.73-5.06c-0.03-0.17-0.09-0.34-0.09-0.5
                                                        c0.03-1.51-0.36-2.97-0.57-4.46c-0.04-0.3-0.05-0.61-0.07-0.92c-0.01-0.2,0.03-0.41-0.02-0.61c-0.35-1.71-0.4-3.45-0.61-5.17
                                                        c-0.01-0.07-0.01-0.14-0.05-0.2c-0.07-0.12-0.14-0.24-0.33-0.2c-0.12,0.03-0.18,0.11-0.18,0.22c-0.01,0.13-0.01,0.27,0.01,0.41
                                                        c0.25,1.89,0.6,3.78,0.72,5.67c0.14,2.15,0.62,4.25,0.85,6.38c0.14,1.32,0.45,2.62,0.64,3.93c0.14,0.98,0.2,1.96,0.3,2.95
                                                        c0.15,1.42,0.32,2.84,0.33,4.28c0,0.81,0.14,1.63,0.21,2.44c0.15,1.63,0.3,3.26,0.45,4.88c0.25,2.61,0.48,5.22,0.97,7.8
                                                        c0.24,1.27,0.55,2.54,0.93,3.78c0.64,2.1,1.35,4.17,2.04,6.26c0.39,1.19-0.43,2.76-1.66,3.17c-0.53,0.18-1.1-0.13-1.21-0.65
                                                        c-0.08-0.37-0.13-0.74-0.12-1.11c0.02-1.53-0.15-3.06-0.44-4.57c-0.37-1.88-0.77-3.75-1.15-5.62c-0.25-1.21-0.26-2.44-0.29-3.66
                                                        c-0.04-1.77-0.12-3.54-0.28-5.3c-0.13-1.39-0.33-2.77-0.49-4.16c-0.19-1.66-0.37-3.32-0.56-4.97c-0.1-0.88-0.22-1.76-0.36-2.63
                                                        c-0.29-1.85-0.51-3.71-0.57-5.58c-0.04-1.46-0.22-2.91-0.3-4.37c-0.11-1.97-0.17-3.94-0.27-5.92c-0.06-1.16-0.03-2.31-0.06-3.47
                                                        c-0.02-1.05-0.06-2.11-0.13-3.16c-0.05-0.78-0.02-1.56-0.03-2.35C33,69,33.01,67.78,32.94,66.55c-0.06-1.05-0.21-2.1-0.33-3.15
                                                        c-0.13-1.15-0.26-2.3-0.41-3.45c-0.15-1.18-0.36-2.36-0.5-3.54c-0.12-1.05-0.26-2.09-0.24-3.15c0-0.27-0.02-0.54-0.05-0.82
                                                        c-0.08-0.78-0.06-1.56,0.07-2.34c0.03-0.2,0.06-0.4,0.04-0.6c-0.02-0.13-0.14-0.26-0.3-0.23c-0.08,0.01-0.19,0.11-0.21,0.19
                                                        c-0.05,0.16-0.06,0.33-0.06,0.5c0,1.63,0.04,3.26,0.24,4.89c0.14,1.18,0.13,2.38,0.34,3.56c0.47,2.55,0.65,5.14,0.89,7.71
                                                        c0.08,0.88,0.07,1.77,0.08,2.65c0.02,1.53-0.01,3.06,0.03,4.59c0.06,2.28,0.13,4.56,0.24,6.84c0.05,0.99,0.05,1.97,0.11,2.96
                                                        c0.11,2.01,0.24,4.01,0.38,6.01c0.15,2.17,0.43,4.33,0.71,6.5c0.26,2.03,0.56,4.05,0.7,6.09c0.1,1.36,0.3,2.71,0.47,4.06
                                                        c0.23,1.83,0.33,3.66,0.36,5.5c0.03,1.83,0.07,3.67,0.52,5.48c0.56,2.26,0.92,4.55,1.23,6.85c0.14,1.08,0.18,2.17,0.2,3.26
                                                        c0.02,0.99-0.21,1.22-1.2,1.56c-0.5,0.17-1.02,0.2-1.5,0.04c-0.42-0.14-0.68-0.14-0.86,0.28c-0.06,0.14-0.29,0.09-0.34-0.04
                                                        c-0.01-0.03-0.04-0.06-0.04-0.09c-0.32-1.57-0.73-3.13-0.9-4.72c-0.1-0.91-0.24-1.82-0.34-2.74c-0.2-2-0.38-4-0.58-6
                                                        c-0.16-1.59-0.33-3.18-0.51-4.77c-0.05-0.44-0.06-0.88-0.06-1.32c0-0.92-0.06-1.84-0.04-2.76c0.05-1.84,0.12-3.67,0.21-5.51
                                                        c0.07-1.43,0.08-2.86,0.02-4.29c-0.13-3.03-0.25-6.05-0.38-9.08c-0.07-1.67-0.16-3.33-0.21-5c-0.02-0.68,0.07-1.36,0.07-2.04
                                                        c-0.01-1.56-0.12-3.13-0.03-4.69c0.01-0.14,0.01-0.27-0.01-0.41c-0.35-2.23-0.33-4.48-0.47-6.72c-0.13-2.17-0.24-4.35-0.35-6.52
                                                        c-0.03-0.68-0.04-1.36-0.06-2.04c-0.06-2.04-0.15-4.08-0.17-6.12c-0.02-1.77,0.01-3.54,0.04-5.31c0.01-0.71,0.04-1.43-0.03-2.14
                                                        c-0.03-0.34-0.02-0.68,0.03-1.02c0.2-1.38,0.25-2.77,0.32-4.17c0.06-1.19,0.09-2.38,0.18-3.56c0.06-0.79-0.03-1.57-0.13-2.34
                                                        c-0.19-1.49-0.42-2.97-0.66-4.45c-0.17-1.08-0.39-2.15-0.77-3.18c-0.13-0.35-0.21-0.72-0.32-1.09c0.34-0.21,0.6-0.21,0.85-0.22
                                                        c0.99-0.01,1.95-0.18,2.9-0.4c0.14-0.03,0.28-0.07,0.43-0.09c0.41-0.06,0.52-0.02,0.71,0.3c0.24,0.42,0.45,0.86,0.59,1.32
                                                        c0.63,2.14,1.11,4.3,1.31,6.51c0.06,0.64,0.22,1.28,0.3,1.92c0.19,1.55,0.35,3.11,0.55,4.67c0.11,0.81,0.04,1.63,0.16,2.44
                                                        c0.23,1.59,0.39,3.18,0.55,4.77c0.22,2.14,0.32,4.28,0.32,6.42c0,0.99,0.06,1.97,0.07,2.96c0.03,2.18,0.03,4.35,0.08,6.53
                                                        c0.03,1.36,0.13,2.72,0.2,4.08c0.11,2.14,0.18,4.29,0.33,6.42c0.12,1.7,0.34,3.39,0.49,5.08c0.13,1.53,0.26,3.05,0.35,4.58
                                                        c0.13,2.41,0.34,4.82,0.69,7.22c0.21,1.45,0.38,2.9,0.58,4.35c0.1,0.71,0.22,1.41,0.36,2.12c0.35,1.84,0.7,3.69,1.08,5.53
                                                        c0.48,2.35,0.79,4.7,0.88,7.09c0.06,1.53,0.19,3.07,0.64,4.55c0.75,2.45,1.28,4.97,2.29,7.35c0.32,0.76,0.57,1.55,0.82,2.33
                                                        c0.1,0.32,0.14,0.67,0.18,1C46.12,125.94,45.9,126.23,45.53,126.44z M48.37,119.75c-0.87,0.2-1.08,0.42-1.13,1.24
                                                        c-0.04,0.58-0.06,1.16-0.13,1.73c-0.04,0.35-0.24,0.41-0.61,0.32c-0.46-0.12-0.7-0.37-0.86-0.8c-0.74-1.96-1.28-3.97-1.91-5.97
                                                        c-0.56-1.78-0.9-3.57-1-5.41c-0.07-1.32-0.19-2.65-0.32-3.97c-0.16-1.52-0.46-3.03-0.83-4.52c-0.37-1.49-0.61-3.01-0.91-4.51
                                                        c-0.22-1.07-0.4-2.14-0.57-3.22c-0.09-0.61-0.11-1.22-0.19-1.83c-0.15-1.11-0.35-2.22-0.46-3.34c-0.15-1.42-0.22-2.85-0.34-4.27
                                                        c-0.23-2.71-0.22-5.44-0.57-8.15c-0.29-2.23-0.46-4.47-0.5-6.72c-0.03-1.7-0.16-3.4-0.24-5.1c-0.03-0.61-0.04-1.22-0.05-1.84
                                                        c-0.04-2.42-0.08-4.83-0.1-7.25c-0.02-2.52-0.08-5.04-0.3-7.55c-0.17-1.86-0.44-3.72-0.64-5.58c-0.12-1.12-0.21-2.24-0.29-3.36
                                                        c-0.12-1.67-0.37-3.32-0.62-4.97c-0.2-1.35-0.4-2.7-0.6-4.04c-0.03-0.17-0.03-0.35-0.1-0.5c-0.37-0.75-0.4-1.59-0.74-2.34
                                                        c-0.23-0.51-0.24-1.06-0.38-1.59c-0.07-0.27,0.05-0.47,0.3-0.59c0.71-0.34,1.42-0.68,2.14-1c0.32-0.14,0.55-0.05,0.71,0.27
                                                        c0.14,0.27,0.26,0.56,0.35,0.86c0.58,1.94,1.08,3.88,1.34,5.89c0.22,1.66,0.34,3.32,0.53,4.97c0.26,2.16,0.6,4.32,0.87,6.48
                                                        c0.17,1.32,0.24,2.64,0.42,3.96c0.24,1.75,0.27,3.53,0.62,5.27c0.07,0.33,0.13,0.67,0.14,1.01c0.04,1.29,0.22,2.57,0.4,3.85
                                                        c0.08,0.57,0.11,1.15,0.15,1.73c0.14,1.97,0.26,3.94,0.41,5.91c0.08,0.98,0.21,1.96,0.32,2.94c0.2,1.8,0.13,3.6,0.18,5.4
                                                        c0.03,1.26-0.01,2.52,0.01,3.78c0.01,0.78,0.03,1.57,0.1,2.35c0.18,2,0.36,4,0.6,6c0.14,1.22,0.37,2.43,0.58,3.64
                                                        c0.45,2.62,0.98,5.23,1.3,7.86c0.13,1.01,0.33,2.02,0.52,3.03c0.3,1.61,0.56,3.22,0.71,4.85c0.07,0.85-0.04,1.7,0.14,2.55
                                                        c0.28,1.33,0.51,2.68,0.97,3.98c0.34,0.94,0.74,1.85,0.94,2.83c0.05,0.27,0.09,0.54,0.11,0.62c0.01,0.44-0.14,0.64-0.25,0.85
                                                        c-0.3,0.59-0.3,1.18,0.02,1.77c0.29,0.52,0.48,1.07,0.48,1.66C49.07,119.5,48.97,119.62,48.37,119.75z"></path>
                                                    <path class="st6 color-main-fill" d="M28.12,77.5c0.02,1.26,0.01,2.52,0.06,3.78c0.12,3.09,0.28,6.19,0.41,9.28c0.07,1.6,0.09,3.2,0.14,4.79
                                                        c0.05,1.56,0.11,3.13,0.16,4.69c0.03,0.85,0.06,1.7,0.08,2.55c0.04,1.36,0.08,2.72,0.1,4.08c0.03,2.96,0.03,5.92,0.08,8.88
                                                        c0.03,2.01,0.13,4.01,0.19,6.02c0.01,0.44-0.01,0.88-0.02,1.33c0,0.15-0.1,0.27-0.25,0.29c-0.17,0.02-0.25-0.11-0.26-0.26
                                                        c-0.01-0.2-0.01-0.41-0.01-0.61c-0.01-0.78-0.01-1.57-0.02-2.35c-0.04-3.67-0.07-7.35-0.13-11.02c-0.03-1.87-0.11-3.74-0.16-5.61
                                                        c-0.04-1.43-0.04-2.86-0.09-4.29c-0.1-3.16-0.09-6.33-0.3-9.49c-0.2-3.02-0.31-6.05-0.36-9.08c-0.02-1.77-0.03-3.54-0.1-5.31
                                                        c-0.05-1.26-0.2-2.51-0.31-3.77c-0.03-0.37-0.09-0.74-0.09-1.12c0-1.98-0.23-3.94-0.44-5.9c-0.16-1.56-0.26-3.12-0.37-4.68
                                                        c-0.05-0.71-0.05-1.43-0.14-2.14c-0.06-0.48-0.06-0.95-0.05-1.42c0.01-0.2-0.06-0.54,0.14-0.55c0.39-0.01,0.2,0.35,0.21,0.54
                                                        c0.05,0.82,0.04,1.63,0.1,2.45c0.07,1.08,0.17,2.17,0.28,3.25c0.18,1.79,0.34,3.59,0.57,5.38c0.13,0.95,0.08,1.9,0.16,2.85
                                                        c0.08,1.05,0.23,2.1,0.3,3.15c0.09,1.43,0.13,2.85,0.19,4.28C28.16,77.5,28.14,77.5,28.12,77.5z"></path>
                                                    <path class="st6 color-main-fill" d="M24.48,123.75c-0.26-0.36-0.23-0.73-0.22-1.1c0.04-1.53,0.07-3.06,0.09-4.59c0.04-2.82,0.15-5.64,0.04-8.47
                                                        c-0.05-1.29-0.16-2.58-0.16-3.88c0-2.45-0.1-4.9-0.11-7.35c0-1.39-0.11-2.79,0-4.18c0.11-1.53,0.24-3.05,0.36-4.58
                                                        c0.07-0.88,0.16-1.76,0.21-2.65c0.08-1.36,0.36-2.7,0.32-4.07c-0.1-2.92,0.12-5.85-0.07-8.77c-0.1-1.56-0.2-3.13-0.1-4.69
                                                        c0.04-0.61-0.04-1.22-0.05-1.84c0-0.17-0.02-0.34,0.11-0.48c0.02-0.02,0.06-0.05,0.09-0.04c0.06,0.01,0.15,0.02,0.18,0.06
                                                        c0.15,0.21,0.1,0.46,0.1,0.69c0,1.5-0.01,2.99,0.01,4.49c0.01,1.09,0.02,2.18,0.1,3.26c0.09,1.23,0.06,2.45,0.03,3.67
                                                        c-0.02,0.92,0.06,1.84,0.03,2.75c-0.04,1.33-0.12,2.65-0.22,3.97c-0.16,2.07-0.34,4.14-0.52,6.2c-0.05,0.58-0.17,1.15-0.16,1.73
                                                        c0.03,1.6-0.07,3.19,0.04,4.79c0.09,1.42,0.06,2.86,0.09,4.28c0.03,1.56,0.08,3.13,0.11,4.69c0.04,1.8,0.08,3.6,0.07,5.4
                                                        c-0.01,2.28-0.03,4.56-0.09,6.83c-0.03,1.19-0.11,2.38-0.17,3.57C24.57,123.57,24.52,123.65,24.48,123.75z"></path>
                                                    <path class="st6 color-main-fill" d="M46.23,115.95c-0.01-0.02-0.09-0.09-0.12-0.18c-0.11-0.32-0.23-0.65-0.3-0.98
                                                        c-0.66-3.04-1.25-6.09-1.74-9.15c-0.41-2.52-0.93-5.03-1.31-7.56c-0.29-1.92-0.59-3.84-0.66-5.79c-0.06-1.53-0.23-3.05-0.33-4.58
                                                        c-0.07-1.09-0.13-2.17-0.14-3.26c-0.01-1.53-0.08-3.06-0.18-4.59c-0.06-0.92-0.04-1.84-0.07-2.75c-0.07-2.04-0.17-4.08-0.21-6.12
                                                        c-0.06-3.1-0.3-6.18-0.54-9.27c-0.11-1.39-0.2-2.79-0.31-4.18c-0.13-1.56-0.25-3.12-0.42-4.68c-0.06-0.61-0.24-1.2-0.36-1.81
                                                        c-0.56-2.88-1.09-5.77-1.36-8.69c-0.08-0.88-0.19-1.76-0.2-2.64c-0.03-1.54-0.35-3.04-0.59-4.56c-0.25-1.62-0.48-3.24-0.87-4.84
                                                        c-0.03-0.13-0.03-0.27-0.02-0.4c0-0.05,0.08-0.11,0.14-0.13c0.12-0.05,0.2,0.03,0.27,0.11c0.02,0.03,0.05,0.06,0.05,0.09
                                                        c0.24,1.62,0.63,3.22,0.76,4.85c0.04,0.48,0.09,0.95,0.23,1.41c0.33,1.12,0.34,2.29,0.49,3.44c0.09,0.67,0.11,1.36,0.14,2.03
                                                        c0.06,1.19,0.21,2.37,0.44,3.55c0.12,0.6,0.21,1.21,0.28,1.82c0.19,1.49,0.52,2.95,0.86,4.42c0.3,1.31,0.42,2.62,0.52,3.95
                                                        c0.17,2.24,0.33,4.48,0.49,6.72c0.03,0.44,0.04,0.88,0.06,1.32c0.02,0.44-0.01,0.89,0.07,1.32c0.18,0.91,0.17,1.83,0.16,2.75
                                                        c-0.01,0.78,0.05,1.56,0.1,2.34c0.1,1.7,0.12,3.4,0.18,5.1c0.06,1.7,0.13,3.4,0.19,5.1c0.07,1.97,0.1,3.94,0.19,5.92
                                                        c0.07,1.7,0.02,3.4,0.31,5.09c0.09,0.57,0.07,1.15,0.11,1.73c0.17,2.52,0.7,4.99,1.14,7.48c0.27,1.51,0.49,3.03,0.75,4.54
                                                        c0.28,1.58,0.57,3.16,0.89,4.73c0.38,1.91,0.8,3.81,1.19,5.71c0.04,0.2,0.09,0.4,0.01,0.6C46.47,115.97,46.42,116,46.23,115.95z"></path>
                                                </g>
                                                <path class="st6 color-main-fill" d="M28.83,12.09c-0.01,0.09,0,0.2-0.05,0.28c-0.18,0.33-0.41,0.64-0.57,0.98c-0.24,0.53-0.49,1.05-0.54,1.64
                                                    c-0.01,0.16-0.09,0.32-0.15,0.48c-0.05,0.12-0.28,0.15-0.37,0.06c-0.02-0.03-0.06-0.04-0.07-0.07c-0.37-0.7-0.81-1.37-1.04-2.12
                                                    c-0.03-0.1-0.05-0.2-0.04-0.3c0-0.05,0.07-0.12,0.12-0.14c0.05-0.01,0.16,0.01,0.18,0.05c0.14,0.27,0.26,0.55,0.39,0.83
                                                    c0.04,0.09,0.09,0.18,0.14,0.27c0.07,0.12,0.16,0.25,0.32,0.22c0.09-0.02,0.19-0.11,0.23-0.19c0.25-0.48,0.49-0.97,0.74-1.46
                                                    c0.11-0.21,0.18-0.45,0.4-0.58c0.05-0.03,0.13-0.03,0.2-0.03C28.76,12.01,28.79,12.06,28.83,12.09z"></path>
                                                <path class="st6 color-main-fill" d="M18.88,15.86c-0.51,0.09-0.97-0.04-1.42-0.28c-1.26-0.67-2.46-1.42-3.57-2.3c-0.14-0.11-0.28-0.22-0.28-0.41
                                                    c0-0.03,0.02-0.06,0.04-0.08c0.02-0.02,0.07-0.04,0.09-0.03c0.09,0.05,0.18,0.11,0.25,0.17c1.19,1.12,2.57,1.97,4.14,2.52
                                                    C18.41,15.55,18.66,15.67,18.88,15.86C18.88,15.87,18.88,15.86,18.88,15.86z"></path>
                                                <path class="st6 color-main-fill" d="M38.39,14.32c-0.01,0.03,0,0.08-0.02,0.1c-0.78,0.74-1.63,1.39-2.66,1.81c-0.04,0.02-0.15-0.03-0.17-0.08
                                                    c-0.02-0.04,0.01-0.15,0.05-0.17c0.94-0.55,1.88-1.09,2.83-1.63L38.39,14.32z"></path>
                                                <path class="st6 color-main-fill" d="M38.51,12.48c0.18-0.25,0.36-0.51,0.54-0.76c0.13-0.18,0.29-0.3,0.54-0.24l-0.01-0.02
                                                    c-0.19,0.24-0.37,0.47-0.57,0.71c-0.13,0.16-0.28,0.29-0.52,0.28L38.51,12.48z"></path>
                                                <path class="st6 color-main-fill" d="M38.49,12.46c0,0.06,0.01,0.12-0.01,0.18c-0.01,0.04-0.07,0.06-0.1,0.09c0.01-0.03,0.02-0.05,0.04-0.08
                                                    c0.03-0.05,0.06-0.1,0.09-0.15C38.51,12.48,38.49,12.46,38.49,12.46z"></path>
                                                <path class="st6 color-main-fill" d="M39.59,11.49c-0.02-0.05-0.08-0.11-0.06-0.15c0.03-0.07,0.05-0.05,0.03,0.04c-0.01,0.02,0.01,0.05,0.02,0.08
                                                    C39.58,11.47,39.59,11.49,39.59,11.49z"></path>
                                                <path class="st6 color-main-fill" d="M38.41,14.34c0.07-0.02,0.13-0.04,0.2-0.05c-0.04,0.17-0.14,0.06-0.22,0.03
                                                    C38.39,14.32,38.41,14.34,38.41,14.34z"></path>
                                            </g>
                                        </g>
                                        </svg>